<?xml version="1.0" encoding="UTF-8" standalone="no"?>
<!-- Created with Inkscape (http://www.inkscape.org/) -->

<svg
   xmlns:dc="http://purl.org/dc/elements/1.1/"
   xmlns:cc="http://creativecommons.org/ns#"
   xmlns:rdf="http://www.w3.org/1999/02/22-rdf-syntax-ns#"
   xmlns:svg="http://www.w3.org/2000/svg"
   xmlns="http://www.w3.org/2000/svg"
   xmlns:sodipodi="http://sodipodi.sourceforge.net/DTD/sodipodi-0.dtd"
   xmlns:inkscape="http://www.inkscape.org/namespaces/inkscape"
   id="svg2"
   version="1.1"
   inkscape:version="0.48.4 r9939"
   width="346.9873"
   height="344.21899"
   xml:space="preserve"
   sodipodi:docname="cdfex.pdf"><metadata
     id="metadata8"><rdf:RDF><cc:Work
         rdf:about=""><dc:format>image/svg+xml</dc:format><dc:type
           rdf:resource="http://purl.org/dc/dcmitype/StillImage" /><dc:title></dc:title></cc:Work></rdf:RDF></metadata><defs
     id="defs6"><clipPath
   clipPathUnits="userSpaceOnUse"
   id="clipPath18"><path
     d="m 0,5 10240,0 0,3015 L 0,3020 0,5 z"
     id="path20"
     inkscape:connector-curvature="0" /></clipPath><clipPath
   clipPathUnits="userSpaceOnUse"
   id="clipPath222"><path
     d="m 4071.67,2794.17 2458.33,0 0,-2458.338 -2458.33,0 0,2458.338 z"
     id="path224"
     inkscape:connector-curvature="0" /></clipPath><clipPath
   clipPathUnits="userSpaceOnUse"
   id="clipPath232"><path
     d="m 0,5 0,3015 10240,0 L 10240,5 0,5 z"
     id="path234"
     inkscape:connector-curvature="0" /></clipPath>
















</defs><sodipodi:namedview
     pagecolor="#ffffff"
     bordercolor="#666666"
     borderopacity="1"
     objecttolerance="10"
     gridtolerance="10"
     guidetolerance="10"
     inkscape:pageopacity="0"
     inkscape:pageshadow="2"
     inkscape:window-width="1366"
     inkscape:window-height="705"
     id="namedview4"
     showgrid="false"
     inkscape:zoom="1.0875"
     inkscape:cx="328.11219"
     inkscape:cy="90.509045"
     inkscape:window-x="-8"
     inkscape:window-y="-8"
     inkscape:window-maximized="1"
     inkscape:current-layer="g10"
     fit-margin-top="0"
     fit-margin-left="0"
     fit-margin-right="0"
     fit-margin-bottom="0" /><g
     id="g10"
     inkscape:groupmode="layer"
     inkscape:label="ink_ext_XXXXXX"
     transform="matrix(1.25,0,0,-1.25,-470.37841,353.67187)"><path
       inkscape:connector-curvature="0"
       id="path24"
       style="fill:#ffffff;fill-opacity:1;fill-rule:evenodd;stroke:none"
       d="m 407.167,33.6668 245.75,0 0,245.75 -245.75,0 0,-245.75 z" /><path
       inkscape:connector-curvature="0"
       id="path26"
       style="fill:none;stroke:#ffffff;stroke-width:0.5;stroke-linecap:butt;stroke-linejoin:round;stroke-miterlimit:10;stroke-opacity:1;stroke-dasharray:none"
       d="m 407.167,33.6668 0,245.7502 245.75,0 0,-245.7502 -245.75,0" /><path
       inkscape:connector-curvature="0"
       id="path28"
       style="fill:none;stroke:#000000;stroke-width:0.5;stroke-linecap:butt;stroke-linejoin:round;stroke-miterlimit:10;stroke-opacity:1;stroke-dasharray:none"
       d="m 407.167,279.417 245.75,0" /><path
       inkscape:connector-curvature="0"
       id="path30"
       style="fill:none;stroke:#000000;stroke-width:0.5;stroke-linecap:butt;stroke-linejoin:round;stroke-miterlimit:10;stroke-opacity:1;stroke-dasharray:none"
       d="m 407.167,33.6668 245.75,0" /><path
       inkscape:connector-curvature="0"
       id="path32"
       style="fill:none;stroke:#000000;stroke-width:0.5;stroke-linecap:butt;stroke-linejoin:round;stroke-miterlimit:10;stroke-opacity:1;stroke-dasharray:none"
       d="m 652.917,33.6668 0,245.7502" /><path
       inkscape:connector-curvature="0"
       id="path34"
       style="fill:none;stroke:#000000;stroke-width:0.5;stroke-linecap:butt;stroke-linejoin:round;stroke-miterlimit:10;stroke-opacity:1;stroke-dasharray:none"
       d="m 407.167,33.6668 0,245.7502" /><path
       inkscape:connector-curvature="0"
       id="path36"
       style="fill:none;stroke:#000000;stroke-width:0.5;stroke-linecap:butt;stroke-linejoin:round;stroke-miterlimit:10;stroke-opacity:1;stroke-dasharray:none"
       d="m 407.167,33.6668 245.75,0" /><path
       inkscape:connector-curvature="0"
       id="path38"
       style="fill:none;stroke:#000000;stroke-width:0.5;stroke-linecap:butt;stroke-linejoin:round;stroke-miterlimit:10;stroke-opacity:1;stroke-dasharray:none"
       d="m 407.167,33.6668 0,245.7502" /><path
       inkscape:connector-curvature="0"
       id="path40"
       style="fill:none;stroke:#000000;stroke-width:0.5;stroke-linecap:butt;stroke-linejoin:round;stroke-miterlimit:10;stroke-opacity:1;stroke-dasharray:none"
       d="m 407.167,33.6668 0,2.5" /><path
       inkscape:connector-curvature="0"
       id="path42"
       style="fill:none;stroke:#000000;stroke-width:0.5;stroke-linecap:butt;stroke-linejoin:round;stroke-miterlimit:10;stroke-opacity:1;stroke-dasharray:none"
       d="m 407.167,279.417 0,-2.417" /><text
       transform="scale(1,-1)"
       id="text46"
       x="404.41699"
       y="-21.5832"><tspan
         style="font-size:10px;font-variant:normal;font-weight:normal;writing-mode:lr-tb;fill:#000000;fill-opacity:1;fill-rule:nonzero;stroke:none;font-family:Helvetica;-inkscape-font-specification:Helvetica"
         x="404.41699"
         y="-21.5832"
         id="tspan48">0</tspan></text>
<path
       inkscape:connector-curvature="0"
       id="path50"
       style="fill:none;stroke:#000000;stroke-width:0.5;stroke-linecap:butt;stroke-linejoin:round;stroke-miterlimit:10;stroke-opacity:1;stroke-dasharray:none"
       d="m 456.333,33.6668 0,2.5" /><path
       inkscape:connector-curvature="0"
       id="path52"
       style="fill:none;stroke:#000000;stroke-width:0.5;stroke-linecap:butt;stroke-linejoin:round;stroke-miterlimit:10;stroke-opacity:1;stroke-dasharray:none"
       d="m 456.333,279.417 0,-2.417" /><text
       transform="scale(1,-1)"
       id="text56"
       x="449.41699"
       y="-21.5832"><tspan
         style="font-size:10px;font-variant:normal;font-weight:normal;writing-mode:lr-tb;fill:#000000;fill-opacity:1;fill-rule:nonzero;stroke:none;font-family:Helvetica;-inkscape-font-specification:Helvetica"
         x="449.41699 454.97699 457.75699"
         y="-21.5832"
         sodipodi:role="line"
         id="tspan58">0.2</tspan></text>
<path
       inkscape:connector-curvature="0"
       id="path60"
       style="fill:none;stroke:#000000;stroke-width:0.5;stroke-linecap:butt;stroke-linejoin:round;stroke-miterlimit:10;stroke-opacity:1;stroke-dasharray:none"
       d="m 505.5,33.6668 0,2.5" /><path
       inkscape:connector-curvature="0"
       id="path62"
       style="fill:none;stroke:#000000;stroke-width:0.5;stroke-linecap:butt;stroke-linejoin:round;stroke-miterlimit:10;stroke-opacity:1;stroke-dasharray:none"
       d="m 505.5,279.417 0,-2.417" /><text
       transform="scale(1,-1)"
       id="text66"
       x="498.58301"
       y="-21.5832"><tspan
         style="font-size:10px;font-variant:normal;font-weight:normal;writing-mode:lr-tb;fill:#000000;fill-opacity:1;fill-rule:nonzero;stroke:none;font-family:Helvetica;-inkscape-font-specification:Helvetica"
         x="498.58301 504.14301 506.923"
         y="-21.5832"
         sodipodi:role="line"
         id="tspan68">0.4</tspan></text>
<path
       inkscape:connector-curvature="0"
       id="path70"
       style="fill:none;stroke:#000000;stroke-width:0.5;stroke-linecap:butt;stroke-linejoin:round;stroke-miterlimit:10;stroke-opacity:1;stroke-dasharray:none"
       d="m 554.583,33.6668 0,2.5" /><path
       inkscape:connector-curvature="0"
       id="path72"
       style="fill:none;stroke:#000000;stroke-width:0.5;stroke-linecap:butt;stroke-linejoin:round;stroke-miterlimit:10;stroke-opacity:1;stroke-dasharray:none"
       d="m 554.583,279.417 0,-2.417" /><text
       transform="scale(1,-1)"
       id="text76"
       x="547.66699"
       y="-21.5832"><tspan
         style="font-size:10px;font-variant:normal;font-weight:normal;writing-mode:lr-tb;fill:#000000;fill-opacity:1;fill-rule:nonzero;stroke:none;font-family:Helvetica;-inkscape-font-specification:Helvetica"
         x="547.66699 553.22699 556.00702"
         y="-21.5832"
         sodipodi:role="line"
         id="tspan78">0.6</tspan></text>
<path
       inkscape:connector-curvature="0"
       id="path80"
       style="fill:none;stroke:#000000;stroke-width:0.5;stroke-linecap:butt;stroke-linejoin:round;stroke-miterlimit:10;stroke-opacity:1;stroke-dasharray:none"
       d="m 603.75,33.6668 0,2.5" /><path
       inkscape:connector-curvature="0"
       id="path82"
       style="fill:none;stroke:#000000;stroke-width:0.5;stroke-linecap:butt;stroke-linejoin:round;stroke-miterlimit:10;stroke-opacity:1;stroke-dasharray:none"
       d="m 603.75,279.417 0,-2.417" /><text
       transform="scale(1,-1)"
       id="text86"
       x="596.83301"
       y="-21.5832"><tspan
         style="font-size:10px;font-variant:normal;font-weight:normal;writing-mode:lr-tb;fill:#000000;fill-opacity:1;fill-rule:nonzero;stroke:none;font-family:Helvetica;-inkscape-font-specification:Helvetica"
         x="596.83301 602.39301 605.17297"
         y="-21.5832"
         sodipodi:role="line"
         id="tspan88">0.8</tspan></text>
<path
       inkscape:connector-curvature="0"
       id="path90"
       style="fill:none;stroke:#000000;stroke-width:0.5;stroke-linecap:butt;stroke-linejoin:round;stroke-miterlimit:10;stroke-opacity:1;stroke-dasharray:none"
       d="m 652.917,33.6668 0,2.5" /><path
       inkscape:connector-curvature="0"
       id="path92"
       style="fill:none;stroke:#000000;stroke-width:0.5;stroke-linecap:butt;stroke-linejoin:round;stroke-miterlimit:10;stroke-opacity:1;stroke-dasharray:none"
       d="m 652.917,279.417 0,-2.417" /><text
       transform="scale(1,-1)"
       id="text96"
       x="650.16699"
       y="-21.5832"><tspan
         style="font-size:10px;font-variant:normal;font-weight:normal;writing-mode:lr-tb;fill:#000000;fill-opacity:1;fill-rule:nonzero;stroke:none;font-family:Helvetica;-inkscape-font-specification:Helvetica"
         x="650.16699"
         y="-21.5832"
         id="tspan98">1</tspan></text>
<path
       inkscape:connector-curvature="0"
       id="path100"
       style="fill:none;stroke:#000000;stroke-width:0.5;stroke-linecap:butt;stroke-linejoin:round;stroke-miterlimit:10;stroke-opacity:1;stroke-dasharray:none"
       d="m 407.167,33.6668 2.416,0" /><path
       inkscape:connector-curvature="0"
       id="path102"
       style="fill:none;stroke:#000000;stroke-width:0.5;stroke-linecap:butt;stroke-linejoin:round;stroke-miterlimit:10;stroke-opacity:1;stroke-dasharray:none"
       d="m 652.917,33.6668 -2.417,0" /><text
       transform="scale(1,-1)"
       id="text106"
       x="398.75"
       y="-30"><tspan
         style="font-size:10px;font-variant:normal;font-weight:normal;writing-mode:lr-tb;fill:#000000;fill-opacity:1;fill-rule:nonzero;stroke:none;font-family:Helvetica;-inkscape-font-specification:Helvetica"
         x="398.75"
         y="-30"
         id="tspan108">0</tspan></text>
<path
       inkscape:connector-curvature="0"
       id="path110"
       style="fill:none;stroke:#000000;stroke-width:0.5;stroke-linecap:butt;stroke-linejoin:round;stroke-miterlimit:10;stroke-opacity:1;stroke-dasharray:none"
       d="m 407.167,58.25 2.416,0" /><path
       inkscape:connector-curvature="0"
       id="path112"
       style="fill:none;stroke:#000000;stroke-width:0.5;stroke-linecap:butt;stroke-linejoin:round;stroke-miterlimit:10;stroke-opacity:1;stroke-dasharray:none"
       d="m 652.917,58.25 -2.417,0" /><text
       transform="scale(1,-1)"
       id="text116"
       x="390.41699"
       y="-54.583199"><tspan
         style="font-size:10px;font-variant:normal;font-weight:normal;writing-mode:lr-tb;fill:#000000;fill-opacity:1;fill-rule:nonzero;stroke:none;font-family:Helvetica;-inkscape-font-specification:Helvetica"
         x="390.41699 395.97699 398.75699"
         y="-54.583199"
         sodipodi:role="line"
         id="tspan118">0.1</tspan></text>
<path
       inkscape:connector-curvature="0"
       id="path120"
       style="fill:none;stroke:#000000;stroke-width:0.5;stroke-linecap:butt;stroke-linejoin:round;stroke-miterlimit:10;stroke-opacity:1;stroke-dasharray:none"
       d="m 407.167,82.8332 2.416,0" /><path
       inkscape:connector-curvature="0"
       id="path122"
       style="fill:none;stroke:#000000;stroke-width:0.5;stroke-linecap:butt;stroke-linejoin:round;stroke-miterlimit:10;stroke-opacity:1;stroke-dasharray:none"
       d="m 652.917,82.8332 -2.417,0" /><text
       transform="scale(1,-1)"
       id="text126"
       x="390.41699"
       y="-79.166801"><tspan
         style="font-size:10px;font-variant:normal;font-weight:normal;writing-mode:lr-tb;fill:#000000;fill-opacity:1;fill-rule:nonzero;stroke:none;font-family:Helvetica;-inkscape-font-specification:Helvetica"
         x="390.41699 395.97699 398.75699"
         y="-79.166801"
         sodipodi:role="line"
         id="tspan128">0.2</tspan></text>
<path
       inkscape:connector-curvature="0"
       id="path130"
       style="fill:none;stroke:#000000;stroke-width:0.5;stroke-linecap:butt;stroke-linejoin:round;stroke-miterlimit:10;stroke-opacity:1;stroke-dasharray:none"
       d="m 407.167,107.417 2.416,0" /><path
       inkscape:connector-curvature="0"
       id="path132"
       style="fill:none;stroke:#000000;stroke-width:0.5;stroke-linecap:butt;stroke-linejoin:round;stroke-miterlimit:10;stroke-opacity:1;stroke-dasharray:none"
       d="m 652.917,107.417 -2.417,0" /><text
       transform="scale(1,-1)"
       id="text136"
       x="390.41699"
       y="-103.75"><tspan
         style="font-size:10px;font-variant:normal;font-weight:normal;writing-mode:lr-tb;fill:#000000;fill-opacity:1;fill-rule:nonzero;stroke:none;font-family:Helvetica;-inkscape-font-specification:Helvetica"
         x="390.41699 395.97699 398.75699"
         y="-103.75"
         sodipodi:role="line"
         id="tspan138">0.3</tspan></text>
<path
       inkscape:connector-curvature="0"
       id="path140"
       style="fill:none;stroke:#000000;stroke-width:0.5;stroke-linecap:butt;stroke-linejoin:round;stroke-miterlimit:10;stroke-opacity:1;stroke-dasharray:none"
       d="m 407.167,132 2.416,0" /><path
       inkscape:connector-curvature="0"
       id="path142"
       style="fill:none;stroke:#000000;stroke-width:0.5;stroke-linecap:butt;stroke-linejoin:round;stroke-miterlimit:10;stroke-opacity:1;stroke-dasharray:none"
       d="m 652.917,132 -2.417,0" /><text
       transform="scale(1,-1)"
       id="text146"
       x="390.41699"
       y="-128.33299"><tspan
         style="font-size:10px;font-variant:normal;font-weight:normal;writing-mode:lr-tb;fill:#000000;fill-opacity:1;fill-rule:nonzero;stroke:none;font-family:Helvetica;-inkscape-font-specification:Helvetica"
         x="390.41699 395.97699 398.75699"
         y="-128.33299"
         sodipodi:role="line"
         id="tspan148">0.4</tspan></text>
<path
       inkscape:connector-curvature="0"
       id="path150"
       style="fill:none;stroke:#000000;stroke-width:0.5;stroke-linecap:butt;stroke-linejoin:round;stroke-miterlimit:10;stroke-opacity:1;stroke-dasharray:none"
       d="m 407.167,156.583 2.416,0" /><path
       inkscape:connector-curvature="0"
       id="path152"
       style="fill:none;stroke:#000000;stroke-width:0.5;stroke-linecap:butt;stroke-linejoin:round;stroke-miterlimit:10;stroke-opacity:1;stroke-dasharray:none"
       d="m 652.917,156.583 -2.417,0" /><text
       transform="scale(1,-1)"
       id="text156"
       x="390.41699"
       y="-152.91701"><tspan
         style="font-size:10px;font-variant:normal;font-weight:normal;writing-mode:lr-tb;fill:#000000;fill-opacity:1;fill-rule:nonzero;stroke:none;font-family:Helvetica;-inkscape-font-specification:Helvetica"
         x="390.41699 395.97699 398.75699"
         y="-152.91701"
         sodipodi:role="line"
         id="tspan158">0.5</tspan></text>
<path
       inkscape:connector-curvature="0"
       id="path160"
       style="fill:none;stroke:#000000;stroke-width:0.5;stroke-linecap:butt;stroke-linejoin:round;stroke-miterlimit:10;stroke-opacity:1;stroke-dasharray:none"
       d="m 407.167,181.167 2.416,0" /><path
       inkscape:connector-curvature="0"
       id="path162"
       style="fill:none;stroke:#000000;stroke-width:0.5;stroke-linecap:butt;stroke-linejoin:round;stroke-miterlimit:10;stroke-opacity:1;stroke-dasharray:none"
       d="m 652.917,181.167 -2.417,0" /><text
       transform="scale(1,-1)"
       id="text166"
       x="390.41699"
       y="-177.5"><tspan
         style="font-size:10px;font-variant:normal;font-weight:normal;writing-mode:lr-tb;fill:#000000;fill-opacity:1;fill-rule:nonzero;stroke:none;font-family:Helvetica;-inkscape-font-specification:Helvetica"
         x="390.41699 395.97699 398.75699"
         y="-177.5"
         sodipodi:role="line"
         id="tspan168">0.6</tspan></text>
<path
       inkscape:connector-curvature="0"
       id="path170"
       style="fill:none;stroke:#000000;stroke-width:0.5;stroke-linecap:butt;stroke-linejoin:round;stroke-miterlimit:10;stroke-opacity:1;stroke-dasharray:none"
       d="m 407.167,205.75 2.416,0" /><path
       inkscape:connector-curvature="0"
       id="path172"
       style="fill:none;stroke:#000000;stroke-width:0.5;stroke-linecap:butt;stroke-linejoin:round;stroke-miterlimit:10;stroke-opacity:1;stroke-dasharray:none"
       d="m 652.917,205.75 -2.417,0" /><text
       transform="scale(1,-1)"
       id="text176"
       x="390.41699"
       y="-202.08299"><tspan
         style="font-size:10px;font-variant:normal;font-weight:normal;writing-mode:lr-tb;fill:#000000;fill-opacity:1;fill-rule:nonzero;stroke:none;font-family:Helvetica;-inkscape-font-specification:Helvetica"
         x="390.41699 395.97699 398.75699"
         y="-202.08299"
         sodipodi:role="line"
         id="tspan178">0.7</tspan></text>
<path
       inkscape:connector-curvature="0"
       id="path180"
       style="fill:none;stroke:#000000;stroke-width:0.5;stroke-linecap:butt;stroke-linejoin:round;stroke-miterlimit:10;stroke-opacity:1;stroke-dasharray:none"
       d="m 407.167,230.333 2.416,0" /><path
       inkscape:connector-curvature="0"
       id="path182"
       style="fill:none;stroke:#000000;stroke-width:0.5;stroke-linecap:butt;stroke-linejoin:round;stroke-miterlimit:10;stroke-opacity:1;stroke-dasharray:none"
       d="m 652.917,230.333 -2.417,0" /><text
       transform="scale(1,-1)"
       id="text186"
       x="390.41699"
       y="-226.66701"><tspan
         style="font-size:10px;font-variant:normal;font-weight:normal;writing-mode:lr-tb;fill:#000000;fill-opacity:1;fill-rule:nonzero;stroke:none;font-family:Helvetica;-inkscape-font-specification:Helvetica"
         x="390.41699 395.97699 398.75699"
         y="-226.66701"
         sodipodi:role="line"
         id="tspan188">0.8</tspan></text>
<path
       inkscape:connector-curvature="0"
       id="path190"
       style="fill:none;stroke:#000000;stroke-width:0.5;stroke-linecap:butt;stroke-linejoin:round;stroke-miterlimit:10;stroke-opacity:1;stroke-dasharray:none"
       d="m 407.167,254.917 2.416,0" /><path
       inkscape:connector-curvature="0"
       id="path192"
       style="fill:none;stroke:#000000;stroke-width:0.5;stroke-linecap:butt;stroke-linejoin:round;stroke-miterlimit:10;stroke-opacity:1;stroke-dasharray:none"
       d="m 652.917,254.917 -2.417,0" /><text
       transform="scale(1,-1)"
       id="text196"
       x="390.41699"
       y="-251.25"><tspan
         style="font-size:10px;font-variant:normal;font-weight:normal;writing-mode:lr-tb;fill:#000000;fill-opacity:1;fill-rule:nonzero;stroke:none;font-family:Helvetica;-inkscape-font-specification:Helvetica"
         x="390.41699 395.97699 398.75699"
         y="-251.25"
         sodipodi:role="line"
         id="tspan198">0.9</tspan></text>
<path
       inkscape:connector-curvature="0"
       id="path200"
       style="fill:none;stroke:#000000;stroke-width:0.5;stroke-linecap:butt;stroke-linejoin:round;stroke-miterlimit:10;stroke-opacity:1;stroke-dasharray:none"
       d="m 407.167,279.417 2.416,0" /><path
       inkscape:connector-curvature="0"
       id="path202"
       style="fill:none;stroke:#000000;stroke-width:0.5;stroke-linecap:butt;stroke-linejoin:round;stroke-miterlimit:10;stroke-opacity:1;stroke-dasharray:none"
       d="m 652.917,279.417 -2.417,0" /><text
       transform="scale(1,-1)"
       id="text206"
       x="398.75"
       y="-275.75"><tspan
         style="font-size:10px;font-variant:normal;font-weight:normal;writing-mode:lr-tb;fill:#000000;fill-opacity:1;fill-rule:nonzero;stroke:none;font-family:Helvetica;-inkscape-font-specification:Helvetica"
         x="398.75"
         y="-275.75"
         id="tspan208">1</tspan></text>
<path
       inkscape:connector-curvature="0"
       id="path210"
       style="fill:none;stroke:#000000;stroke-width:0.5;stroke-linecap:butt;stroke-linejoin:round;stroke-miterlimit:10;stroke-opacity:1;stroke-dasharray:none"
       d="m 407.167,279.417 245.75,0" /><path
       inkscape:connector-curvature="0"
       id="path212"
       style="fill:none;stroke:#000000;stroke-width:0.5;stroke-linecap:butt;stroke-linejoin:round;stroke-miterlimit:10;stroke-opacity:1;stroke-dasharray:none"
       d="m 407.167,33.6668 245.75,0" /><path
       inkscape:connector-curvature="0"
       id="path214"
       style="fill:none;stroke:#000000;stroke-width:0.5;stroke-linecap:butt;stroke-linejoin:round;stroke-miterlimit:10;stroke-opacity:1;stroke-dasharray:none"
       d="m 652.917,33.6668 0,245.7502" /><path
       inkscape:connector-curvature="0"
       id="path216"
       style="fill:none;stroke:#000000;stroke-width:0.5;stroke-linecap:butt;stroke-linejoin:round;stroke-miterlimit:10;stroke-opacity:1;stroke-dasharray:none"
       d="m 407.167,33.6668 0,245.7502" /><g
       id="g218"
       transform="scale(0.1,0.1)"><g
         clip-path="url(#clipPath222)"
         id="g220"><path
           inkscape:connector-curvature="0"
           id="path226"
           style="fill:none;stroke:#0000ff;stroke-width:5;stroke-linecap:butt;stroke-linejoin:round;stroke-miterlimit:10;stroke-opacity:1;stroke-dasharray:none"
           d="m 4071.67,336.668 25,0.832 520.83,0 25,0.832 50,0 24.17,0.836 25,0 25,0.832 25,0.832 25,0.836 24.16,0.832 25,1.668 25,0.832 25,1.668 25,2.5 24.17,1.664 25,2.5 25,3.336 25,3.332 25,3.332 24.17,4.168 25,5 25,5 25,5.832 24.16,6.668 25,7.5 25,8.332 25,9.168 25,10 24.17,11.668 25,11.664 25,14.168 25,15 25,15.832 24.17,17.5 25,20 25,20.836 25,22.5 24.16,25 25,26.664 25,28.336 25,30.832 25,33.332 24.17,35 25,38.336 25,40 25,43.332 25,45.832 24.17,48.336 25,50.832 25,54.17 25,55.83 25,59.17 24.16,62.5 25,64.16 25,66.67 25,70 24.17,70.83 25,74.17 25,75 25,76.67 25,78.33 24.17,78.33 25,79.17 25,79.17 25,78.33 25,77.5 24.16,75 25,73.33 25,70 25,65.84 24.17,61.66 25,55.84 25,49.16 25,42.5 25,34.17 24.17,25.83 25,15.84 25,5" /></g></g><g
       id="g228"
       transform="scale(0.1,0.1)"><g
         clip-path="url(#clipPath232)"
         id="g230"><g
           transform="scale(10,10)"
           id="g236"><text
   id="text238"
   transform="matrix(1,0,0,-1,511.083,9.6668)"><tspan
     id="tspan240"
     sodipodi:role="line"
     y="0"
     x="0 5.5599999"
     style="font-size:10px;font-variant:normal;font-weight:normal;writing-mode:lr-tb;fill:#000000;fill-opacity:1;fill-rule:nonzero;stroke:none;font-family:Helvetica;-inkscape-font-specification:Helvetica">u </tspan></text>

<text
   id="text242"
   transform="matrix(1,0,0,-1,519.41659,9.6668)"><tspan
     id="tspan244"
     y="0"
     x="0"
     style="font-size:10px;font-variant:normal;font-weight:normal;writing-mode:lr-tb;fill:#000000;fill-opacity:1;fill-rule:nonzero;stroke:none;font-family:Symbol;-inkscape-font-specification:Symbol">∈</tspan></text>

<text
   id="text246"
   transform="matrix(1,0,0,-1,529.27979,9.6668)"><tspan
     id="tspan248"
     sodipodi:role="line"
     y="0"
     x="0 2.78 8.3400002 11.12 16.68"
     style="font-size:10px;font-variant:normal;font-weight:normal;writing-mode:lr-tb;fill:#000000;fill-opacity:1;fill-rule:nonzero;stroke:none;font-family:Helvetica;-inkscape-font-specification:Helvetica">[0,1)</tspan></text>

<text
   id="text250"
   transform="matrix(0,1,1,0,383.583,87.25)"><tspan
     id="tspan252"
     sodipodi:role="line"
     y="0"
     x="0 7.2199998 12.78 21.110001 26.67 28.889999 34.450001 37.23 39.450001 44.450001 50.009998 52.790001 58.349998 60.57 65.57 68.349998 71.68 73.900002 79.459999 85.019997 87.800003 90.019997 95.580002 101.14 103.92 106.7 112.26 117.82 122.82 125.6 127.82 133.38"
     style="font-size:10px;font-variant:normal;font-weight:normal;writing-mode:lr-tb;fill:#000000;fill-opacity:1;fill-rule:nonzero;stroke:none;font-family:Helvetica;-inkscape-font-specification:Helvetica">Comulative distribution function</tspan></text>

</g></g></g><g
       id="g3886"
       style="stroke:#000872;stroke-width:0.80000001;stroke-miterlimit:4;stroke-opacity:1;stroke-dasharray:3.2, 3.2;stroke-dashoffset:0"><path
         transform="matrix(0.8,0,0,-0.8,0,302)"
         inkscape:connector-curvature="0"
         id="path4088"
         d="m 507.58621,308.53448 177.47126,0 0,26.66667"
         style="fill:none;stroke:#000872;stroke-width:1;stroke-linecap:butt;stroke-linejoin:miter;stroke-miterlimit:4;stroke-opacity:1;stroke-dasharray:4, 4;stroke-dashoffset:0" /><path
         transform="matrix(0.8,0,0,-0.8,0,302)"
         inkscape:connector-curvature="0"
         id="path4090"
         d="m 508.96552,267.15517 208.73563,0 0,68.04598"
         style="fill:none;stroke:#000872;stroke-width:1;stroke-linecap:butt;stroke-linejoin:miter;stroke-miterlimit:4;stroke-opacity:1;stroke-dasharray:4, 4;stroke-dashoffset:0" /><path
         transform="matrix(0.8,0,0,-0.8,0,302)"
         inkscape:connector-curvature="0"
         id="path4092"
         d="m 508.04598,193.13218 241.37931,0 0,142.52874"
         style="fill:none;stroke:#000872;stroke-width:1;stroke-linecap:butt;stroke-linejoin:miter;stroke-miterlimit:4;stroke-opacity:1;stroke-dasharray:4, 4;stroke-dashoffset:0" /><path
         transform="matrix(0.8,0,0,-0.8,0,302)"
         inkscape:connector-curvature="0"
         id="path4094"
         d="m 508.50575,165.08621 250.11494,0 0,170.11494"
         style="fill:none;stroke:#000872;stroke-width:1;stroke-linecap:butt;stroke-linejoin:miter;stroke-miterlimit:4;stroke-opacity:1;stroke-dasharray:4, 4;stroke-dashoffset:0" /><path
         transform="matrix(0.8,0,0,-0.8,0,302)"
         inkscape:connector-curvature="0"
         id="path4096"
         d="m 508.04598,77.270114 278.62069,0 0,257.471266"
         style="fill:none;stroke:#000872;stroke-width:1;stroke-linecap:butt;stroke-linejoin:miter;stroke-miterlimit:4;stroke-opacity:1;stroke-dasharray:4, 4;stroke-dashoffset:0" /></g><path
       sodipodi:type="arc"
       style="color:#000000;fill:#ea1212;fill-opacity:1;fill-rule:nonzero;stroke:none;stroke-width:1.5;marker:none;visibility:visible;display:inline;overflow:visible;enable-background:accumulate"
       id="path3229"
       sodipodi:cx="358.59253"
       sodipodi:cy="180.81053"
       sodipodi:rx="4.8765984"
       sodipodi:ry="4.8765984"
       d="m 363.46913,180.81053 c 0,2.69327 -2.18333,4.8766 -4.8766,4.8766 -2.69327,0 -4.8766,-2.18333 -4.8766,-4.8766 0,-2.69327 2.18333,-4.8766 4.8766,-4.8766 2.69327,0 4.8766,2.18333 4.8766,4.8766 z"
       transform="matrix(0,-0.79998386,-0.79998386,0,554.87884,526.9231)" /><path
       sodipodi:type="arc"
       style="color:#000000;fill:#ea1212;fill-opacity:1;fill-rule:nonzero;stroke:none;stroke-width:1.5;marker:none;visibility:visible;display:inline;overflow:visible;enable-background:accumulate"
       id="path3229-4"
       sodipodi:cx="358.59253"
       sodipodi:cy="180.81053"
       sodipodi:rx="4.8765984"
       sodipodi:ry="4.8765984"
       d="m 363.46913,180.81053 c 0,2.69327 -2.18333,4.8766 -4.8766,4.8766 -2.69327,0 -4.8766,-2.18333 -4.8766,-4.8766 0,-2.69327 2.18333,-4.8766 4.8766,-4.8766 2.69327,0 4.8766,2.18333 4.8766,4.8766 z"
       transform="matrix(0,-0.79998386,-0.79998386,0,554.87884,456.52452)" /><path
       sodipodi:type="arc"
       style="color:#000000;fill:#ea1212;fill-opacity:1;fill-rule:nonzero;stroke:none;stroke-width:1.5;marker:none;visibility:visible;display:inline;overflow:visible;enable-background:accumulate"
       id="path3229-4-6"
       sodipodi:cx="358.59253"
       sodipodi:cy="180.81053"
       sodipodi:rx="4.8765984"
       sodipodi:ry="4.8765984"
       d="m 363.46913,180.81053 c 0,2.69327 -2.18333,4.8766 -4.8766,4.8766 -2.69327,0 -4.8766,-2.18333 -4.8766,-4.8766 0,-2.69327 2.18333,-4.8766 4.8766,-4.8766 2.69327,0 4.8766,2.18333 4.8766,4.8766 z"
       transform="matrix(0,-0.79998386,-0.79998386,0,554.87884,434.12497)" /><path
       sodipodi:type="arc"
       style="color:#000000;fill:#ea1212;fill-opacity:1;fill-rule:nonzero;stroke:none;stroke-width:1.5;marker:none;visibility:visible;display:inline;overflow:visible;enable-background:accumulate"
       id="path3229-4-6-3"
       sodipodi:cx="358.59253"
       sodipodi:cy="180.81053"
       sodipodi:rx="4.8765984"
       sodipodi:ry="4.8765984"
       d="m 363.46913,180.81053 c 0,2.69327 -2.18333,4.8766 -4.8766,4.8766 -2.69327,0 -4.8766,-2.18333 -4.8766,-4.8766 0,-2.69327 2.18333,-4.8766 4.8766,-4.8766 2.69327,0 4.8766,2.18333 4.8766,4.8766 z"
       transform="matrix(0,-0.79998386,-0.79998386,0,554.87884,374.92617)" /><path
       sodipodi:type="arc"
       style="color:#000000;fill:#ea1212;fill-opacity:1;fill-rule:nonzero;stroke:none;stroke-width:1.5;marker:none;visibility:visible;display:inline;overflow:visible;enable-background:accumulate"
       id="path3229-4-6-3-8"
       sodipodi:cx="358.59253"
       sodipodi:cy="180.81053"
       sodipodi:rx="4.8765984"
       sodipodi:ry="4.8765984"
       d="m 363.46913,180.81053 c 0,2.69327 -2.18333,4.8766 -4.8766,4.8766 -2.69327,0 -4.8766,-2.18333 -4.8766,-4.8766 0,-2.69327 2.18333,-4.8766 4.8766,-4.8766 2.69327,0 4.8766,2.18333 4.8766,4.8766 z"
       transform="matrix(0,-0.79998386,-0.79998386,0,554.87884,341.32685)" /><path
       sodipodi:type="arc"
       style="color:#000000;fill:#008000;fill-opacity:1;fill-rule:nonzero;stroke:none;stroke-width:1.5;marker:none;visibility:visible;display:inline;overflow:visible;enable-background:accumulate"
       id="path3229-4-6-3-8-4"
       sodipodi:cx="358.59253"
       sodipodi:cy="180.81053"
       sodipodi:rx="4.8765984"
       sodipodi:ry="4.8765984"
       d="m 363.46913,180.81053 c 0,2.69327 -2.18333,4.8766 -4.8766,4.8766 -2.69327,0 -4.8766,-2.18333 -4.8766,-4.8766 0,-2.69327 2.18333,-4.8766 4.8766,-4.8766 2.69327,0 4.8766,2.18333 4.8766,4.8766 z"
       transform="matrix(0,-0.8,-0.8,0,692.6944,323.9131)" /><path
       sodipodi:type="arc"
       style="color:#000000;fill:#008000;fill-opacity:1;fill-rule:nonzero;stroke:none;stroke-width:1.5;marker:none;visibility:visible;display:inline;overflow:visible;enable-background:accumulate"
       id="path3229-4-6-3-8-4-6"
       sodipodi:cx="358.59253"
       sodipodi:cy="180.81053"
       sodipodi:rx="4.8765984"
       sodipodi:ry="4.8765984"
       d="m 363.46913,180.81053 c 0,2.69327 -2.18333,4.8766 -4.8766,4.8766 -2.69327,0 -4.8766,-2.18333 -4.8766,-4.8766 0,-2.69327 2.18333,-4.8766 4.8766,-4.8766 2.69327,0 4.8766,2.18333 4.8766,4.8766 z"
       transform="matrix(0,-0.8,-0.8,0,718.2944,323.9131)" /><path
       sodipodi:type="arc"
       style="color:#000000;fill:#008000;fill-opacity:1;fill-rule:nonzero;stroke:none;stroke-width:1.5;marker:none;visibility:visible;display:inline;overflow:visible;enable-background:accumulate"
       id="path3229-4-6-3-8-4-6-8"
       sodipodi:cx="358.59253"
       sodipodi:cy="180.81053"
       sodipodi:rx="4.8765984"
       sodipodi:ry="4.8765984"
       d="m 363.46913,180.81053 c 0,2.69327 -2.18333,4.8766 -4.8766,4.8766 -2.69327,0 -4.8766,-2.18333 -4.8766,-4.8766 0,-2.69327 2.18333,-4.8766 4.8766,-4.8766 2.69327,0 4.8766,2.18333 4.8766,4.8766 z"
       transform="matrix(0,-0.8,-0.8,0,743.8944,323.9131)" /><path
       sodipodi:type="arc"
       style="color:#000000;fill:#008000;fill-opacity:1;fill-rule:nonzero;stroke:none;stroke-width:1.5;marker:none;visibility:visible;display:inline;overflow:visible;enable-background:accumulate"
       id="path3229-4-6-3-8-4-6-8-8"
       sodipodi:cx="358.59253"
       sodipodi:cy="180.81053"
       sodipodi:rx="4.8765984"
       sodipodi:ry="4.8765984"
       d="m 363.46913,180.81053 c 0,2.69327 -2.18333,4.8766 -4.8766,4.8766 -2.69327,0 -4.8766,-2.18333 -4.8766,-4.8766 0,-2.69327 2.18333,-4.8766 4.8766,-4.8766 2.69327,0 4.8766,2.18333 4.8766,4.8766 z"
       transform="matrix(0,-0.8,-0.8,0,751.8944,323.9131)" /><path
       sodipodi:type="arc"
       style="color:#000000;fill:#008000;fill-opacity:1;fill-rule:nonzero;stroke:none;stroke-width:1.5;marker:none;visibility:visible;display:inline;overflow:visible;enable-background:accumulate"
       id="path3229-4-6-3-8-4-6-8-8-3"
       sodipodi:cx="358.59253"
       sodipodi:cy="180.81053"
       sodipodi:rx="4.8765984"
       sodipodi:ry="4.8765984"
       d="m 363.46913,180.81053 c 0,2.69327 -2.18333,4.8766 -4.8766,4.8766 -2.69327,0 -4.8766,-2.18333 -4.8766,-4.8766 0,-2.69327 2.18333,-4.8766 4.8766,-4.8766 2.69327,0 4.8766,2.18333 4.8766,4.8766 z"
       transform="matrix(0,-0.8,-0.8,0,774.2944,323.9131)" /></g></svg>