<?xml version="1.0" encoding="UTF-8" standalone="no"?>
<!-- Created with Inkscape (http://www.inkscape.org/) -->

<svg
   xmlns:dc="http://purl.org/dc/elements/1.1/"
   xmlns:cc="http://creativecommons.org/ns#"
   xmlns:rdf="http://www.w3.org/1999/02/22-rdf-syntax-ns#"
   xmlns:svg="http://www.w3.org/2000/svg"
   xmlns="http://www.w3.org/2000/svg"
   xmlns:xlink="http://www.w3.org/1999/xlink"
   xmlns:sodipodi="http://sodipodi.sourceforge.net/DTD/sodipodi-0.dtd"
   xmlns:inkscape="http://www.inkscape.org/namespaces/inkscape"
   width="355"
   height="355"
   id="svg3934"
   version="1.1"
   inkscape:version="0.48.4 r9939"
   sodipodi:docname="irradiance.pdf">
  <sodipodi:namedview
     id="base"
     pagecolor="#ffffff"
     bordercolor="#666666"
     borderopacity="1.0"
     inkscape:pageopacity="0.0"
     inkscape:pageshadow="2"
     inkscape:zoom="0.70710678"
     inkscape:cx="136.70657"
     inkscape:cy="187.14621"
     inkscape:document-units="px"
     inkscape:current-layer="layer1"
     showgrid="false"
     inkscape:window-width="1366"
     inkscape:window-height="705"
     inkscape:window-x="-8"
     inkscape:window-y="138"
     inkscape:window-maximized="1"
     fit-margin-top="0"
     fit-margin-left="0"
     fit-margin-right="0"
     fit-margin-bottom="0" />
  <defs
     id="defs3936">
    <marker
       style="overflow:visible"
       id="Arrow1Lend"
       refX="0"
       refY="0"
       orient="auto"
       inkscape:stockid="Arrow1Lend">
      <path
         transform="matrix(-0.8,0,0,-0.8,-10,0)"
         style="fill-rule:evenodd;stroke:#000000;stroke-width:1pt"
         d="M 0,0 5,-5 -12.5,0 5,5 0,0 z"
         id="path4632"
         inkscape:connector-curvature="0" />
    </marker>
    <radialGradient
       inkscape:collect="always"
       xlink:href="#linearGradient3765"
       id="radialGradient3771"
       cx="130"
       cy="478.07648"
       fx="130"
       fy="478.07648"
       r="94.404976"
       gradientUnits="userSpaceOnUse" />
    <linearGradient
       id="linearGradient3765">
      <stop
         style="stop-color:#eaff00;stop-opacity:1;"
         offset="0"
         id="stop3767" />
      <stop
         id="stop3773"
         offset="0.75"
         style="stop-color:#f4d608;stop-opacity:1;" />
      <stop
         style="stop-color:#ffad10;stop-opacity:1;"
         offset="1"
         id="stop3769" />
    </linearGradient>
    <filter
       id="filter5822"
       inkscape:collect="always"
       color-interpolation-filters="sRGB">
      <feGaussianBlur
         id="feGaussianBlur5824"
         stdDeviation="0.82963251"
         inkscape:collect="always" />
    </filter>
    <filter
       id="filter5826"
       inkscape:collect="always"
       color-interpolation-filters="sRGB">
      <feGaussianBlur
         id="feGaussianBlur5828"
         stdDeviation="0.82963251"
         inkscape:collect="always" />
    </filter>
    <filter
       id="filter5830"
       inkscape:collect="always"
       color-interpolation-filters="sRGB">
      <feGaussianBlur
         id="feGaussianBlur5832"
         stdDeviation="0.82963251"
         inkscape:collect="always" />
    </filter>
    <radialGradient
       inkscape:collect="always"
       xlink:href="#linearGradient3765"
       id="radialGradient5907"
       gradientUnits="userSpaceOnUse"
       cx="130"
       cy="478.07648"
       fx="130"
       fy="478.07648"
       r="94.404976" />
  </defs>
  <metadata
     id="metadata3939">
    <rdf:RDF>
      <cc:Work
         rdf:about="">
        <dc:format>image/svg+xml</dc:format>
        <dc:type
           rdf:resource="http://purl.org/dc/dcmitype/StillImage" />
        <dc:title></dc:title>
      </cc:Work>
    </rdf:RDF>
  </metadata>
  <g
     id="layer1"
     inkscape:groupmode="layer"
     inkscape:label="Layer 1"
     transform="translate(-194.85529,-318.81292)">
    <g
       inkscape:label="Layer 1"
       id="layer1-5"
       transform="translate(39.582866,1.27425)">
      <path
         sodipodi:type="star"
         style="color:#000000;fill:url(#radialGradient5907);fill-opacity:1;fill-rule:nonzero;stroke:#000000;stroke-width:1.95983183;stroke-miterlimit:4;stroke-opacity:1;stroke-dasharray:none;marker:none;visibility:visible;display:inline;overflow:visible;enable-background:accumulate"
         id="path2995"
         sodipodi:sides="12"
         sodipodi:cx="130"
         sodipodi:cy="478.07648"
         sodipodi:r1="58.151039"
         sodipodi:r2="93.792"
         sodipodi:arg1="1.6393908"
         sodipodi:arg2="1.9011902"
         inkscape:flatsided="false"
         inkscape:rounded="0"
         inkscape:randomized="0"
         d="M 126.01429,536.09076 99.57241,566.7957 97.541128,526.32547 59.289321,539.69579 77.765298,503.63189 37.953102,496.08502 71.985713,474.09076 41.280774,447.64889 81.75101,445.61761 68.380692,407.3658 l 36.063898,18.47597 7.54686,-39.81219 21.99426,34.03261 26.44188,-30.70494 2.03128,40.47024 38.25181,-13.37032 -18.47598,36.06389 39.8122,7.54687 -34.03261,21.99426 30.70494,26.44188 -40.47024,2.03128 13.37032,38.25181 -36.0639,-18.47598 -7.54686,39.8122 z"
         transform="matrix(0.53747944,0,0,0.53747943,136.25909,242.70309)" />
      <path
         sodipodi:type="arc"
         style="color:#000000;fill:none;stroke:#000000;stroke-width:1.32410336;stroke-miterlimit:4;stroke-opacity:1;stroke-dasharray:none;marker:none;visibility:visible;display:inline;overflow:visible;enable-background:accumulate"
         id="path2987"
         sodipodi:cx="233.57143"
         sodipodi:cy="495.21933"
         sodipodi:rx="31.428572"
         sodipodi:ry="31.428572"
         d="m 265,495.21933 c 0,17.35752 -14.07105,31.42857 -31.42857,31.42857 -17.35752,0 -31.42858,-14.07105 -31.42858,-31.42857 0,-17.35752 14.07106,-31.42857 31.42858,-31.42857 17.35752,0 31.42857,14.07105 31.42857,31.42857 z"
         transform="matrix(0.75060481,0,0,0.75060481,30.811576,127.94535)" />
    </g>
    <rect
       transform="matrix(0.93969308,0.34201888,0,1,0,0)"
       y="178.63774"
       x="487.78226"
       height="56.568542"
       width="60.198956"
       id="rect4028"
       style="color:#000000;fill:#dbf5ff;fill-opacity:1;fill-rule:nonzero;stroke:#000000;stroke-width:1.03158963;stroke-linecap:butt;stroke-linejoin:miter;stroke-miterlimit:4;stroke-opacity:1;stroke-dasharray:none;stroke-dashoffset:0;marker:none;visibility:visible;display:inline;overflow:visible;enable-background:accumulate" />
    <rect
       transform="matrix(0.93969308,0.34201888,0,1,0,0)"
       y="369.75391"
       x="474.79547"
       height="103.36037"
       width="109.99376"
       id="rect4028-1"
       style="color:#000000;fill:#dbf5ff;fill-opacity:1;fill-rule:nonzero;stroke:#000000;stroke-width:1.03158963;stroke-linecap:butt;stroke-linejoin:miter;stroke-miterlimit:4;stroke-opacity:1;stroke-dasharray:none;stroke-dashoffset:0;marker:none;visibility:visible;display:inline;overflow:visible;enable-background:accumulate" />
    <path
       transform="matrix(0.98530996,-0.17077554,0.17077554,0.98530996,-70.005257,53.265151)"
       inkscape:connector-curvature="0"
       style="color:#000000;fill:none;stroke:#e47300;stroke-width:1;stroke-linecap:butt;stroke-linejoin:miter;stroke-miterlimit:4;stroke-opacity:1;stroke-dasharray:none;stroke-dashoffset:0;marker:none;visibility:visible;display:inline;overflow:visible;filter:url(#filter5830);enable-background:accumulate"
       d="m 298.46765,468.25552 c 0.64896,-3.0488 1.31877,-6.04362 2.46724,-7.79927 1.14848,-1.75566 2.79697,-2.21688 4.91384,-1.46555 2.11687,0.75132 4.6813,2.66128 7.20585,4.468 2.52454,1.80672 4.96836,3.40444 6.90645,3.69291 1.93808,0.28841 3.35296,-0.77749 4.33395,-2.96674 0.98099,-2.18927 1.55256,-5.43838 2.2234,-8.43056 0.67083,-2.99217 1.48131,-5.62281 2.81869,-6.88946 1.33737,-1.26664 3.21497,-1.13474 5.48692,0.018 2.27195,1.15279 4.91034,3.25422 7.39128,4.94805 2.48094,1.6938 4.76493,2.87778 6.50708,2.65902 1.74214,-0.21878 2.93335,-1.86382 3.77439,-4.41536 0.84103,-2.55154 1.3629,-5.9294 2.09855,-8.75373 0.73567,-2.82433 1.72325,-4.99651 3.26131,-5.74363 1.53806,-0.74712 3.63129,-0.057 6.02641,1.41467 2.39511,1.47165 5.05842,3.63758 7.45406,5.11059 2.39564,1.473 4.48735,2.15916 6.02642,1.41467 1.53907,-0.74448 2.5252,-2.92039 3.26131,-5.74362 0.73609,-2.82324 1.25813,-6.2006 2.09854,-8.75374 0.84043,-2.55315 2.03326,-4.19398 3.7744,-4.41535 1.74114,-0.22137 4.02646,0.96605 6.50707,2.65903 2.48061,1.69296 5.11863,3.79342 7.39128,4.94803 2.27265,1.1546 4.14857,1.28214 5.48693,0.0181 1.33835,-1.26411 2.14763,-3.89786 2.81868,-6.88947 0.67105,-2.99161 1.2432,-6.23928 2.2234,-8.43055 0.98022,-2.19126 2.39683,-3.25276 4.33395,-2.96675 1.93714,0.28601 4.38202,1.88648 6.90646,3.69292 2.52444,1.80644 5.08814,3.71448 7.20585,4.46799 2.11771,0.75351 3.76445,0.28778 4.91384,-1.46554 1.14937,-1.75331 1.81829,-4.75047 2.46723,-7.79929"
       title="t sin(5*t)"
       id="path4609" />
    <path
       inkscape:connector-curvature="0"
       style="color:#000000;fill:none;stroke:#e47300;stroke-width:1;stroke-linecap:butt;stroke-linejoin:miter;stroke-miterlimit:4;stroke-opacity:1;stroke-dasharray:none;stroke-dashoffset:0;marker:none;visibility:visible;display:inline;overflow:visible;filter:url(#filter5822);enable-background:accumulate"
       d="m 285.0373,535.96686 c 2.65575,-1.63196 5.28678,-3.21161 7.35026,-3.5902 2.0635,-0.37859 3.53413,0.49746 4.44943,2.54877 0.91529,2.05131 1.29994,5.22563 1.73186,8.29988 0.43192,3.07425 0.95957,5.94592 2.08686,7.54862 1.12733,1.60264 2.87489,1.89258 5.13697,1.09374 2.26209,-0.79886 5.00958,-2.625 7.6394,-4.20207 2.62981,-1.57709 5.09404,-2.80376 6.93357,-2.70837 1.83951,0.0955 3.03852,1.54633 3.76997,3.98672 0.73143,2.44043 1.02838,5.80033 1.512,8.76516 0.48365,2.96481 1.20078,5.43546 2.56039,6.54652 1.3596,1.11104 3.37243,0.83967 5.80043,-0.31033 2.428,-1.15 5.23448,-3.1009 7.78741,-4.51532 2.55294,-1.4144 4.8072,-2.1967 6.40879,-1.59775 1.60158,0.59894 2.54491,2.59092 3.13029,5.34043 0.58538,2.74948 0.85279,6.17189 1.43755,8.9227 0.58476,2.75079 1.52991,4.73895 3.13029,5.34043 1.60037,0.60151 3.85634,-0.18442 6.40879,-1.59775 2.55244,-1.41334 5.35867,-3.36377 7.7874,-4.51532 2.42875,-1.15155 4.43965,-1.41884 5.80044,-0.31032 1.36079,1.10852 2.07635,3.58251 2.56037,6.54652 0.48402,2.96399 0.78142,6.32296 1.51201,8.76514 0.73059,2.44219 1.93159,3.8889 3.76991,3.9868 1.83838,0.0975 4.30401,-1.13184 6.93357,-2.70838 2.62956,-1.57653 5.3764,-3.40125 7.6394,-4.20206 2.263,-0.80079 4.00856,-0.50656 5.13697,1.09373 1.12842,1.60031 1.6548,4.47465 2.08686,7.54863 0.43205,3.07398 0.81758,6.24645 1.73187,8.29987 0.91429,2.05342 2.38699,2.9251 4.44942,2.54878 2.0624,-0.37632 4.69452,-1.95823 7.35027,-3.59022"
       title="t sin(5*t)"
       id="path4609-7" />
    <path
       inkscape:connector-curvature="0"
       style="color:#000000;fill:none;stroke:#e47300;stroke-width:1;stroke-linecap:butt;stroke-linejoin:miter;stroke-miterlimit:4;stroke-opacity:1;stroke-dasharray:none;stroke-dashoffset:0;marker:none;visibility:visible;display:inline;overflow:visible;filter:url(#filter5826);enable-background:accumulate"
       d="m 299.02216,509.58054 c 2.60879,-1.70603 5.19435,-3.35908 7.24634,-3.79557 2.05204,-0.43649 3.54674,0.39784 4.51938,2.42259 0.97265,2.02473 1.44645,5.18697 1.96468,8.24786 0.51825,3.06088 1.12648,5.91657 2.29841,7.48692 1.17198,1.5703 2.92701,1.81096 5.16572,0.94879 2.23871,-0.86219 4.93374,-2.7649 7.51814,-4.41535 2.5844,-1.65044 5.01314,-2.94595 6.85463,-2.90236 1.84148,0.0437 3.08083,1.46023 3.88065,3.87908 0.7998,2.41888 1.19116,5.7691 1.758,8.71916 0.56686,2.95003 1.35322,5.39952 2.74356,6.47188 1.3903,1.07237 3.39472,0.74444 5.78939,-0.47338 2.39469,-1.21786 5.14517,-3.24695 7.65729,-4.73262 2.51215,-1.48567 4.7435,-2.33109 6.3613,-1.77744 1.61781,0.55365 2.61681,2.51831 3.2793,5.25026 0.66252,2.73191 1.0261,6.14546 1.68802,8.87873 0.66192,2.73324 1.66264,4.69402 3.2793,5.25025 1.61665,0.55623 3.84963,-0.29285 6.36131,-1.77743 2.51166,-1.48458 5.2619,-3.51319 7.65728,-4.73262 2.39538,-1.21943 4.39797,-1.54319 5.7894,-0.47338 1.39145,1.06979 2.17633,3.52267 2.74355,6.47188 0.56721,2.9492 0.95899,6.29847 1.758,8.71915 0.79901,2.42066 2.04024,3.83301 3.88059,3.87915 1.84039,0.0457 4.27046,-1.25248 6.85463,-2.90238 2.58416,-1.64989 5.27858,-3.55116 7.51815,-4.41532 2.23958,-0.86415 3.99273,-0.61914 5.16571,0.94878 1.17298,1.56793 1.78004,4.42632 2.29839,7.48693 0.51838,3.0606 0.99301,6.22097 1.96471,8.24785 0.9717,2.0269 2.46834,2.85678 4.51936,2.4226 2.051,-0.4342 4.63757,-2.08953 7.24636,-3.79559"
       title="t sin(5*t)"
       id="path4609-7-1" />
    <text
       sodipodi:linespacing="125%"
       id="text5651"
       y="616.78436"
       x="481.5397"
       style="font-size:40px;font-style:normal;font-weight:normal;line-height:125%;letter-spacing:0px;word-spacing:0px;fill:#000000;fill-opacity:1;stroke:none;font-family:Sans"
       xml:space="preserve"><tspan
         y="616.78436"
         x="481.5397"
         id="tspan5653"
         sodipodi:role="line">B</tspan></text>
    <text
       sodipodi:linespacing="125%"
       id="text5651-1"
       y="396.47214"
       x="473.05441"
       style="font-size:40px;font-style:normal;font-weight:normal;line-height:125%;letter-spacing:0px;word-spacing:0px;fill:#000000;fill-opacity:1;stroke:none;font-family:Sans"
       xml:space="preserve"><tspan
         y="396.47214"
         x="473.05441"
         id="tspan5653-5"
         sodipodi:role="line">A</tspan></text>
    <g
       transform="translate(-85.55992,233.34524)"
       id="g5756">
      <g
         style="font-style:normal;font-variant:normal;font-weight:normal;font-stretch:normal;letter-spacing:normal;word-spacing:normal;text-anchor:start;fill:none;stroke:#000000;stroke-linecap:butt;stroke-linejoin:miter;stroke-miterlimit:10.43299961;stroke-opacity:1;stroke-dasharray:none;stroke-dashoffset:0"
         id="content"
         transform="matrix(1.0629921,0,0,-1.0629921,-186.02362,789.27165)"
         xml:space="preserve"
         stroke-miterlimit="10.433"
         font-style="normal"
         font-variant="normal"
         font-weight="normal"
         font-stretch="normal"
         font-size-adjust="none"
         letter-spacing="normal"
         word-spacing="normal"><path
           style="fill:#000000;stroke-width:0"
           inkscape:connector-curvature="0"
           d="m 475.39,412.92 0.72,0.07 0.71,0.09 0.69,0.11 0.67,0.14 0.66,0.15 0.64,0.18 0.63,0.2 0.61,0.21 0.59,0.23 0.58,0.26 0.55,0.26 0.54,0.29 0.51,0.3 0.5,0.31 0.47,0.33 0.45,0.34 0.43,0.36 0.41,0.37 0.38,0.37 0.36,0.4 0.33,0.4 0.31,0.41 0.28,0.42 0.25,0.42 0.23,0.44 0.19,0.44 0.17,0.45 0.14,0.45 0.11,0.46 0.08,0.47 0.05,0.46 0.01,0.47 c 0,5.19 -5.67,9.72 -13.25,10.32 v -1.1 c 6.88,-0.79 8.29,-5.37 8.29,-9.17 0,-2.98 -0.75,-8.31 -8.29,-9.2 v 18.37 1.1 2.79 c 0,1.69 0,2.39 4.74,2.39 h 1.64 v 1.55 c -1.78,-0.16 -6.38,-0.16 -8.41,-0.16 -2.04,0 -6.68,0 -8.48,0.16 v -1.55 h 1.66 c 4.73,0 4.73,-0.65 4.73,-2.39 v -2.79 -1.14 -18.29 c -7.08,0.94 -7.98,6.04 -7.98,9.11 0,2.6 0.5,8.18 7.98,9.18 v 1.14 c -7.63,-0.74 -12.95,-5.33 -12.95,-10.27 0,-5.12 5.51,-9.56 12.95,-10.31 v -2.78 c 0,-1.71 0,-2.39 -4.73,-2.39 h -1.66 v -1.55 c 1.8,0.16 6.39,0.16 8.42,0.16 2.05,0 6.69,0 8.47,-0.16 v 1.55 h -1.64 c -4.74,0 -4.74,0.64 -4.74,2.39 z"
           id="path5759" /></g>    </g>
  </g>
</svg>
