<?xml version="1.0" encoding="UTF-8" standalone="no"?>
<!-- Created with Inkscape (http://www.inkscape.org/) -->

<svg
   xmlns:dc="http://purl.org/dc/elements/1.1/"
   xmlns:cc="http://creativecommons.org/ns#"
   xmlns:rdf="http://www.w3.org/1999/02/22-rdf-syntax-ns#"
   xmlns:svg="http://www.w3.org/2000/svg"
   xmlns="http://www.w3.org/2000/svg"
   xmlns:xlink="http://www.w3.org/1999/xlink"
   xmlns:sodipodi="http://sodipodi.sourceforge.net/DTD/sodipodi-0.dtd"
   xmlns:inkscape="http://www.inkscape.org/namespaces/inkscape"
   width="1189.0331"
   height="669.51898"
   id="svg2"
   version="1.1"
   inkscape:version="0.48.4 r9939"
   sodipodi:docname="jensen.svg">
  <sodipodi:namedview
     id="base"
     pagecolor="#ffffff"
     bordercolor="#666666"
     borderopacity="1.0"
     inkscape:pageopacity="0.0"
     inkscape:pageshadow="2"
     inkscape:zoom="0.40879611"
     inkscape:cx="881.29389"
     inkscape:cy="241.51152"
     inkscape:document-units="px"
     inkscape:current-layer="layer1"
     showgrid="false"
     fit-margin-top="0"
     fit-margin-left="0"
     fit-margin-right="0"
     fit-margin-bottom="0"
     inkscape:window-width="1366"
     inkscape:window-height="705"
     inkscape:window-x="-8"
     inkscape:window-y="-8"
     inkscape:window-maximized="1" />
  <defs
     id="defs4">
    <marker
       inkscape:stockid="Arrow1Mend"
       orient="auto"
       refY="0"
       refX="0"
       id="Arrow1Mend"
       style="overflow:visible">
      <path
         id="path3905"
         d="M 0,0 5,-5 -12.5,0 5,5 0,0 z"
         style="fill-rule:evenodd;stroke:#000000;stroke-width:1pt"
         transform="matrix(-0.4,0,0,-0.4,-4,0)"
         inkscape:connector-curvature="0" />
    </marker>
    <marker
       inkscape:stockid="Arrow1Mstart"
       orient="auto"
       refY="0"
       refX="0"
       id="Arrow1Mstart"
       style="overflow:visible">
      <path
         id="path3902"
         d="M 0,0 5,-5 -12.5,0 5,5 0,0 z"
         style="fill-rule:evenodd;stroke:#000000;stroke-width:1pt"
         transform="matrix(0.4,0,0,0.4,4,0)"
         inkscape:connector-curvature="0" />
    </marker>
    <marker
       inkscape:stockid="SquareM"
       orient="auto"
       refY="0"
       refX="0"
       id="SquareM"
       style="overflow:visible">
      <path
         id="path3969"
         d="M -5,-5 -5,5 5,5 5,-5 -5,-5 z"
         style="fill-rule:evenodd;stroke:#000000;stroke-width:1pt"
         transform="scale(0.4,0.4)"
         inkscape:connector-curvature="0" />
    </marker>
    <marker
       inkscape:stockid="DotL"
       orient="auto"
       refY="0"
       refX="0"
       id="DotL"
       style="overflow:visible">
      <path
         id="path3957"
         d="m -2.5,-1 c 0,2.76 -2.24,5 -5,5 -2.76,0 -5,-2.24 -5,-5 0,-2.76 2.24,-5 5,-5 2.76,0 5,2.24 5,5 z"
         style="fill-rule:evenodd;stroke:#000000;stroke-width:1pt"
         transform="matrix(0.8,0,0,0.8,5.92,0.8)"
         inkscape:connector-curvature="0" />
    </marker>
    <marker
       inkscape:stockid="Arrow2Lstart"
       orient="auto"
       refY="0"
       refX="0"
       id="Arrow2Lstart"
       style="overflow:visible">
      <path
         id="path3914"
         style="fill-rule:evenodd;stroke-width:0.625;stroke-linejoin:round"
         d="M 8.7185878,4.0337352 -2.2072895,0.01601326 8.7185884,-4.0017078 c -1.7454984,2.3720609 -1.7354408,5.6174519 -6e-7,8.035443 z"
         transform="matrix(1.1,0,0,1.1,1.1,0)"
         inkscape:connector-curvature="0" />
    </marker>
    <marker
       inkscape:stockid="Arrow1Lstart"
       orient="auto"
       refY="0"
       refX="0"
       id="Arrow1Lstart"
       style="overflow:visible">
      <path
         id="path3896"
         d="M 0,0 5,-5 -12.5,0 5,5 0,0 z"
         style="fill-rule:evenodd;stroke:#000000;stroke-width:1pt"
         transform="matrix(0.8,0,0,0.8,10,0)"
         inkscape:connector-curvature="0" />
    </marker>
    <marker
       inkscape:stockid="Arrow1Lend"
       orient="auto"
       refY="0"
       refX="0"
       id="Arrow1Lend"
       style="overflow:visible">
      <path
         id="path3899"
         d="M 0,0 5,-5 -12.5,0 5,5 0,0 z"
         style="fill-rule:evenodd;stroke:#000000;stroke-width:1pt"
         transform="matrix(-0.8,0,0,-0.8,-10,0)"
         inkscape:connector-curvature="0" />
    </marker>
    <linearGradient
       id="linearGradient3773">
      <stop
         style="stop-color:#a3a3a3;stop-opacity:0.45045045;"
         offset="0"
         id="stop3775" />
      <stop
         style="stop-color:#ffffff;stop-opacity:1;"
         offset="1"
         id="stop3777" />
    </linearGradient>
    <linearGradient
       inkscape:collect="always"
       xlink:href="#linearGradient3773"
       id="linearGradient3779"
       x1="207.59143"
       y1="457.87326"
       x2="205.56096"
       y2="580.10168"
       gradientUnits="userSpaceOnUse"
       gradientTransform="matrix(3.9486166,0,0,3.9486166,-350.75658,-1263.1459)" />
    <marker
       inkscape:stockid="Arrow1Mend"
       orient="auto"
       refY="0"
       refX="0"
       id="Arrow1Mend-8"
       style="overflow:visible">
      <path
         inkscape:connector-curvature="0"
         id="path3905-2"
         d="M 0,0 5,-5 -12.5,0 5,5 0,0 z"
         style="fill-rule:evenodd;stroke:#000000;stroke-width:1pt"
         transform="matrix(-0.4,0,0,-0.4,-4,0)" />
    </marker>
    <marker
       inkscape:stockid="Arrow1Mend"
       orient="auto"
       refY="0"
       refX="0"
       id="marker9690"
       style="overflow:visible">
      <path
         inkscape:connector-curvature="0"
         id="path9692"
         d="M 0,0 5,-5 -12.5,0 5,5 0,0 z"
         style="fill-rule:evenodd;stroke:#000000;stroke-width:1pt"
         transform="matrix(-0.4,0,0,-0.4,-4,0)" />
    </marker>
    <marker
       inkscape:stockid="Arrow1Mend"
       orient="auto"
       refY="0"
       refX="0"
       id="marker9694"
       style="overflow:visible">
      <path
         inkscape:connector-curvature="0"
         id="path9696"
         d="M 0,0 5,-5 -12.5,0 5,5 0,0 z"
         style="fill-rule:evenodd;stroke:#000000;stroke-width:1pt"
         transform="matrix(-0.4,0,0,-0.4,-4,0)" />
    </marker>
    <marker
       inkscape:stockid="Arrow1Mend"
       orient="auto"
       refY="0"
       refX="0"
       id="marker9698"
       style="overflow:visible">
      <path
         inkscape:connector-curvature="0"
         id="path9700"
         d="M 0,0 5,-5 -12.5,0 5,5 0,0 z"
         style="fill-rule:evenodd;stroke:#000000;stroke-width:1pt"
         transform="matrix(-0.4,0,0,-0.4,-4,0)" />
    </marker>
    <linearGradient
       id="linearGradient3773-5">
      <stop
         style="stop-color:#857e77;stop-opacity:0.45045045;"
         offset="0"
         id="stop3775-5" />
      <stop
         style="stop-color:#ffd97e;stop-opacity:1;"
         offset="1"
         id="stop3777-1" />
    </linearGradient>
    <marker
       inkscape:stockid="Arrow1Mend"
       orient="auto"
       refY="0"
       refX="0"
       id="marker9706"
       style="overflow:visible">
      <path
         inkscape:connector-curvature="0"
         id="path9708"
         d="M 0,0 5,-5 -12.5,0 5,5 0,0 z"
         style="fill-rule:evenodd;stroke:#000000;stroke-width:1pt"
         transform="matrix(-0.4,0,0,-0.4,-4,0)" />
    </marker>
    <marker
       inkscape:stockid="Arrow1Mend"
       orient="auto"
       refY="0"
       refX="0"
       id="Arrow1Mend-1"
       style="overflow:visible">
      <path
         inkscape:connector-curvature="0"
         id="path3905-8"
         d="M 0,0 5,-5 -12.5,0 5,5 0,0 z"
         style="fill-rule:evenodd;stroke:#000000;stroke-width:1pt"
         transform="matrix(-0.4,0,0,-0.4,-4,0)" />
    </marker>
    <marker
       inkscape:stockid="Arrow1Mend"
       orient="auto"
       refY="0"
       refX="0"
       id="Arrow1Mend-2"
       style="overflow:visible">
      <path
         inkscape:connector-curvature="0"
         id="path3905-7"
         d="M 0,0 5,-5 -12.5,0 5,5 0,0 z"
         style="fill-rule:evenodd;stroke:#000000;stroke-width:1pt"
         transform="matrix(-0.4,0,0,-0.4,-4,0)" />
    </marker>
    <radialGradient
       gradientUnits="userSpaceOnUse"
       r="94.404976"
       fy="478.07648"
       fx="130"
       cy="478.07648"
       cx="130"
       id="radialGradient3771"
       xlink:href="#linearGradient3765"
       inkscape:collect="always" />
    <linearGradient
       id="linearGradient3765">
      <stop
         id="stop3767"
         offset="0"
         style="stop-color:#eaff00;stop-opacity:1;" />
      <stop
         style="stop-color:#f4d608;stop-opacity:1;"
         offset="0.75"
         id="stop3773" />
      <stop
         id="stop3769"
         offset="1"
         style="stop-color:#ffad10;stop-opacity:1;" />
    </linearGradient>
    <linearGradient
       id="linearGradient3765-8">
      <stop
         id="stop3767-2"
         offset="0"
         style="stop-color:#eaff00;stop-opacity:1;" />
      <stop
         style="stop-color:#f4d608;stop-opacity:1;"
         offset="0.75"
         id="stop3773-4" />
      <stop
         id="stop3769-5"
         offset="1"
         style="stop-color:#ffad10;stop-opacity:1;" />
    </linearGradient>
    <marker
       inkscape:stockid="Arrow1Lend"
       orient="auto"
       refY="0"
       refX="0"
       id="Arrow1Lend-1"
       style="overflow:visible">
      <path
         id="path3899-5"
         d="M 0,0 5,-5 -12.5,0 5,5 0,0 z"
         style="fill-rule:evenodd;stroke:#000000;stroke-width:1pt"
         transform="matrix(-0.8,0,0,-0.8,-10,0)"
         inkscape:connector-curvature="0" />
    </marker>
    <linearGradient
       inkscape:collect="always"
       xlink:href="#linearGradient3773"
       id="linearGradient7318"
       gradientUnits="userSpaceOnUse"
       gradientTransform="matrix(3.9486166,0,0,3.9486166,-350.75658,-1263.1459)"
       x1="207.59143"
       y1="457.87326"
       x2="205.56096"
       y2="580.10168" />
    <radialGradient
       inkscape:collect="always"
       xlink:href="#linearGradient3765"
       id="radialGradient7320"
       gradientUnits="userSpaceOnUse"
       cx="130"
       cy="478.07648"
       fx="130"
       fy="478.07648"
       r="94.404976" />
  </defs>
  <metadata
     id="metadata7">
    <rdf:RDF>
      <cc:Work
         rdf:about="">
        <dc:format>image/svg+xml</dc:format>
        <dc:type
           rdf:resource="http://purl.org/dc/dcmitype/StillImage" />
        <dc:title />
      </cc:Work>
    </rdf:RDF>
  </metadata>
  <g
     inkscape:label="Layer 1"
     inkscape:groupmode="layer"
     id="layer1"
     transform="translate(155.34554,-256.84283)">
    <path
       style="fill:none;stroke:#000000;stroke-width:2;stroke-linecap:butt;stroke-linejoin:miter;stroke-miterlimit:4;stroke-opacity:1;stroke-dasharray:none;marker-start:none;marker-mid:url(#Arrow1Lend)"
       d="M -57.592553,347.92425 91.218479,456.71889 260.78628,567.24322"
       id="path3882"
       inkscape:connector-curvature="0"
       sodipodi:nodetypes="ccc" />
    <path
       style="opacity:0.6946903;fill:url(#linearGradient7318);fill-opacity:1;stroke:none"
       d="m 196.00341,562.71907 c -5.25321,-0.0797 -10.67891,-10e-4 -16.28805,0.12304 -179.49172336,3.98871 -323.04617,159.54878 -323.04617,159.54878 l 2.59127,203.97092 1174.09644,0 0,-271.83755 c 0,0 -143.56953,-55.81428 -223.34361,-51.82559 C 730.2392,606.68734 630.52039,694.4176 490.9157,678.46278 355.67366,663.0065 358.8523,565.19051 196.00341,562.71894 z"
       id="path2985-1"
       inkscape:connector-curvature="0" />
    <path
       style="fill:none;stroke:#000000;stroke-width:2;stroke-linecap:butt;stroke-linejoin:miter;stroke-miterlimit:4;stroke-opacity:1;stroke-dasharray:none;marker-mid:url(#Arrow1Lend)"
       d="M 728.95407,624.10175 836.86443,498.8988 944.7748,373.6958"
       id="path3888"
       inkscape:connector-curvature="0"
       sodipodi:nodetypes="ccc" />
    <path
       style="fill:none;stroke:#000000;stroke-width:2;stroke-linecap:butt;stroke-linejoin:miter;stroke-miterlimit:4;stroke-opacity:1;stroke-dasharray:none"
       d="m -143.34391,722.37329 c 0,0 143.59336361,-155.55952 323.0851,-159.54819 179.4917,-3.98876 171.51432,99.71757 311.11901,115.67243 139.60468,15.95479 239.32228,-71.79672 319.09638,-75.7854 79.77409,-3.98872 223.36742,51.85316 223.36742,51.85316"
       id="path2985"
       inkscape:connector-curvature="0" />
    <path
       style="fill:none;stroke:#000000;stroke-width:2;stroke-linecap:butt;stroke-linejoin:miter;stroke-miterlimit:4;stroke-opacity:1;stroke-dasharray:none;marker-end:url(#Arrow1Lend)"
       d="m 729.68659,621.29736 -75.0308,-152.5626"
       id="path3886"
       inkscape:connector-curvature="0" />
    <path
       style="fill:none;stroke:#000000;stroke-width:2;stroke-linecap:butt;stroke-linejoin:miter;stroke-miterlimit:4;stroke-opacity:1;stroke-dasharray:none;stroke-dashoffset:0;marker-end:url(#Arrow1Lend)"
       d="M 260.07077,566.97624 196.6787,712.2311"
       id="path3890"
       inkscape:connector-curvature="0"
       sodipodi:nodetypes="cc" />
    <path
       sodipodi:type="arc"
       style="color:#000000;fill:#0013fc;fill-opacity:1;fill-rule:nonzero;stroke:none;stroke-width:0.5065065;marker:none;visibility:visible;display:inline;overflow:visible;enable-background:accumulate"
       id="path9658-8"
       sodipodi:cx="156.5"
       sodipodi:cy="414.86218"
       sodipodi:rx="4.5"
       sodipodi:ry="4.5"
       d="m 161,414.86218 c 0,2.48528 -2.01472,4.5 -4.5,4.5 -2.48528,0 -4.5,-2.01472 -4.5,-4.5 0,-2.48528 2.01472,-4.5 4.5,-4.5 2.48528,0 4.5,2.01472 4.5,4.5 z"
       transform="matrix(3.8715146,0.77649675,-0.77649675,3.8715146,-86.688193,-1010.3475)" />
    <g
       transform="matrix(1.4224225,0,0,1.4224225,-375.53957,-380.86127)"
       id="layer1-9"
       inkscape:label="Layer 1"
       style="stroke-width:1.40605199;stroke-miterlimit:4;stroke-dasharray:none">
      <path
         transform="matrix(0.53747944,0,0,0.53747943,136.25909,242.70309)"
         d="M 126.01429,536.09076 99.57241,566.7957 97.541128,526.32547 59.289321,539.69579 77.765298,503.63189 37.953102,496.08502 71.985713,474.09076 41.280774,447.64889 81.75101,445.61761 68.380692,407.3658 l 36.063898,18.47597 7.54686,-39.81219 21.99426,34.03261 26.44188,-30.70494 2.03128,40.47024 38.25181,-13.37032 -18.47598,36.06389 39.8122,7.54687 -34.03261,21.99426 30.70494,26.44188 -40.47024,2.03128 13.37032,38.25181 -36.0639,-18.47598 -7.54686,39.8122 z"
         inkscape:randomized="0"
         inkscape:rounded="0"
         inkscape:flatsided="false"
         sodipodi:arg2="1.9011902"
         sodipodi:arg1="1.6393908"
         sodipodi:r2="93.792"
         sodipodi:r1="58.151039"
         sodipodi:cy="478.07648"
         sodipodi:cx="130"
         sodipodi:sides="12"
         id="path2995"
         style="color:#000000;fill:url(#radialGradient7320);fill-opacity:1;fill-rule:nonzero;stroke:#000000;stroke-width:2.6160109;stroke-miterlimit:4;stroke-opacity:1;stroke-dasharray:none;marker:none;visibility:visible;display:inline;overflow:visible;enable-background:accumulate"
         sodipodi:type="star" />
      <path
         transform="matrix(0.75060481,0,0,0.75060481,30.811576,127.94535)"
         d="m 265,495.21933 c 0,17.35752 -14.07105,31.42857 -31.42857,31.42857 -17.35752,0 -31.42858,-14.07105 -31.42858,-31.42857 0,-17.35752 14.07106,-31.42857 31.42858,-31.42857 17.35752,0 31.42857,14.07105 31.42857,31.42857 z"
         sodipodi:ry="31.428572"
         sodipodi:rx="31.428572"
         sodipodi:cy="495.21933"
         sodipodi:cx="233.57143"
         id="path2987"
         style="color:#000000;fill:none;stroke:#000000;stroke-width:1.87322545;stroke-miterlimit:4;stroke-opacity:1;stroke-dasharray:none;marker:none;visibility:visible;display:inline;overflow:visible;enable-background:accumulate"
         sodipodi:type="arc" />
    </g>
    <g
       transform="matrix(0.87465542,-1.1217235,1.1217235,0.87465542,274.57867,126.50086)"
       id="layer1-7"
       inkscape:label="Layer 1"
       style="stroke-width:1.40605199;stroke-miterlimit:4;stroke-dasharray:none">
      <path
         sodipodi:nodetypes="cssssssssssssccccc"
         inkscape:connector-curvature="0"
         id="path3775"
         d="m 152.61374,429.63594 c -0.9257,3.04217 -2.14948,8.05115 -2.7269,11.10881 -0.57743,3.05766 -1.0796,6.13346 -1.51813,9.24327 -0.43852,3.10981 -0.81249,6.24193 -1.10847,9.39995 -0.29598,3.15802 -0.52491,6.35432 -0.67472,9.55661 -0.1498,3.20229 -0.21687,6.41842 -0.21687,9.66105 0,1.62131 0.0106,3.24516 0.0482,4.85663 0.0377,1.61148 0.0938,3.20327 0.16868,4.80443 0.0749,1.60114 0.17748,3.21408 0.28917,4.80441 0.11166,1.59031 0.23755,3.17318 0.38555,4.75218 0.148,1.57901 0.32218,3.15888 0.50604,4.7261 0.18385,1.56719 0.38317,3.11895 0.60243,4.67386 0.21925,1.5549 0.44461,3.10563 0.69882,4.64774 0.25422,1.54212 0.53059,3.0667 0.81931,4.59553 0.28871,1.52883 0.59292,3.05436 0.91568,4.56942 0.32277,1.51506 2.01505,7.79729 2.01505,7.79729 l 92.74836,-50.07092 z"
         style="fill:#7ed7ff;fill-opacity:1;stroke:#000000;stroke-width:1.40605199;stroke-linecap:butt;stroke-linejoin:miter;stroke-miterlimit:4;stroke-opacity:1;stroke-dasharray:none" />
      <path
         inkscape:connector-curvature="0"
         id="path3775-4"
         d="m 149.3222,442.25097 c -0.33554,1.97515 -0.64504,3.96196 -0.92593,5.96071 -0.44344,3.15521 -0.82159,6.33305 -1.12088,9.53716 -0.29929,3.20413 -0.53079,6.44707 -0.68227,9.69612 -0.15148,3.24904 -0.2193,6.5121 -0.2193,9.80207 0,1.64499 0.0106,3.29253 0.0487,4.92753 0.0381,1.635 0.0948,3.25002 0.17056,4.87455 0.0757,1.62452 0.17948,3.26101 0.2924,4.87455 0.11293,1.61354 0.24022,3.21951 0.38987,4.82156 0.14965,1.60206 0.3258,3.205 0.51171,4.79507 0.1859,1.59009 0.38746,3.16448 0.60917,4.74208 0.22171,1.57761 0.44957,3.15098 0.70663,4.7156 0.20729,1.26166 0.42669,2.51177 0.65791,3.76188 1.02187,-1.17399 2.00405,-2.41016 2.92401,-3.6824 0.38449,-0.53173 0.7551,-1.06809 1.12088,-1.61603 0.0708,-0.1063 0.1492,-0.21099 0.21929,-0.31789 0.0512,-0.0779 0.0954,-0.16022 0.14621,-0.23844 0.37907,-0.58368 0.73907,-1.17411 1.09651,-1.77497 0.40533,-0.68138 0.79297,-1.36381 1.1696,-2.06638 0.34741,-0.64808 0.6768,-1.32159 0.99904,-1.98691 0.0272,-0.0563 0.0705,-0.10254 0.0975,-0.15895 0.25983,-0.54122 0.51261,-1.09044 0.75538,-1.64251 0.24384,-0.55659 0.48051,-1.1283 0.70663,-1.69549 0.0814,-0.20331 0.16465,-0.40471 0.24367,-0.60933 0.27843,-0.72349 0.53068,-1.45932 0.77974,-2.19884 0.20015,-0.59432 0.40409,-1.19729 0.5848,-1.80146 0.09,-0.30011 0.18289,-0.59828 0.26804,-0.90074 0.0247,-0.088 0.0488,-0.1767 0.073,-0.26491 0.1781,-0.64498 0.33177,-1.30523 0.48734,-1.96042 0.19176,-0.81035 0.35514,-1.61226 0.5117,-2.43727 0.007,-0.0359 0.0175,-0.07 0.0243,-0.10597 0.0214,-0.11413 0.0523,-0.23001 0.073,-0.3444 0.13388,-0.73593 0.26038,-1.47862 0.3655,-2.22534 0.12193,-0.86757 0.21011,-1.74168 0.2924,-2.62272 0.005,-0.0619 0.0188,-0.12339 0.0243,-0.18544 0.15334,-1.70182 0.24367,-3.42033 0.24367,-5.16596 0,-1.80926 -0.10345,-3.58936 -0.26803,-5.35141 -0.0781,-0.83611 -0.15422,-1.66622 -0.26804,-2.49025 -0.006,-0.045 -0.0181,-0.0875 -0.0243,-0.13247 -0.11185,-0.79591 -0.24547,-1.60056 -0.38987,-2.38428 -0.0132,-0.0717 -0.0352,-0.14036 -0.0487,-0.21193 -0.16055,-0.85304 -0.3379,-1.67937 -0.53607,-2.51676 -0.17695,-0.74776 -0.35425,-1.49087 -0.56044,-2.22534 -0.0831,-0.29575 -0.1802,-0.58072 -0.26803,-0.87423 -0.18283,-0.61221 -0.38203,-1.22586 -0.5848,-1.82796 -0.22775,-0.67625 -0.4543,-1.35053 -0.70664,-2.0134 -0.068,-0.1782 -0.14949,-0.35262 -0.2193,-0.52985 -0.286,-0.72823 -0.58653,-1.46149 -0.90157,-2.17234 -0.21138,-0.47696 -0.43376,-0.9353 -0.65791,-1.40409 -0.0668,-0.13954 -0.12696,-0.28506 -0.19493,-0.42387 -0.35858,-0.73223 -0.73177,-1.43479 -1.12087,-2.14586 -0.28666,-0.52387 -0.57443,-1.05112 -0.87721,-1.56304 -0.10891,-0.18446 -0.20579,-0.37345 -0.31677,-0.55633 -0.41865,-0.68889 -0.86858,-1.34771 -1.3158,-2.01339 -0.89446,-1.3314 -1.84799,-2.63541 -2.85092,-3.86786 -0.50146,-0.61622 -1.00798,-1.2115 -1.53511,-1.80145 z"
         style="fill:#dbf5ff;fill-opacity:1;stroke:#000000;stroke-width:1.40605199;stroke-linecap:butt;stroke-linejoin:miter;stroke-miterlimit:4;stroke-opacity:1;stroke-dasharray:none" />
      <path
         inkscape:connector-curvature="0"
         id="path3913"
         d="m 146.62313,467.5391 c -0.009,0.17643 -0.0182,0.35319 -0.0265,0.52966 -0.15149,3.24903 -0.21187,6.50876 -0.21187,9.79873 0,1.64498 -0.0116,3.29084 0.0265,4.92584 0.0381,1.635 0.10963,3.24836 0.18538,4.87288 0.0272,0.58274 0.0724,1.16368 0.10593,1.74788 3.47514,-2.17255 5.82627,-6.23988 5.82627,-10.91101 0,-4.70735 -2.38598,-8.80442 -5.90572,-10.96398 z"
         style="color:#000000;fill:#000000;fill-opacity:1;stroke:#000000;stroke-width:1.40605199;stroke-linecap:butt;stroke-linejoin:miter;stroke-miterlimit:4;stroke-opacity:1;stroke-dasharray:none;stroke-dashoffset:0;marker:none;visibility:visible;display:inline;overflow:visible;enable-background:accumulate" />
    </g>
    <path
       style="fill:none;stroke:#000000;stroke-width:2;stroke-linecap:butt;stroke-linejoin:miter;stroke-miterlimit:4;stroke-opacity:1;stroke-dasharray:none;stroke-dashoffset:0"
       d="M 255.33147,566.2514 713.31469,749.42804"
       id="path4811-1"
       inkscape:connector-curvature="0"
       sodipodi:nodetypes="cc"
       inkscape:transform-center-x="-229.70218"
       inkscape:transform-center-y="92.81107" />
    <path
       style="fill:none;stroke:#000000;stroke-width:1px;stroke-linecap:butt;stroke-linejoin:miter;stroke-opacity:1"
       d="M 316.10812,-63.494477 645.18919,360.2893"
       id="path4831"
       inkscape:connector-curvature="0"
       transform="translate(51.96875,382.75124)"
       sodipodi:nodetypes="cc" />
    <path
       style="fill:none;stroke:#000000;stroke-width:1px;stroke-linecap:butt;stroke-linejoin:miter;stroke-opacity:1"
       d="m 145.2973,336.07309 496.43243,22.48648"
       id="path4833"
       inkscape:connector-curvature="0"
       transform="translate(51.96875,382.75124)" />
    <path
       style="fill:none;stroke:#000000;stroke-width:2;stroke-linecap:butt;stroke-linejoin:miter;stroke-miterlimit:4;stroke-opacity:1;stroke-dasharray:none;marker-end:url(#Arrow1Lend)"
       d="M 260.58985,566.1959 366.67308,322.01347"
       id="path3884-2"
       inkscape:connector-curvature="0"
       sodipodi:nodetypes="cc" />
    <path
       sodipodi:type="arc"
       style="color:#000000;fill:#15fc00;fill-opacity:1;fill-rule:nonzero;stroke:none;stroke-width:0.5065065;marker:none;visibility:visible;display:inline;overflow:visible;enable-background:accumulate"
       id="path9658"
       sodipodi:cx="156.5"
       sodipodi:cy="414.86218"
       sodipodi:rx="4.5"
       sodipodi:ry="4.5"
       d="m 161,414.86218 c 0,2.48528 -2.01472,4.5 -4.5,4.5 -2.48528,0 -4.5,-2.01472 -4.5,-4.5 0,-2.48528 2.01472,-4.5 4.5,-4.5 2.48528,0 4.5,2.01472 4.5,4.5 z"
       transform="matrix(3.8715146,0.77649675,-0.77649675,3.8715146,84.436244,-1407.3904)" />
    <g
       id="g5090"
       transform="matrix(4.5650995,0,0,4.5650995,563.80309,-1282.5881)">
      <g
         word-spacing="normal"
         letter-spacing="normal"
         font-size-adjust="none"
         font-stretch="normal"
         font-weight="normal"
         font-variant="normal"
         font-style="normal"
         stroke-miterlimit="10.433"
         xml:space="preserve"
         transform="matrix(0.24535537,0,0,-0.24535537,-42.93719,494.10937)"
         id="g5092"
         style="font-style:normal;font-variant:normal;font-weight:normal;font-stretch:normal;letter-spacing:normal;word-spacing:normal;text-anchor:start;fill:none;stroke:#000000;stroke-linecap:butt;stroke-linejoin:miter;stroke-miterlimit:10.43299961;stroke-opacity:1;stroke-dasharray:none;stroke-dashoffset:0"><path
           id="path5094"
           d="m 482.39,435.84 -0.07,-0.06 -0.07,-0.07 -0.08,-0.07 -0.08,-0.07 -0.08,-0.08 -0.09,-0.08 -0.09,-0.09 -0.1,-0.08 -0.09,-0.09 -0.1,-0.1 -0.19,-0.19 -0.2,-0.19 -0.19,-0.21 -0.09,-0.1 -0.09,-0.1 -0.09,-0.1 -0.08,-0.11 -0.08,-0.1 -0.08,-0.1 -0.07,-0.1 -0.06,-0.1 -0.06,-0.1 -0.06,-0.1 -0.04,-0.1 -0.04,-0.09 -0.03,-0.09 -0.02,-0.1 -0.02,-0.08 0,-0.09 c 0,-0.5 0.5,-1 1,-1 0.45,0 0.7,0.36 0.95,0.66 0.59,0.75 1.73,2.14 3.94,3.23 0.34,0.21 0.84,0.46 0.84,1.05 0,0.5 -0.34,0.75 -0.7,1 -1.1,0.75 -1.64,1.64 -2.05,2.83 -0.09,0.45 -0.3,1.11 -0.98,1.11 -0.71,0 -1,-0.66 -1,-1.05 0,-0.25 0.39,-1.84 1.18,-2.89 h -16.78 c -0.84,0 -1.75,0 -1.75,-1 0,-1 0.91,-1 1.75,-1 z"
           inkscape:connector-curvature="0"
           style="fill:#000000;stroke-width:0" /><path
           id="path5096"
           d="m 485.66,424.73 -0.01,0.21 0,0.2 -0.02,0.2 -0.01,0.19 -0.03,0.18 -0.02,0.18 -0.03,0.17 -0.04,0.16 -0.04,0.16 -0.04,0.16 -0.05,0.14 -0.05,0.14 -0.06,0.13 -0.06,0.13 -0.06,0.12 -0.07,0.12 -0.06,0.1 -0.08,0.1 -0.07,0.1 -0.08,0.09 -0.08,0.08 -0.08,0.07 -0.09,0.07 -0.09,0.06 -0.09,0.05 -0.09,0.05 -0.09,0.04 -0.1,0.03 -0.1,0.02 -0.1,0.02 -0.1,0.01 -0.1,0 c -1.29,0 -2.64,-1.18 -2.64,-2.34 0,-0.48 0.24,-1.03 0.74,-1.48 0.86,-0.75 1.75,-2.1 1.75,-4.19 0,-2 -0.96,-4.83 -2.49,-7.13 -1.5,-2.14 -3.34,-3.82 -5.69,-3.82 -2.84,0 -4.39,1.78 -4.82,4.46 0.54,1.3 1.68,4.49 1.68,5.9 0,0.59 -0.25,1.09 -0.89,1.09 -0.4,0 -0.95,-0.11 -1.34,-0.84 -0.55,-1 -1.16,-4.24 -1.16,-6.04 -1.64,-2.34 -3.62,-4.57 -6.76,-4.57 -3.3,0 -4.35,2.93 -4.35,5.71 0,6.24 5.1,11.47 5.1,12.11 0,0.55 -0.41,0.96 -0.96,0.96 -0.65,0 -1,-0.66 -1.29,-1.11 -2.55,-3.69 -4.44,-9.61 -4.44,-14.14 0,-3.44 1.16,-7.13 5.23,-7.13 3.54,0 5.88,2.49 7.68,5.24 0.45,-2.89 2.39,-5.24 5.48,-5.24 3.89,0 6.28,3.03 8.06,6.78 1.21,2.44 3.1,9.21 3.1,12.3 z"
           inkscape:connector-curvature="0"
           style="fill:#000000;stroke-width:0" /><path
           id="path5098"
           d="m 504.98,408.03 -0.01,0.36 -0.02,0.34 -0.04,0.34 -0.06,0.33 -0.07,0.32 -0.09,0.31 -0.1,0.3 -0.11,0.28 -0.13,0.28 -0.14,0.27 -0.16,0.25 -0.16,0.25 -0.18,0.23 -0.19,0.22 -0.2,0.22 -0.21,0.2 -0.22,0.19 -0.23,0.17 -0.24,0.17 -0.25,0.15 -0.25,0.15 -0.27,0.13 -0.27,0.12 -0.28,0.1 -0.28,0.1 -0.29,0.08 -0.3,0.07 -0.3,0.06 -0.3,0.04 -0.31,0.04 -0.32,0.01 -0.32,0.01 c -5.17,0 -10.04,-4.84 -10.04,-9.61 0,-3.48 2.54,-6.09 6.34,-6.09 l 0.03,0.97 c -1.73,0 -3.48,1.12 -3.48,3.87 0,1.42 0.67,4.85 2.03,6.83 1.5,2.16 3.51,3.06 5.08,3.06 1.89,0 3.48,-1.29 3.48,-3.87 0,-0.83 -0.41,-4.28 -1.95,-6.72 -1.31,-2.05 -3.41,-3.17 -5.16,-3.17 h 0 l -0.03,-0.97 c 4.98,0 10,4.59 10,9.61 z"
           inkscape:connector-curvature="0"
           style="fill:#000000;stroke-width:0" /></g>    </g>
    <g
       id="g5260"
       transform="matrix(4.5650995,0,0,4.5650995,-304.60047,-1309.4964)">
      <g
         id="g5262"
         transform="matrix(0.24535537,0,0,-0.24535537,-42.93719,494.10937)"
         xml:space="preserve"
         stroke-miterlimit="10.433"
         font-style="normal"
         font-variant="normal"
         font-weight="normal"
         font-stretch="normal"
         font-size-adjust="none"
         letter-spacing="normal"
         word-spacing="normal"
         style="font-style:normal;font-variant:normal;font-weight:normal;font-stretch:normal;letter-spacing:normal;word-spacing:normal;text-anchor:start;fill:none;stroke:#000000;stroke-linecap:butt;stroke-linejoin:miter;stroke-miterlimit:10.43299961;stroke-opacity:1;stroke-dasharray:none;stroke-dashoffset:0"><path
           d="m 482.39,435.84 -0.07,-0.06 -0.07,-0.07 -0.08,-0.07 -0.08,-0.07 -0.08,-0.08 -0.09,-0.08 -0.09,-0.09 -0.1,-0.08 -0.09,-0.09 -0.1,-0.1 -0.19,-0.19 -0.2,-0.19 -0.19,-0.21 -0.09,-0.1 -0.09,-0.1 -0.09,-0.1 -0.08,-0.11 -0.08,-0.1 -0.08,-0.1 -0.07,-0.1 -0.06,-0.1 -0.06,-0.1 -0.06,-0.1 -0.04,-0.1 -0.04,-0.09 -0.03,-0.09 -0.02,-0.1 -0.02,-0.08 0,-0.09 c 0,-0.5 0.5,-1 1,-1 0.45,0 0.7,0.36 0.95,0.66 0.59,0.75 1.73,2.14 3.94,3.23 0.34,0.21 0.84,0.46 0.84,1.05 0,0.5 -0.34,0.75 -0.7,1 -1.1,0.75 -1.64,1.64 -2.05,2.83 -0.09,0.45 -0.3,1.11 -0.98,1.11 -0.71,0 -1,-0.66 -1,-1.05 0,-0.25 0.39,-1.84 1.18,-2.89 h -16.78 c -0.84,0 -1.75,0 -1.75,-1 0,-1 0.91,-1 1.75,-1 z"
           id="path5264"
           inkscape:connector-curvature="0"
           style="fill:#000000;stroke-width:0" /><path
           d="m 485.66,424.73 -0.01,0.21 0,0.2 -0.02,0.2 -0.01,0.19 -0.03,0.18 -0.02,0.18 -0.03,0.17 -0.04,0.16 -0.04,0.16 -0.04,0.16 -0.05,0.14 -0.05,0.14 -0.06,0.13 -0.06,0.13 -0.06,0.12 -0.07,0.12 -0.06,0.1 -0.08,0.1 -0.07,0.1 -0.08,0.09 -0.08,0.08 -0.08,0.07 -0.09,0.07 -0.09,0.06 -0.09,0.05 -0.09,0.05 -0.09,0.04 -0.1,0.03 -0.1,0.02 -0.1,0.02 -0.1,0.01 -0.1,0 c -1.29,0 -2.64,-1.18 -2.64,-2.34 0,-0.48 0.24,-1.03 0.74,-1.48 0.86,-0.75 1.75,-2.1 1.75,-4.19 0,-2 -0.96,-4.83 -2.49,-7.13 -1.5,-2.14 -3.34,-3.82 -5.69,-3.82 -2.84,0 -4.39,1.78 -4.82,4.46 0.54,1.3 1.68,4.49 1.68,5.9 0,0.59 -0.25,1.09 -0.89,1.09 -0.4,0 -0.95,-0.11 -1.34,-0.84 -0.55,-1 -1.16,-4.24 -1.16,-6.04 -1.64,-2.34 -3.62,-4.57 -6.76,-4.57 -3.3,0 -4.35,2.93 -4.35,5.71 0,6.24 5.1,11.47 5.1,12.11 0,0.55 -0.41,0.96 -0.96,0.96 -0.65,0 -1,-0.66 -1.29,-1.11 -2.55,-3.69 -4.44,-9.61 -4.44,-14.14 0,-3.44 1.16,-7.13 5.23,-7.13 3.54,0 5.88,2.49 7.68,5.24 0.45,-2.89 2.39,-5.24 5.48,-5.24 3.89,0 6.28,3.03 8.06,6.78 1.21,2.44 3.1,9.21 3.1,12.3 z"
           id="path5266"
           inkscape:connector-curvature="0"
           style="fill:#000000;stroke-width:0" /><path
           d="m 497.78,420.54 0,0.05 -0.01,0.06 0,0.05 -0.01,0.06 -0.01,0.05 -0.02,0.06 -0.02,0.05 -0.01,0.06 -0.03,0.06 -0.02,0.05 -0.03,0.06 -0.03,0.05 -0.03,0.06 -0.04,0.05 -0.04,0.05 -0.04,0.05 -0.04,0.05 -0.05,0.05 -0.05,0.04 -0.05,0.05 -0.06,0.04 -0.06,0.03 -0.06,0.04 -0.06,0.03 -0.07,0.03 -0.07,0.03 -0.08,0.02 -0.08,0.02 -0.08,0.01 -0.08,0.01 -0.09,0.01 -0.09,0 c -0.94,0 -1.95,-0.91 -1.95,-1.92 0,-0.59 0.45,-1.33 1.4,-1.33 1,0 1.96,0.99 1.96,1.92 z"
           id="path5268"
           inkscape:connector-curvature="0"
           style="fill:#000000;stroke-width:0" /><path
           d="m 490.67,402.84 -0.06,-0.17 -0.05,-0.17 -0.03,-0.08 -0.02,-0.09 -0.03,-0.08 -0.02,-0.09 -0.02,-0.09 -0.02,-0.09 -0.02,-0.1 -0.02,-0.09 -0.01,-0.1 0,-0.05 -0.01,-0.05 0,-0.06 0,-0.05 0,-0.05 0,-0.06 c 0,-1.64 1.39,-2.95 3.29,-2.95 3.49,0 5.03,4.79 5.03,5.33 0,0.45 -0.45,0.45 -0.56,0.45 -0.48,0 -0.53,-0.2 -0.67,-0.59 -0.8,-2.79 -2.33,-4.22 -3.69,-4.22 -0.7,0 -0.87,0.45 -0.87,1.22 0,0.79 0.25,1.46 0.56,2.23 0.34,0.94 0.73,1.87 1.11,2.78 0.31,0.84 1.58,4.02 1.72,4.44 0.09,0.34 0.2,0.76 0.2,1.11 0,1.64 -1.39,2.95 -3.31,2.95 -3.46,0 -5.05,-4.73 -5.05,-5.33 0,-0.45 0.49,-0.45 0.59,-0.45 0.49,0 0.52,0.17 0.63,0.56 0.91,3 2.44,4.25 3.72,4.25 0.56,0 0.87,-0.28 0.87,-1.22 0,-0.79 -0.2,-1.32 -1.07,-3.48 z"
           id="path5270"
           inkscape:connector-curvature="0"
           style="fill:#000000;stroke-width:0" /></g>    </g>
    <g
       id="g5444"
       transform="matrix(4.5650995,0,0,4.5650995,72.11544,-1023.2901)">
      <g
         word-spacing="normal"
         letter-spacing="normal"
         font-size-adjust="none"
         font-stretch="normal"
         font-weight="normal"
         font-variant="normal"
         font-style="normal"
         stroke-miterlimit="10.433"
         xml:space="preserve"
         transform="matrix(0.24535537,0,0,-0.24535537,-42.93719,494.10937)"
         id="g5446"
         style="font-style:normal;font-variant:normal;font-weight:normal;font-stretch:normal;letter-spacing:normal;word-spacing:normal;text-anchor:start;fill:none;stroke:#000000;stroke-linecap:butt;stroke-linejoin:miter;stroke-miterlimit:10.43299961;stroke-opacity:1;stroke-dasharray:none;stroke-dashoffset:0"><path
           id="path5448"
           d="m 481.22,440.23 0,0 0,0.01 0,0 0,0.01 0,0.02 0,0.01 0,0.02 0,0.02 -0.01,0.02 0,0.02 -0.01,0.02 0,0.02 -0.01,0.02 -0.01,0.03 -0.01,0.02 -0.01,0.03 -0.02,0.02 -0.01,0.03 -0.02,0.02 -0.02,0.02 -0.02,0.03 -0.02,0.01 -0.01,0.01 -0.01,0.01 -0.02,0.01 -0.01,0.01 -0.02,0.01 -0.01,0.01 -0.02,0.01 -0.01,0.01 -0.02,0.01 -0.02,0 -0.02,0.01 -0.02,0.01 -0.02,0 -0.02,0.01 -0.03,0.01 -0.02,0 -0.02,0 -0.03,0.01 -0.03,0 -0.02,0 -0.03,0.01 -0.03,0 -0.03,0 c -0.75,0 -5.48,-0.46 -6.33,-0.55 -0.4,-0.05 -0.7,-0.3 -0.7,-0.95 0,-0.6 0.45,-0.6 1.2,-0.6 2.39,0 2.49,-0.34 2.49,-0.84 l -0.14,-1 -3,-11.81 c -0.89,1.84 -2.35,3.18 -4.58,3.18 l 0.05,-1.09 c 3.23,0 3.93,-4.08 3.93,-4.37 0,-0.32 -0.09,-0.61 -0.14,-0.86 l -2.5,-9.77 c -0.25,-0.89 -0.25,-0.98 -1,-1.84 -2.18,-2.74 -4.23,-3.53 -5.62,-3.53 -2.49,0 -3.19,2.73 -3.19,4.68 0,2.49 1.59,8.61 2.74,10.91 1.54,2.94 3.79,4.78 5.78,4.78 l -0.05,1.09 c -5.83,0 -12,-7.31 -12,-14.59 0,-4.69 2.73,-7.97 6.62,-7.97 0.99,0 3.49,0.21 6.47,3.74 0.41,-2.1 2.14,-3.74 4.53,-3.74 1.75,0 2.9,1.14 3.69,2.74 0.85,1.79 1.5,4.84 1.5,4.93 0,0.5 -0.45,0.5 -0.59,0.5 -0.5,0 -0.55,-0.2 -0.7,-0.9 -0.85,-3.24 -1.75,-6.17 -3.79,-6.17 -1.34,0 -1.5,1.29 -1.5,2.29 0,1.19 0.1,1.55 0.3,2.39 z"
           inkscape:connector-curvature="0"
           style="fill:#000000;stroke-width:0" /><path
           id="path5450"
           d="m 489.63,405.79 0,0.02 0,0.01 0.01,0.02 0,0.03 0.01,0.03 0.01,0.03 0.01,0.03 0,0.04 0.01,0.04 0.01,0.05 0.02,0.04 0.01,0.06 0.01,0.05 0.02,0.05 0.02,0.12 0.04,0.13 0.03,0.13 0.04,0.15 0.03,0.14 0.04,0.15 0.04,0.15 0.08,0.32 0.08,0.31 0.04,0.15 0.04,0.15 0.04,0.14 0.03,0.14 0.04,0.14 0.03,0.12 0.03,0.12 0.02,0.05 0.01,0.05 0.01,0.05 0.02,0.05 0.01,0.04 0.01,0.04 0.01,0.04 0.01,0.03 0.01,0.03 0,0.03 0.01,0.02 0.01,0.02 0,0.01 0.01,0.01 c 0.07,0.29 1.07,2.02 2.2,2.86 0.37,0.27 1.31,0.97 2.81,0.97 0.34,0 1.22,-0.03 1.92,-0.48 -1.12,-0.31 -1.53,-1.3 -1.53,-1.92 0,-0.77 0.6,-1.29 1.39,-1.29 0.8,0 1.96,0.66 1.96,2.13 0,1.81 -1.93,2.53 -3.71,2.53 -1.81,0 -3.37,-0.72 -4.9,-2.47 -0.63,2.13 -2.75,2.47 -3.6,2.47 -1.28,0 -2.15,-0.8 -2.72,-1.76 -0.79,-1.36 -1.28,-3.4 -1.28,-3.57 0,-0.45 0.49,-0.45 0.6,-0.45 0.48,0 0.51,0.11 0.76,1.05 0.52,2.12 1.19,3.76 2.55,3.76 0.9,0 1.14,-0.76 1.14,-1.7 0,-0.67 -0.31,-1.95 -0.56,-2.89 -0.24,-0.95 -0.58,-2.38 -0.77,-3.14 l -1.11,-4.47 c -0.14,-0.44 -0.34,-1.31 -0.34,-1.42 0,-0.77 0.62,-1.11 1.19,-1.11 0.51,0 1.21,0.31 1.48,1 0.08,0.22 0.45,1.75 0.67,2.62 z"
           inkscape:connector-curvature="0"
           style="fill:#000000;stroke-width:0" /></g>    </g>
    <g
       id="g5632"
       transform="matrix(4.5650995,0,0,4.5650995,216.44167,-1282.5881)">
      <g
         id="g5634"
         transform="matrix(0.24535537,0,0,-0.24535537,-42.93719,494.10937)"
         xml:space="preserve"
         stroke-miterlimit="10.433"
         font-style="normal"
         font-variant="normal"
         font-weight="normal"
         font-stretch="normal"
         font-size-adjust="none"
         letter-spacing="normal"
         word-spacing="normal"
         style="font-style:normal;font-variant:normal;font-weight:normal;font-stretch:normal;letter-spacing:normal;word-spacing:normal;text-anchor:start;fill:none;stroke:#000000;stroke-linecap:butt;stroke-linejoin:miter;stroke-miterlimit:10.43299961;stroke-opacity:1;stroke-dasharray:none;stroke-dashoffset:0"><path
           d="m 481.22,440.23 0,0 0,0.01 0,0 0,0.01 0,0.02 0,0.01 0,0.02 0,0.02 -0.01,0.02 0,0.02 -0.01,0.02 0,0.02 -0.01,0.02 -0.01,0.03 -0.01,0.02 -0.01,0.03 -0.02,0.02 -0.01,0.03 -0.02,0.02 -0.02,0.02 -0.02,0.03 -0.02,0.01 -0.01,0.01 -0.01,0.01 -0.02,0.01 -0.01,0.01 -0.02,0.01 -0.01,0.01 -0.02,0.01 -0.01,0.01 -0.02,0.01 -0.02,0 -0.02,0.01 -0.02,0.01 -0.02,0 -0.02,0.01 -0.03,0.01 -0.02,0 -0.02,0 -0.03,0.01 -0.03,0 -0.02,0 -0.03,0.01 -0.03,0 -0.03,0 c -0.75,0 -5.48,-0.46 -6.33,-0.55 -0.4,-0.05 -0.7,-0.3 -0.7,-0.95 0,-0.6 0.45,-0.6 1.2,-0.6 2.39,0 2.49,-0.34 2.49,-0.84 l -0.14,-1 -3,-11.81 c -0.89,1.84 -2.35,3.18 -4.58,3.18 l 0.05,-1.09 c 3.23,0 3.93,-4.08 3.93,-4.37 0,-0.32 -0.09,-0.61 -0.14,-0.86 l -2.5,-9.77 c -0.25,-0.89 -0.25,-0.98 -1,-1.84 -2.18,-2.74 -4.23,-3.53 -5.62,-3.53 -2.49,0 -3.19,2.73 -3.19,4.68 0,2.49 1.59,8.61 2.74,10.91 1.54,2.94 3.79,4.78 5.78,4.78 l -0.05,1.09 c -5.83,0 -12,-7.31 -12,-14.59 0,-4.69 2.73,-7.97 6.62,-7.97 0.99,0 3.49,0.21 6.47,3.74 0.41,-2.1 2.14,-3.74 4.53,-3.74 1.75,0 2.9,1.14 3.69,2.74 0.85,1.79 1.5,4.84 1.5,4.93 0,0.5 -0.45,0.5 -0.59,0.5 -0.5,0 -0.55,-0.2 -0.7,-0.9 -0.85,-3.24 -1.75,-6.17 -3.79,-6.17 -1.34,0 -1.5,1.29 -1.5,2.29 0,1.19 0.1,1.55 0.3,2.39 z"
           id="path5636"
           inkscape:connector-curvature="0"
           style="fill:#000000;stroke-width:0" /><path
           d="m 500.05,411.42 0,0.12 0,0.12 -0.01,0.12 -0.01,0.11 -0.01,0.11 -0.01,0.11 -0.01,0.1 -0.02,0.1 -0.02,0.1 -0.02,0.09 -0.02,0.09 -0.02,0.09 -0.03,0.08 -0.02,0.08 -0.03,0.07 -0.03,0.08 -0.03,0.07 -0.03,0.07 -0.03,0.06 -0.03,0.06 -0.04,0.06 -0.03,0.06 -0.04,0.05 -0.03,0.06 -0.04,0.05 -0.04,0.04 -0.08,0.09 -0.07,0.08 -0.08,0.07 -0.08,0.06 -0.08,0.05 -0.08,0.05 -0.08,0.04 -0.07,0.04 -0.07,0.02 -0.07,0.03 -0.07,0.02 -0.06,0.01 -0.06,0.02 -0.05,0 -0.04,0.01 -0.04,0 -0.03,0.01 -0.02,0 -0.02,0 c -0.91,0 -1.87,-0.96 -1.87,-1.86 0,-0.58 0.34,-0.86 0.59,-1.08 0.59,-0.48 1.28,-1.39 1.28,-2.78 0,-1.56 -2.3,-9.06 -6.44,-9.06 -2.82,0 -2.82,2.51 -2.82,3.11 0,1.59 0.62,3.54 1.92,6.78 0.28,0.73 0.48,1.26 0.48,1.86 0,1.81 -1.53,2.98 -3.31,2.98 -3.49,0 -5.05,-4.76 -5.05,-5.33 0,-0.45 0.49,-0.45 0.6,-0.45 0.48,0 0.51,0.17 0.62,0.56 0.83,2.86 2.33,4.25 3.72,4.25 0.59,0 0.87,-0.39 0.87,-1.22 0,-0.79 -0.28,-1.53 -0.62,-2.32 -1.5,-3.88 -1.88,-5.38 -1.88,-6.63 0,-3.45 2.72,-4.56 5.36,-4.56 5.86,0 8.3,10.14 8.3,13 z"
           id="path5638"
           inkscape:connector-curvature="0"
           style="fill:#000000;stroke-width:0" /></g>    </g>
    <g
       id="g5828"
       transform="matrix(4.5650995,0,0,4.5650995,-72.210787,-1360.8667)">
      <g
         word-spacing="normal"
         letter-spacing="normal"
         font-size-adjust="none"
         font-stretch="normal"
         font-weight="normal"
         font-variant="normal"
         font-style="normal"
         stroke-miterlimit="10.433"
         xml:space="preserve"
         transform="matrix(0.24535537,0,0,-0.24535537,-42.93719,494.10937)"
         id="g5830"
         style="font-style:normal;font-variant:normal;font-weight:normal;font-stretch:normal;letter-spacing:normal;word-spacing:normal;text-anchor:start;fill:none;stroke:#000000;stroke-linecap:butt;stroke-linejoin:miter;stroke-miterlimit:10.43299961;stroke-opacity:1;stroke-dasharray:none;stroke-dashoffset:0"><path
           id="path5832"
           d="m 462.14,410.34 0.25,0.27 0.24,0.25 0.24,0.25 0.23,0.24 0.22,0.23 0.22,0.22 0.21,0.22 0.2,0.21 0.2,0.2 0.2,0.19 0.19,0.19 0.19,0.19 0.18,0.17 0.19,0.18 0.35,0.33 0.34,0.32 0.33,0.3 0.33,0.29 0.32,0.29 0.65,0.56 0.33,0.29 0.33,0.28 c 0,0.05 3.08,2.69 4.88,4.49 4.73,4.64 5.83,7.03 5.83,7.21 0,0.5 -0.46,0.5 -0.55,0.5 -0.35,0 -0.5,-0.09 -0.75,-0.54 -1.49,-2.39 -2.53,-3.19 -3.74,-3.19 -1.2,0 -1.79,0.75 -2.54,1.59 -0.94,1.16 -1.78,2.14 -3.44,2.14 -3.73,0 -6.02,-4.62 -6.02,-5.67 0,-0.25 0.14,-0.54 0.6,-0.54 0.45,0 0.54,0.25 0.64,0.54 0.95,2.3 3.84,2.35 4.23,2.35 1.05,0 2,-0.36 3.14,-0.75 2,-0.75 2.55,-0.75 3.85,-0.75 -1.8,-2.14 -5.99,-5.74 -6.92,-6.53 l -4.49,-4.18 c -3.39,-3.34 -5.14,-6.18 -5.14,-6.53 0,-0.5 0.5,-0.5 0.59,-0.5 0.41,0 0.5,0.1 0.8,0.64 1.16,1.75 2.64,3.1 4.24,3.1 1.15,0 1.65,-0.46 2.89,-1.89 0.86,-1.05 1.75,-1.85 3.18,-1.85 4.94,0 7.83,6.33 7.83,7.67 0,0.25 -0.2,0.5 -0.59,0.5 -0.46,0 -0.55,-0.29 -0.71,-0.65 -1.14,-3.24 -4.32,-4.17 -5.98,-4.17 -0.98,0 -1.89,0.29 -2.94,0.64 -1.68,0.64 -2.43,0.84 -3.48,0.84 -0.1,0 -0.89,0 -1.35,-0.14 z"
           inkscape:connector-curvature="0"
           style="fill:#000000;stroke-width:0" /><path
           id="path5834"
           d="m 497.29,411.42 0,0.12 -0.01,0.12 0,0.12 -0.01,0.11 -0.01,0.11 -0.01,0.11 -0.02,0.1 -0.01,0.1 -0.02,0.1 -0.02,0.09 -0.02,0.09 -0.02,0.09 -0.03,0.08 -0.02,0.08 -0.03,0.07 -0.03,0.08 -0.03,0.07 -0.03,0.07 -0.03,0.06 -0.03,0.06 -0.04,0.06 -0.03,0.06 -0.04,0.05 -0.04,0.06 -0.03,0.05 -0.04,0.04 -0.08,0.09 -0.08,0.08 -0.08,0.07 -0.07,0.06 -0.08,0.05 -0.08,0.05 -0.08,0.04 -0.07,0.04 -0.08,0.02 -0.07,0.03 -0.06,0.02 -0.06,0.01 -0.06,0.02 -0.05,0 -0.04,0.01 -0.04,0 -0.03,0.01 -0.03,0 -0.01,0 c -0.91,0 -1.88,-0.96 -1.88,-1.86 0,-0.58 0.35,-0.86 0.6,-1.08 0.59,-0.48 1.28,-1.39 1.28,-2.78 0,-1.56 -2.3,-9.06 -6.44,-9.06 -2.83,0 -2.83,2.51 -2.83,3.11 0,1.59 0.63,3.54 1.93,6.78 0.28,0.73 0.48,1.26 0.48,1.86 0,1.81 -1.53,2.98 -3.31,2.98 -3.49,0 -5.05,-4.76 -5.05,-5.33 0,-0.45 0.48,-0.45 0.59,-0.45 0.49,0 0.52,0.17 0.63,0.56 0.83,2.86 2.33,4.25 3.72,4.25 0.59,0 0.87,-0.39 0.87,-1.22 0,-0.79 -0.28,-1.53 -0.62,-2.32 -1.5,-3.88 -1.88,-5.38 -1.88,-6.63 0,-3.45 2.72,-4.56 5.36,-4.56 5.86,0 8.3,10.14 8.3,13 z"
           inkscape:connector-curvature="0"
           style="fill:#000000;stroke-width:0" /></g>    </g>
    <g
       id="g6032"
       transform="matrix(4.5650995,0,0,4.5650995,-77.103204,-1138.2619)">
      <g
         id="g6034"
         transform="matrix(0.24535537,0,0,-0.24535537,-42.93719,494.10937)"
         xml:space="preserve"
         stroke-miterlimit="10.433"
         font-style="normal"
         font-variant="normal"
         font-weight="normal"
         font-stretch="normal"
         font-size-adjust="none"
         letter-spacing="normal"
         word-spacing="normal"
         style="font-style:normal;font-variant:normal;font-weight:normal;font-stretch:normal;letter-spacing:normal;word-spacing:normal;text-anchor:start;fill:none;stroke:#000000;stroke-linecap:butt;stroke-linejoin:miter;stroke-miterlimit:10.43299961;stroke-opacity:1;stroke-dasharray:none;stroke-dashoffset:0"><path
           d="m 462.14,410.34 0.25,0.27 0.24,0.25 0.24,0.25 0.23,0.24 0.22,0.23 0.22,0.22 0.21,0.22 0.2,0.21 0.2,0.2 0.2,0.19 0.19,0.19 0.19,0.19 0.18,0.17 0.19,0.18 0.35,0.33 0.34,0.32 0.33,0.3 0.33,0.29 0.32,0.29 0.65,0.56 0.33,0.29 0.33,0.28 c 0,0.05 3.08,2.69 4.88,4.49 4.73,4.64 5.83,7.03 5.83,7.21 0,0.5 -0.46,0.5 -0.55,0.5 -0.35,0 -0.5,-0.09 -0.75,-0.54 -1.49,-2.39 -2.53,-3.19 -3.74,-3.19 -1.2,0 -1.79,0.75 -2.54,1.59 -0.94,1.16 -1.78,2.14 -3.44,2.14 -3.73,0 -6.02,-4.62 -6.02,-5.67 0,-0.25 0.14,-0.54 0.6,-0.54 0.45,0 0.54,0.25 0.64,0.54 0.95,2.3 3.84,2.35 4.23,2.35 1.05,0 2,-0.36 3.14,-0.75 2,-0.75 2.55,-0.75 3.85,-0.75 -1.8,-2.14 -5.99,-5.74 -6.92,-6.53 l -4.49,-4.18 c -3.39,-3.34 -5.14,-6.18 -5.14,-6.53 0,-0.5 0.5,-0.5 0.59,-0.5 0.41,0 0.5,0.1 0.8,0.64 1.16,1.75 2.64,3.1 4.24,3.1 1.15,0 1.65,-0.46 2.89,-1.89 0.86,-1.05 1.75,-1.85 3.18,-1.85 4.94,0 7.83,6.33 7.83,7.67 0,0.25 -0.2,0.5 -0.59,0.5 -0.46,0 -0.55,-0.29 -0.71,-0.65 -1.14,-3.24 -4.32,-4.17 -5.98,-4.17 -0.98,0 -1.89,0.29 -2.94,0.64 -1.68,0.64 -2.43,0.84 -3.48,0.84 -0.1,0 -0.89,0 -1.35,-0.14 z"
           id="path6036"
           inkscape:connector-curvature="0"
           style="fill:#000000;stroke-width:0" /><path
           d="m 486.87,405.79 0,0.02 0,0.01 0.01,0.02 0,0.03 0.01,0.03 0.01,0.03 0,0.03 0.01,0.04 0.01,0.04 0.01,0.05 0.01,0.04 0.02,0.06 0.01,0.05 0.01,0.05 0.03,0.12 0.03,0.13 0.04,0.13 0.03,0.15 0.04,0.14 0.04,0.15 0.04,0.15 0.08,0.32 0.08,0.31 0.04,0.15 0.04,0.15 0.04,0.14 0.03,0.14 0.04,0.14 0.03,0.12 0.03,0.12 0.02,0.05 0.01,0.05 0.01,0.05 0.01,0.05 0.02,0.04 0.01,0.04 0.01,0.04 0.01,0.03 0.01,0.03 0,0.03 0.01,0.02 0.01,0.02 0,0.01 0,0.01 c 0.08,0.29 1.08,2.02 2.21,2.86 0.37,0.27 1.31,0.97 2.81,0.97 0.34,0 1.22,-0.03 1.92,-0.48 -1.12,-0.31 -1.53,-1.3 -1.53,-1.92 0,-0.77 0.59,-1.29 1.39,-1.29 0.8,0 1.95,0.66 1.95,2.13 0,1.81 -1.92,2.53 -3.7,2.53 -1.81,0 -3.37,-0.72 -4.91,-2.47 -0.62,2.13 -2.75,2.47 -3.59,2.47 -1.28,0 -2.16,-0.8 -2.72,-1.76 -0.8,-1.36 -1.28,-3.4 -1.28,-3.57 0,-0.45 0.48,-0.45 0.59,-0.45 0.49,0 0.52,0.11 0.77,1.05 0.52,2.12 1.19,3.76 2.55,3.76 0.9,0 1.14,-0.76 1.14,-1.7 0,-0.67 -0.32,-1.95 -0.57,-2.89 -0.23,-0.95 -0.57,-2.38 -0.76,-3.14 l -1.11,-4.47 c -0.14,-0.44 -0.34,-1.31 -0.34,-1.42 0,-0.77 0.62,-1.11 1.18,-1.11 0.52,0 1.22,0.31 1.49,1 0.08,0.22 0.45,1.75 0.67,2.62 z"
           id="path6038"
           inkscape:connector-curvature="0"
           style="fill:#000000;stroke-width:0" /></g>    </g>
    <g
       id="g6244"
       transform="matrix(4.5650995,0,0,4.5650995,108.80855,-1177.4011)">
      <g
         word-spacing="normal"
         letter-spacing="normal"
         font-size-adjust="none"
         font-stretch="normal"
         font-weight="normal"
         font-variant="normal"
         font-style="normal"
         stroke-miterlimit="10.433"
         xml:space="preserve"
         transform="matrix(0.24535537,0,0,-0.24535537,-42.93719,494.10937)"
         id="g6246"
         style="font-style:normal;font-variant:normal;font-weight:normal;font-stretch:normal;letter-spacing:normal;word-spacing:normal;text-anchor:start;fill:none;stroke:#000000;stroke-linecap:butt;stroke-linejoin:miter;stroke-miterlimit:10.43299961;stroke-opacity:1;stroke-dasharray:none;stroke-dashoffset:0"><path
           id="path6248"
           d="m 459.91,409.14 -0.02,-0.07 -0.01,-0.08 -0.02,-0.07 -0.01,-0.08 -0.04,-0.16 -0.04,-0.16 -0.03,-0.16 -0.04,-0.16 -0.04,-0.16 -0.03,-0.16 -0.02,-0.08 -0.02,-0.07 -0.02,-0.07 -0.01,-0.07 -0.02,-0.07 -0.01,-0.07 -0.01,-0.06 -0.01,-0.06 -0.01,-0.06 -0.01,-0.05 -0.01,-0.05 -0.01,-0.04 -0.01,-0.04 0,-0.04 0,-0.03 0,-0.02 c 0,-0.89 0.7,-1.35 1.43,-1.35 0.61,0 1.5,0.39 1.85,1.39 0.11,0.21 1.8,6.99 2,7.88 0.39,1.64 1.3,5.12 1.59,6.48 0.21,0.64 1.6,2.99 2.78,4.08 0.41,0.34 1.85,1.64 4,1.64 1.28,0 2.03,-0.59 2.08,-0.59 -1.48,-0.25 -2.58,-1.46 -2.58,-2.74 0,-0.79 0.55,-1.75 1.89,-1.75 1.35,0 2.74,1.14 2.74,2.94 0,1.75 -1.6,3.23 -4.13,3.23 -3.25,0 -5.43,-2.43 -6.39,-3.82 -0.39,2.23 -2.18,3.82 -4.53,3.82 -2.28,0 -3.23,-1.93 -3.69,-2.82 -0.89,-1.71 -1.54,-4.69 -1.54,-4.85 0,-0.5 0.5,-0.5 0.61,-0.5 0.5,0 0.54,0.07 0.84,1.16 0.84,3.53 1.84,5.92 3.64,5.92 0.84,0 1.55,-0.39 1.55,-2.28 0,-1.05 -0.16,-1.61 -0.8,-4.19 z"
           inkscape:connector-curvature="0"
           style="fill:#000000;stroke-width:0" /></g>    </g>
    <g
       id="g6460"
       transform="matrix(4.5650995,0,0,4.5650995,-18.394228,-1250.7874)">
      <g
         id="g6462"
         transform="matrix(0.24535537,0,0,-0.24535537,-42.93719,494.10937)"
         xml:space="preserve"
         stroke-miterlimit="10.433"
         font-style="normal"
         font-variant="normal"
         font-weight="normal"
         font-stretch="normal"
         font-size-adjust="none"
         letter-spacing="normal"
         word-spacing="normal"
         style="font-style:normal;font-variant:normal;font-weight:normal;font-stretch:normal;letter-spacing:normal;word-spacing:normal;text-anchor:start;fill:none;stroke:#000000;stroke-linecap:butt;stroke-linejoin:miter;stroke-miterlimit:10.43299961;stroke-opacity:1;stroke-dasharray:none;stroke-dashoffset:0"><path
           d="m 480.95,435.84 -0.07,-0.06 -0.07,-0.07 -0.08,-0.07 -0.08,-0.07 -0.08,-0.08 -0.09,-0.08 -0.09,-0.09 -0.1,-0.08 -0.09,-0.09 -0.1,-0.1 -0.19,-0.19 -0.2,-0.19 -0.19,-0.21 -0.09,-0.1 -0.09,-0.1 -0.09,-0.1 -0.08,-0.11 -0.08,-0.1 -0.08,-0.1 -0.07,-0.1 -0.07,-0.1 -0.05,-0.1 -0.06,-0.1 -0.04,-0.1 -0.04,-0.09 -0.03,-0.09 -0.03,-0.1 -0.01,-0.08 0,-0.09 c 0,-0.5 0.5,-1 1,-1 0.45,0 0.7,0.36 0.95,0.66 0.59,0.75 1.73,2.14 3.94,3.23 0.34,0.21 0.84,0.46 0.84,1.05 0,0.5 -0.34,0.75 -0.7,1 -1.1,0.75 -1.64,1.64 -2.05,2.83 -0.09,0.45 -0.3,1.11 -0.98,1.11 -0.71,0 -1,-0.66 -1,-1.05 0,-0.25 0.39,-1.84 1.18,-2.89 h -16.78 c -0.84,0 -1.75,0 -1.75,-1 0,-1 0.91,-1 1.75,-1 z"
           id="path6464"
           inkscape:connector-curvature="0"
           style="fill:#000000;stroke-width:0" /><path
           d="m 459.91,409.14 -0.02,-0.07 -0.01,-0.08 -0.02,-0.07 -0.02,-0.08 -0.03,-0.16 -0.04,-0.16 -0.04,-0.16 -0.04,-0.16 -0.03,-0.16 -0.04,-0.16 -0.02,-0.08 -0.01,-0.07 -0.02,-0.07 -0.01,-0.07 -0.02,-0.07 -0.01,-0.07 -0.02,-0.06 -0.01,-0.06 -0.01,-0.06 -0.01,-0.05 -0.01,-0.05 0,-0.04 -0.01,-0.04 0,-0.04 -0.01,-0.03 0,-0.02 c 0,-0.89 0.71,-1.35 1.44,-1.35 0.61,0 1.5,0.39 1.84,1.39 0.07,0.11 0.66,2.44 0.96,3.69 l 1.09,4.48 c 0.3,1.1 0.6,2.19 0.85,3.35 0.2,0.84 0.6,2.28 0.65,2.48 0.75,1.55 3.39,6.08 8.11,6.08 2.25,0 2.7,-1.84 2.7,-3.48 0,-3.1 -2.45,-9.47 -3.25,-11.61 -0.43,-1.14 -0.48,-1.75 -0.48,-2.3 0,-2.33 1.73,-4.08 4.08,-4.08 4.69,0 6.53,7.27 6.53,7.67 0,0.5 -0.45,0.5 -0.61,0.5 -0.48,0 -0.48,-0.15 -0.73,-0.9 -1,-3.38 -2.65,-6.17 -5.1,-6.17 -0.84,0 -1.19,0.5 -1.19,1.64 0,1.25 0.46,2.45 0.89,3.54 0.96,2.64 3.05,8.11 3.05,10.96 0,3.34 -2.14,5.32 -5.73,5.32 -4.49,0 -6.92,-3.18 -7.77,-4.32 -0.25,2.79 -2.3,4.32 -4.59,4.32 -2.28,0 -3.24,-1.93 -3.74,-2.82 -0.79,-1.71 -1.5,-4.64 -1.5,-4.85 0,-0.5 0.5,-0.5 0.61,-0.5 0.5,0 0.55,0.07 0.85,1.16 0.84,3.53 1.84,5.92 3.64,5.92 0.98,0 1.54,-0.64 1.54,-2.28 0,-1.05 -0.15,-1.61 -0.79,-4.19 z"
           id="path6466"
           inkscape:connector-curvature="0"
           style="fill:#000000;stroke-width:0" /><path
           d="m 496.7,420.54 -0.01,0.05 0,0.06 -0.01,0.05 -0.01,0.06 -0.01,0.05 -0.01,0.06 -0.02,0.05 -0.02,0.06 -0.02,0.06 -0.02,0.05 -0.03,0.06 -0.03,0.05 -0.03,0.06 -0.04,0.05 -0.04,0.05 -0.04,0.05 -0.04,0.05 -0.05,0.05 -0.05,0.04 -0.05,0.05 -0.06,0.04 -0.06,0.03 -0.06,0.04 -0.07,0.03 -0.06,0.03 -0.08,0.03 -0.07,0.02 -0.08,0.02 -0.08,0.01 -0.08,0.01 -0.09,0.01 -0.09,0 c -0.94,0 -1.95,-0.91 -1.95,-1.92 0,-0.59 0.45,-1.33 1.4,-1.33 1,0 1.96,0.99 1.96,1.92 z"
           id="path6468"
           inkscape:connector-curvature="0"
           style="fill:#000000;stroke-width:0" /><path
           d="m 489.59,402.84 -0.06,-0.17 -0.05,-0.17 -0.03,-0.08 -0.02,-0.09 -0.03,-0.08 -0.02,-0.09 -0.03,-0.09 -0.02,-0.09 -0.01,-0.1 -0.02,-0.09 -0.01,-0.1 -0.01,-0.05 0,-0.05 0,-0.06 -0.01,-0.05 0,-0.05 0,-0.06 c 0,-1.64 1.39,-2.95 3.3,-2.95 3.48,0 5.03,4.79 5.03,5.33 0,0.45 -0.45,0.45 -0.56,0.45 -0.49,0 -0.53,-0.2 -0.67,-0.59 -0.8,-2.79 -2.33,-4.22 -3.69,-4.22 -0.7,0 -0.88,0.45 -0.88,1.22 0,0.79 0.25,1.46 0.57,2.23 0.34,0.94 0.73,1.87 1.11,2.78 0.31,0.84 1.57,4.02 1.72,4.44 0.09,0.34 0.2,0.76 0.2,1.11 0,1.64 -1.39,2.95 -3.31,2.95 -3.46,0 -5.05,-4.73 -5.05,-5.33 0,-0.45 0.48,-0.45 0.59,-0.45 0.49,0 0.52,0.17 0.63,0.56 0.9,3 2.44,4.25 3.72,4.25 0.56,0 0.87,-0.28 0.87,-1.22 0,-0.79 -0.2,-1.32 -1.08,-3.48 z"
           id="path6470"
           inkscape:connector-curvature="0"
           style="fill:#000000;stroke-width:0" /></g>    </g>
    <g
       id="g6694"
       transform="matrix(4.5650995,0,0,4.5650995,306.95133,-1353.5281)">
      <g
         word-spacing="normal"
         letter-spacing="normal"
         font-size-adjust="none"
         font-stretch="normal"
         font-weight="normal"
         font-variant="normal"
         font-style="normal"
         stroke-miterlimit="10.433"
         xml:space="preserve"
         transform="matrix(0.24535537,0,0,-0.24535537,-42.93719,494.10937)"
         id="g6696"
         style="font-style:normal;font-variant:normal;font-weight:normal;font-stretch:normal;letter-spacing:normal;word-spacing:normal;text-anchor:start;fill:none;stroke:#000000;stroke-linecap:butt;stroke-linejoin:miter;stroke-miterlimit:10.43299961;stroke-opacity:1;stroke-dasharray:none;stroke-dashoffset:0"><path
           id="path6698"
           d="m 480.95,435.84 -0.07,-0.06 -0.07,-0.07 -0.08,-0.07 -0.08,-0.07 -0.08,-0.08 -0.09,-0.08 -0.09,-0.09 -0.1,-0.08 -0.09,-0.09 -0.1,-0.1 -0.19,-0.19 -0.2,-0.19 -0.19,-0.21 -0.09,-0.1 -0.09,-0.1 -0.09,-0.1 -0.08,-0.11 -0.08,-0.1 -0.08,-0.1 -0.07,-0.1 -0.07,-0.1 -0.05,-0.1 -0.06,-0.1 -0.04,-0.1 -0.04,-0.09 -0.03,-0.09 -0.03,-0.1 -0.01,-0.08 0,-0.09 c 0,-0.5 0.5,-1 1,-1 0.45,0 0.7,0.36 0.95,0.66 0.59,0.75 1.73,2.14 3.94,3.23 0.34,0.21 0.84,0.46 0.84,1.05 0,0.5 -0.34,0.75 -0.7,1 -1.1,0.75 -1.64,1.64 -2.05,2.83 -0.09,0.45 -0.3,1.11 -0.98,1.11 -0.71,0 -1,-0.66 -1,-1.05 0,-0.25 0.39,-1.84 1.18,-2.89 h -16.78 c -0.84,0 -1.75,0 -1.75,-1 0,-1 0.91,-1 1.75,-1 z"
           inkscape:connector-curvature="0"
           style="fill:#000000;stroke-width:0" /><path
           id="path6700"
           d="m 459.91,409.14 -0.02,-0.07 -0.01,-0.08 -0.02,-0.07 -0.02,-0.08 -0.03,-0.16 -0.04,-0.16 -0.04,-0.16 -0.04,-0.16 -0.03,-0.16 -0.04,-0.16 -0.02,-0.08 -0.01,-0.07 -0.02,-0.07 -0.01,-0.07 -0.02,-0.07 -0.01,-0.07 -0.02,-0.06 -0.01,-0.06 -0.01,-0.06 -0.01,-0.05 -0.01,-0.05 0,-0.04 -0.01,-0.04 0,-0.04 -0.01,-0.03 0,-0.02 c 0,-0.89 0.71,-1.35 1.44,-1.35 0.61,0 1.5,0.39 1.84,1.39 0.07,0.11 0.66,2.44 0.96,3.69 l 1.09,4.48 c 0.3,1.1 0.6,2.19 0.85,3.35 0.2,0.84 0.6,2.28 0.65,2.48 0.75,1.55 3.39,6.08 8.11,6.08 2.25,0 2.7,-1.84 2.7,-3.48 0,-3.1 -2.45,-9.47 -3.25,-11.61 -0.43,-1.14 -0.48,-1.75 -0.48,-2.3 0,-2.33 1.73,-4.08 4.08,-4.08 4.69,0 6.53,7.27 6.53,7.67 0,0.5 -0.45,0.5 -0.61,0.5 -0.48,0 -0.48,-0.15 -0.73,-0.9 -1,-3.38 -2.65,-6.17 -5.1,-6.17 -0.84,0 -1.19,0.5 -1.19,1.64 0,1.25 0.46,2.45 0.89,3.54 0.96,2.64 3.05,8.11 3.05,10.96 0,3.34 -2.14,5.32 -5.73,5.32 -4.49,0 -6.92,-3.18 -7.77,-4.32 -0.25,2.79 -2.3,4.32 -4.59,4.32 -2.28,0 -3.24,-1.93 -3.74,-2.82 -0.79,-1.71 -1.5,-4.64 -1.5,-4.85 0,-0.5 0.5,-0.5 0.61,-0.5 0.5,0 0.55,0.07 0.85,1.16 0.84,3.53 1.84,5.92 3.64,5.92 0.98,0 1.54,-0.64 1.54,-2.28 0,-1.05 -0.15,-1.61 -0.79,-4.19 z"
           inkscape:connector-curvature="0"
           style="fill:#000000;stroke-width:0" /><path
           id="path6702"
           d="m 503.9,408.03 -0.01,0.36 -0.03,0.34 -0.04,0.34 -0.05,0.33 -0.07,0.32 -0.09,0.31 -0.1,0.3 -0.12,0.28 -0.12,0.28 -0.15,0.27 -0.15,0.25 -0.17,0.25 -0.17,0.23 -0.19,0.22 -0.2,0.22 -0.21,0.2 -0.22,0.19 -0.23,0.17 -0.24,0.17 -0.25,0.15 -0.25,0.15 -0.27,0.13 -0.27,0.12 -0.28,0.1 -0.28,0.1 -0.29,0.08 -0.3,0.07 -0.3,0.06 -0.31,0.04 -0.31,0.04 -0.31,0.01 -0.32,0.01 c -5.17,0 -10.05,-4.84 -10.05,-9.61 0,-3.48 2.55,-6.09 6.35,-6.09 l 0.03,0.97 c -1.73,0 -3.48,1.12 -3.48,3.87 0,1.42 0.67,4.85 2.03,6.83 1.5,2.16 3.51,3.06 5.07,3.06 1.9,0 3.49,-1.29 3.49,-3.87 0,-0.83 -0.41,-4.28 -1.95,-6.72 -1.32,-2.05 -3.41,-3.17 -5.16,-3.17 h 0 l -0.03,-0.97 c 4.98,0 10,4.59 10,9.61 z"
           inkscape:connector-curvature="0"
           style="fill:#000000;stroke-width:0" /></g>    </g>
    <g
       id="g6936"
       transform="matrix(4.5650995,0,0,4.5650995,412.13824,-1135.8157)">
      <g
         id="g6938"
         transform="matrix(0.24535537,0,0,-0.24535537,-42.93719,494.10937)"
         xml:space="preserve"
         stroke-miterlimit="10.433"
         font-style="normal"
         font-variant="normal"
         font-weight="normal"
         font-stretch="normal"
         font-size-adjust="none"
         letter-spacing="normal"
         word-spacing="normal"
         style="font-style:normal;font-variant:normal;font-weight:normal;font-stretch:normal;letter-spacing:normal;word-spacing:normal;text-anchor:start;fill:none;stroke:#000000;stroke-linecap:butt;stroke-linejoin:miter;stroke-miterlimit:10.43299961;stroke-opacity:1;stroke-dasharray:none;stroke-dashoffset:0"><path
           d="m 472.75,418.45 5.83,6.48 c 0.66,0.71 0.96,1.05 5.1,1.05 v 2.34 c -1.75,-0.11 -4.35,-0.15 -4.6,-0.15 -1.25,0 -3.73,0.11 -5.12,0.15 v -2.34 c 0.68,0 1.29,-0.11 1.89,-0.45 -0.21,-0.3 -0.21,-0.39 -0.41,-0.6 l -4.17,-4.68 -4.89,5.73 h 2 v 2.34 c -1.3,-0.04 -4.44,-0.15 -6.03,-0.15 -1.6,0 -3.85,0.11 -5.49,0.15 v -2.34 h 3.53 l 7.79,-9.17 -6.54,-7.33 c -0.84,-0.94 -2.64,-0.94 -5.03,-0.94 v -2.34 c 1.75,0.09 4.35,0.16 4.58,0.16 1.25,0 4.14,-0.11 5.14,-0.16 v 2.34 c -0.89,0 -1.84,0.25 -1.84,0.55 0,0.05 0,0.09 0.34,0.5 l 4.85,5.42 5.46,-6.47 h -1.93 v -2.34 c 1.29,0.05 4.33,0.16 5.98,0.16 1.6,0 3.83,-0.11 5.47,-0.16 v 2.34 h -3.53 z"
           id="path6940"
           inkscape:connector-curvature="0"
           style="fill:#000000;stroke-width:0" /><path
           d="m 504.26,408.03 -0.01,0.36 -0.02,0.34 -0.04,0.34 -0.06,0.33 -0.07,0.32 -0.09,0.31 -0.1,0.3 -0.11,0.28 -0.13,0.28 -0.14,0.27 -0.16,0.25 -0.16,0.25 -0.18,0.23 -0.19,0.22 -0.2,0.22 -0.21,0.2 -0.22,0.19 -0.23,0.17 -0.24,0.17 -0.25,0.15 -0.25,0.15 -0.27,0.13 -0.27,0.12 -0.27,0.1 -0.29,0.1 -0.29,0.08 -0.3,0.07 -0.3,0.06 -0.3,0.04 -0.31,0.04 -0.32,0.01 -0.32,0.01 c -5.17,0 -10.04,-4.84 -10.04,-9.61 0,-3.48 2.54,-6.09 6.34,-6.09 l 0.03,0.97 c -1.73,0 -3.48,1.12 -3.48,3.87 0,1.42 0.67,4.85 2.03,6.83 1.5,2.16 3.52,3.06 5.08,3.06 1.89,0 3.48,-1.29 3.48,-3.87 0,-0.83 -0.4,-4.28 -1.95,-6.72 -1.31,-2.05 -3.41,-3.17 -5.16,-3.17 h 0 l -0.03,-0.97 c 4.99,0 10,4.59 10,9.61 z"
           id="path6942"
           inkscape:connector-curvature="0"
           style="fill:#000000;stroke-width:0" /></g>    </g>
    <g
       id="g7184"
       transform="matrix(4.5650995,0,0,4.5650995,-126.02735,-1204.3095)">
      <g
         word-spacing="normal"
         letter-spacing="normal"
         font-size-adjust="none"
         font-stretch="normal"
         font-weight="normal"
         font-variant="normal"
         font-style="normal"
         stroke-miterlimit="10.433"
         xml:space="preserve"
         transform="matrix(0.24535537,0,0,-0.24535537,-42.93719,494.10937)"
         id="g7186"
         style="font-style:normal;font-variant:normal;font-weight:normal;font-stretch:normal;letter-spacing:normal;word-spacing:normal;text-anchor:start;fill:none;stroke:#000000;stroke-linecap:butt;stroke-linejoin:miter;stroke-miterlimit:10.43299961;stroke-opacity:1;stroke-dasharray:none;stroke-dashoffset:0"><path
           id="path7188"
           d="m 472.75,418.45 5.83,6.48 c 0.66,0.71 0.96,1.05 5.1,1.05 v 2.34 c -1.75,-0.11 -4.35,-0.15 -4.6,-0.15 -1.25,0 -3.73,0.11 -5.12,0.15 v -2.34 c 0.68,0 1.29,-0.11 1.89,-0.45 -0.21,-0.3 -0.21,-0.39 -0.41,-0.6 l -4.17,-4.68 -4.89,5.73 h 2 v 2.34 c -1.3,-0.04 -4.44,-0.15 -6.03,-0.15 -1.6,0 -3.85,0.11 -5.49,0.15 v -2.34 h 3.53 l 7.79,-9.17 -6.54,-7.33 c -0.84,-0.94 -2.64,-0.94 -5.03,-0.94 v -2.34 c 1.75,0.09 4.35,0.16 4.58,0.16 1.25,0 4.14,-0.11 5.14,-0.16 v 2.34 c -0.89,0 -1.84,0.25 -1.84,0.55 0,0.05 0,0.09 0.34,0.5 l 4.85,5.42 5.46,-6.47 h -1.93 v -2.34 c 1.29,0.05 4.33,0.16 5.98,0.16 1.6,0 3.83,-0.11 5.47,-0.16 v 2.34 h -3.53 z"
           inkscape:connector-curvature="0"
           style="fill:#000000;stroke-width:0" /><path
           id="path7190"
           d="m 497.06,420.54 0,0.05 -0.01,0.06 0,0.05 -0.01,0.06 -0.01,0.05 -0.02,0.06 -0.01,0.05 -0.02,0.06 -0.02,0.06 -0.03,0.05 -0.03,0.06 -0.03,0.05 -0.03,0.06 -0.04,0.05 -0.03,0.05 -0.05,0.05 -0.04,0.05 -0.05,0.05 -0.05,0.04 -0.05,0.05 -0.06,0.04 -0.06,0.03 -0.06,0.04 -0.06,0.03 -0.07,0.03 -0.07,0.03 -0.08,0.02 -0.07,0.02 -0.09,0.01 -0.08,0.01 -0.09,0.01 -0.09,0 c -0.94,0 -1.95,-0.91 -1.95,-1.92 0,-0.59 0.45,-1.33 1.41,-1.33 1,0 1.95,0.99 1.95,1.92 z"
           inkscape:connector-curvature="0"
           style="fill:#000000;stroke-width:0" /><path
           id="path7192"
           d="m 489.95,402.84 -0.05,-0.17 -0.06,-0.17 -0.03,-0.08 -0.02,-0.09 -0.03,-0.08 -0.02,-0.09 -0.02,-0.09 -0.02,-0.09 -0.02,-0.1 -0.01,-0.09 -0.02,-0.1 0,-0.05 -0.01,-0.05 0,-0.06 0,-0.05 0,-0.05 0,-0.06 c 0,-1.64 1.39,-2.95 3.29,-2.95 3.49,0 5.03,4.79 5.03,5.33 0,0.45 -0.45,0.45 -0.56,0.45 -0.48,0 -0.53,-0.2 -0.67,-0.59 -0.8,-2.79 -2.33,-4.22 -3.69,-4.22 -0.7,0 -0.87,0.45 -0.87,1.22 0,0.79 0.25,1.46 0.56,2.23 0.34,0.94 0.73,1.87 1.11,2.78 0.31,0.84 1.58,4.02 1.72,4.44 0.09,0.34 0.2,0.76 0.2,1.11 0,1.64 -1.39,2.95 -3.31,2.95 -3.45,0 -5.05,-4.73 -5.05,-5.33 0,-0.45 0.49,-0.45 0.6,-0.45 0.48,0 0.51,0.17 0.62,0.56 0.91,3 2.44,4.25 3.72,4.25 0.56,0 0.87,-0.28 0.87,-1.22 0,-0.79 -0.2,-1.32 -1.07,-3.48 z"
           inkscape:connector-curvature="0"
           style="fill:#000000;stroke-width:0" /></g>    </g>
  </g>
</svg>
