<?xml version="1.0" encoding="UTF-8" standalone="no"?>
<!-- Created with Inkscape (http://www.inkscape.org/) -->

<svg
   xmlns:dc="http://purl.org/dc/elements/1.1/"
   xmlns:cc="http://creativecommons.org/ns#"
   xmlns:rdf="http://www.w3.org/1999/02/22-rdf-syntax-ns#"
   xmlns:svg="http://www.w3.org/2000/svg"
   xmlns="http://www.w3.org/2000/svg"
   xmlns:xlink="http://www.w3.org/1999/xlink"
   xmlns:sodipodi="http://sodipodi.sourceforge.net/DTD/sodipodi-0.dtd"
   xmlns:inkscape="http://www.inkscape.org/namespaces/inkscape"
   width="418.69809"
   height="424.96552"
   id="svg2"
   version="1.1"
   inkscape:version="0.48.4 r9939"
   sodipodi:docname="radius_ketchup.svg">
  <sodipodi:namedview
     id="base"
     pagecolor="#ffffff"
     bordercolor="#666666"
     borderopacity="1.0"
     inkscape:pageopacity="0.0"
     inkscape:pageshadow="2"
     inkscape:zoom="1.4142136"
     inkscape:cx="61.083432"
     inkscape:cy="126.78287"
     inkscape:document-units="px"
     inkscape:current-layer="layer1"
     showgrid="false"
     inkscape:window-width="1920"
     inkscape:window-height="1138"
     inkscape:window-x="-8"
     inkscape:window-y="-8"
     inkscape:window-maximized="1"
     fit-margin-top="0"
     fit-margin-left="0"
     fit-margin-right="0"
     fit-margin-bottom="0" />
  <defs
     id="defs4">
    <marker
       style="overflow:visible"
       id="Arrow2Mend"
       refX="0"
       refY="0"
       orient="auto"
       inkscape:stockid="Arrow2Mend">
      <path
         transform="scale(-0.6,-0.6)"
         d="M 8.7185878,4.0337352 -2.2072895,0.01601326 8.7185884,-4.0017078 c -1.7454984,2.3720609 -1.7354408,5.6174519 -6e-7,8.035443 z"
         style="fill-rule:evenodd;stroke-width:0.625;stroke-linejoin:round"
         id="path4278"
         inkscape:connector-curvature="0" />
    </marker>
    <marker
       style="overflow:visible"
       id="Arrow1Mstart"
       refX="0"
       refY="0"
       orient="auto"
       inkscape:stockid="Arrow1Mstart">
      <path
         transform="matrix(0.4,0,0,0.4,4,0)"
         style="fill-rule:evenodd;stroke:#000000;stroke-width:1pt"
         d="M 0,0 5,-5 -12.5,0 5,5 0,0 z"
         id="path4257"
         inkscape:connector-curvature="0" />
    </marker>
    <marker
       style="overflow:visible"
       id="Arrow1Lstart"
       refX="0"
       refY="0"
       orient="auto"
       inkscape:stockid="Arrow1Lstart">
      <path
         transform="matrix(0.8,0,0,0.8,10,0)"
         style="fill-rule:evenodd;stroke:#000000;stroke-width:1pt"
         d="M 0,0 5,-5 -12.5,0 5,5 0,0 z"
         id="path4251"
         inkscape:connector-curvature="0" />
    </marker>
    <linearGradient
       id="linearGradient4138">
      <stop
         id="stop4140"
         offset="0"
         style="stop-color:#1346ff;stop-opacity:1;" />
      <stop
         style="stop-color:#1320ff;stop-opacity:1;"
         offset="0"
         id="stop4142" />
      <stop
         id="stop4144"
         offset="1"
         style="stop-color:#1346ff;stop-opacity:0;" />
    </linearGradient>
    <linearGradient
       id="linearGradient4132">
      <stop
         style="stop-color:#00aa0d;stop-opacity:1;"
         offset="0"
         id="stop4134" />
      <stop
         style="stop-color:#00aa0d;stop-opacity:0;"
         offset="1"
         id="stop4136" />
    </linearGradient>
    <linearGradient
       id="linearGradient4108">
      <stop
         style="stop-color:#2dff13;stop-opacity:1;"
         offset="0"
         id="stop4110" />
      <stop
         id="stop4112"
         offset="0"
         style="stop-color:#13ff13;stop-opacity:1;" />
      <stop
         style="stop-color:#13ff2d;stop-opacity:0;"
         offset="1"
         id="stop4114" />
    </linearGradient>
    <linearGradient
       id="linearGradient4090">
      <stop
         id="stop4092"
         offset="0"
         style="stop-color:#ff1313;stop-opacity:1;" />
      <stop
         style="stop-color:#ff1313;stop-opacity:1;"
         offset="0"
         id="stop4098" />
      <stop
         id="stop4094"
         offset="1"
         style="stop-color:#ff1313;stop-opacity:0;" />
    </linearGradient>
    <linearGradient
       id="linearGradient4138-1">
      <stop
         id="stop4140-2"
         offset="0"
         style="stop-color:#1346ff;stop-opacity:1;" />
      <stop
         style="stop-color:#1320ff;stop-opacity:1;"
         offset="0"
         id="stop4142-6" />
      <stop
         id="stop4144-0"
         offset="1"
         style="stop-color:#1346ff;stop-opacity:0;" />
    </linearGradient>
    <radialGradient
       gradientUnits="userSpaceOnUse"
       r="166.67517"
       fy="266.4635"
       fx="204.05081"
       cy="266.4635"
       cx="204.05081"
       id="radialGradient4096-0"
       xlink:href="#linearGradient4090-3"
       inkscape:collect="always" />
    <linearGradient
       id="linearGradient4090-3">
      <stop
         id="stop4092-6"
         offset="0"
         style="stop-color:#ff1313;stop-opacity:1;" />
      <stop
         style="stop-color:#ff1313;stop-opacity:1;"
         offset="0"
         id="stop4098-2" />
      <stop
         id="stop4094-4"
         offset="1"
         style="stop-color:#ff1313;stop-opacity:0;" />
    </linearGradient>
  </defs>
  <metadata
     id="metadata7">
    <rdf:RDF>
      <cc:Work
         rdf:about="">
        <dc:format>image/svg+xml</dc:format>
        <dc:type
           rdf:resource="http://purl.org/dc/dcmitype/StillImage" />
        <dc:title></dc:title>
      </cc:Work>
    </rdf:RDF>
  </metadata>
  <g
     inkscape:label="Layer 1"
     inkscape:groupmode="layer"
     id="layer1"
     transform="translate(-30.814729,0.92330359)">
    <g
       id="g5537"
       transform="matrix(1.3607819,0,0,1.3607819,-102.15092,-63.148579)">
      <path
         transform="matrix(0.75614432,0,0,0.75614432,97.346938,6.0264512)"
         sodipodi:type="arc"
         style="color:#000000;fill:#e72b2b;fill-opacity:1;fill-rule:nonzero;stroke:none;marker:none;visibility:visible;display:inline;overflow:visible;enable-background:accumulate"
         id="path3267-1-4-5"
         sodipodi:cx="204.05081"
         sodipodi:cy="266.4635"
         sodipodi:rx="166.67517"
         sodipodi:ry="166.67517"
         d="m 370.72598,266.4635 c 0,92.05216 -74.62301,166.67517 -166.67517,166.67517 -92.05215,0 -166.675169,-74.62301 -166.675169,-166.67517 0,-92.05215 74.623019,-166.67517 166.675169,-166.67517 92.05216,0 166.67517,74.62302 166.67517,166.67517 z" />
      <path
         sodipodi:type="arc"
         style="fill:#3de32f;fill-opacity:1;stroke:none"
         id="path3267-8"
         sodipodi:cx="204.05081"
         sodipodi:cy="266.4635"
         sodipodi:rx="166.67517"
         sodipodi:ry="166.67517"
         d="m 370.72598,266.4635 c 0,92.05216 -74.62301,166.67517 -166.67517,166.67517 -92.05215,0 -166.675169,-74.62301 -166.675169,-166.67517 0,-92.05215 74.623019,-166.67517 166.675169,-166.67517 92.05216,0 166.67517,74.62302 166.67517,166.67517 z"
         transform="matrix(0.08044086,0,0,0.08044086,235.22477,186.07676)" />
      <path
         transform="matrix(0.04826453,0,0,0.04826453,241.79036,194.65053)"
         sodipodi:type="arc"
         style="color:#000000;fill:#2e2ae8;fill-opacity:1;fill-rule:nonzero;stroke:none;marker:none;visibility:visible;display:inline;overflow:visible;enable-background:accumulate"
         id="path3267-1-8"
         sodipodi:cx="204.05081"
         sodipodi:cy="266.4635"
         sodipodi:rx="166.67517"
         sodipodi:ry="166.67517"
         d="m 370.72598,266.4635 c 0,92.05216 -74.62301,166.67517 -166.67517,166.67517 -92.05215,0 -166.675169,-74.62301 -166.675169,-166.67517 0,-92.05215 74.623019,-166.67517 166.675169,-166.67517 92.05216,0 166.67517,74.62302 166.67517,166.67517 z" />
    </g>
    <g
       transform="matrix(0.20708036,0,0,0.20708036,180.13035,153.53513)"
       id="g3072">
      <g
         style="font-style:normal;font-variant:normal;font-weight:normal;font-stretch:normal;letter-spacing:normal;word-spacing:normal;text-anchor:start;fill:none;stroke:#000000;stroke-linecap:butt;stroke-linejoin:miter;stroke-miterlimit:10.43299961;stroke-opacity:1;stroke-dasharray:none;stroke-dashoffset:0"
         word-spacing="normal"
         letter-spacing="normal"
         font-size-adjust="none"
         font-stretch="normal"
         font-weight="normal"
         font-variant="normal"
         font-style="normal"
         stroke-miterlimit="10.433"
         xml:space="preserve"
         transform="matrix(1.0629921,0,0,-1.0629921,-186.02362,789.27165)"
         id="content"><path
           style="fill:#000000;stroke-width:0"
           inkscape:connector-curvature="0"
           id="path3075"
           d="m 472.75,418.45 5.83,6.48 c 0.66,0.71 0.96,1.05 5.1,1.05 v 2.34 c -1.75,-0.11 -4.35,-0.15 -4.6,-0.15 -1.25,0 -3.73,0.11 -5.12,0.15 v -2.34 c 0.68,0 1.29,-0.11 1.89,-0.45 -0.21,-0.3 -0.21,-0.39 -0.41,-0.6 l -4.17,-4.68 -4.89,5.73 h 2 v 2.34 c -1.3,-0.04 -4.44,-0.15 -6.03,-0.15 -1.6,0 -3.85,0.11 -5.49,0.15 v -2.34 h 3.53 l 7.79,-9.17 -6.54,-7.33 c -0.84,-0.94 -2.64,-0.94 -5.03,-0.94 v -2.34 c 1.75,0.09 4.35,0.16 4.58,0.16 1.25,0 4.14,-0.11 5.14,-0.16 v 2.34 c -0.89,0 -1.84,0.25 -1.84,0.55 0,0.05 0,0.09 0.34,0.5 l 4.85,5.42 5.46,-6.47 h -1.93 v -2.34 c 1.29,0.05 4.33,0.16 5.98,0.16 1.6,0 3.83,-0.11 5.47,-0.16 v 2.34 h -3.53 z" /><path
           style="fill:#000000;stroke-width:0"
           inkscape:connector-curvature="0"
           id="path3077"
           d="m 504.26,408.03 -0.01,0.36 -0.02,0.34 -0.04,0.34 -0.06,0.33 -0.07,0.32 -0.09,0.31 -0.1,0.3 -0.11,0.28 -0.13,0.28 -0.14,0.27 -0.16,0.25 -0.16,0.25 -0.18,0.23 -0.19,0.22 -0.2,0.22 -0.21,0.2 -0.22,0.19 -0.23,0.17 -0.24,0.17 -0.25,0.15 -0.25,0.15 -0.27,0.13 -0.27,0.12 -0.27,0.1 -0.29,0.1 -0.29,0.08 -0.3,0.07 -0.3,0.06 -0.3,0.04 -0.31,0.04 -0.32,0.01 -0.32,0.01 c -5.17,0 -10.04,-4.84 -10.04,-9.61 0,-3.48 2.54,-6.09 6.34,-6.09 l 0.03,0.97 c -1.73,0 -3.48,1.12 -3.48,3.87 0,1.42 0.67,4.85 2.03,6.83 1.5,2.16 3.52,3.06 5.08,3.06 1.89,0 3.48,-1.29 3.48,-3.87 0,-0.83 -0.4,-4.28 -1.95,-6.72 -1.31,-2.05 -3.41,-3.17 -5.16,-3.17 h 0 l -0.03,-0.97 c 4.99,0 10,4.59 10,9.61 z" /></g>    </g>
    <path
       inkscape:connector-curvature="0"
       id="path4218"
       d="m 240.16377,14.430442 0,409.111778"
       style="fill:none;stroke:#000000;stroke-width:1px;stroke-linecap:butt;stroke-linejoin:miter;stroke-opacity:1" />
    <path
       inkscape:connector-curvature="0"
       id="path4220"
       d="m 31.314729,218.98633 417.698081,0"
       style="fill:none;stroke:#000000;stroke-width:1px;stroke-linecap:butt;stroke-linejoin:miter;stroke-opacity:1" />
    <path
       inkscape:connector-curvature="0"
       id="path4235"
       d="m 251.38694,219.1181 0,-205.380977"
       style="fill:none;stroke:#000000;stroke-width:1.05959272px;stroke-linecap:butt;stroke-linejoin:miter;stroke-opacity:1" />
    <path
       inkscape:connector-curvature="0"
       id="path4237"
       d="m 258.53994,218.5164 0,-203.977007"
       style="fill:none;stroke:#000000;stroke-width:1.05959272px;stroke-linecap:butt;stroke-linejoin:miter;stroke-opacity:1" />
    <path
       inkscape:connector-curvature="0"
       id="path4239"
       d="m 411.29163,218.91752 0,-205.581532"
       style="fill:none;stroke:#000000;stroke-width:1.05959272px;stroke-linecap:butt;stroke-linejoin:miter;stroke-opacity:1" />
    <path
       inkscape:connector-curvature="0"
       id="path4241"
       d="m 240.65753,28.473579 9.81411,0"
       style="fill:none;stroke:#000000;stroke-width:0.6;stroke-linecap:butt;stroke-linejoin:miter;stroke-opacity:1;marker-start:url(#Arrow1Mstart);marker-end:url(#Arrow2Mend);stroke-miterlimit:4;stroke-dasharray:none" />
    <path
       inkscape:connector-curvature="0"
       id="path4243"
       d="m 240.41777,24.053445 16.92239,0"
       style="fill:none;stroke:#000000;stroke-width:0.6;stroke-linecap:butt;stroke-linejoin:miter;stroke-opacity:1;marker-start:url(#Arrow1Mstart);marker-end:url(#Arrow2Mend);stroke-miterlimit:4;stroke-dasharray:none" />
    <path
       inkscape:connector-curvature="0"
       id="path4245"
       d="m 241.60544,19.985189 168.03536,0"
       style="fill:none;stroke:#000000;stroke-width:0.6;stroke-linecap:butt;stroke-linejoin:miter;stroke-opacity:1;marker-start:url(#Arrow1Mstart);marker-end:url(#Arrow2Mend);stroke-miterlimit:4;stroke-dasharray:none" />
    <g
       id="g5116"
       transform="matrix(0.22876053,0,0,0.22876053,127.92877,-43.097292)">
      <g
         word-spacing="normal"
         letter-spacing="normal"
         font-size-adjust="none"
         font-stretch="normal"
         font-weight="normal"
         font-variant="normal"
         font-style="normal"
         stroke-miterlimit="10.433"
         xml:space="preserve"
         transform="matrix(1.0629921,0,0,-1.0629921,-186.02362,789.27165)"
         id="g5118"
         style="font-style:normal;font-variant:normal;font-weight:normal;font-stretch:normal;letter-spacing:normal;word-spacing:normal;text-anchor:start;fill:none;stroke:#000000;stroke-linecap:butt;stroke-linejoin:miter;stroke-miterlimit:10.43299961;stroke-opacity:1;stroke-dasharray:none;stroke-dashoffset:0"><path
           id="path5120"
           d="m 470.16,438.09 0,0.05 0,0.06 0,0.05 0,0.05 0,0.05 0,0.05 0,0.04 0,0.05 0,0.04 0,0.04 -0.01,0.04 0,0.04 0,0.04 0,0.03 0,0.04 -0.01,0.03 -0.01,0.07 0,0.06 -0.02,0.05 -0.01,0.05 -0.02,0.05 -0.02,0.04 -0.02,0.04 -0.02,0.03 -0.03,0.03 -0.03,0.03 -0.04,0.03 -0.04,0.02 -0.04,0.02 -0.03,0.01 -0.02,0.01 -0.03,0 -0.02,0.01 -0.03,0.01 -0.03,0 -0.03,0.01 -0.03,0 -0.04,0.01 -0.03,0 -0.04,0 -0.03,0.01 -0.04,0 -0.04,0 -0.05,0 -0.04,0 -0.04,0 -0.05,0.01 -0.05,0 -0.05,0 -0.05,0 -0.05,0 c -3.09,-3.19 -7.47,-3.19 -9.06,-3.19 v -1.55 c 1,0 3.93,0 6.51,1.3 v -25.81 c 0,-1.8 -0.14,-2.39 -4.62,-2.39 h -1.6 v -1.55 c 1.75,0.16 6.08,0.16 8.07,0.16 2,0 6.32,0 8.07,-0.16 v 1.55 h -1.59 c -4.48,0 -4.64,0.54 -4.64,2.39 z"
           inkscape:connector-curvature="0"
           style="fill:#000000;stroke-width:0" /><path
           id="path5122"
           d="m 502.35,441.67 0.01,0.03 0.01,0.03 0.02,0.03 0.01,0.03 0.01,0.02 0.01,0.03 0.01,0.03 0,0.02 0.02,0.05 0.02,0.05 0.01,0.04 0.02,0.05 0.01,0.04 0.01,0.04 0.01,0.03 0.01,0.04 0.01,0.03 0.01,0.03 0,0.03 0.01,0.02 0.01,0.03 0,0.02 0.01,0.02 0,0.02 0,0.02 0,0.02 0.01,0.01 0,0.02 0,0.01 0,0.01 0,0.01 0,0.01 0,0.01 0,0.01 0,0.01 0,0 c 0,0.55 -0.45,0.99 -1,0.99 -0.34,0 -0.7,-0.14 -0.84,-0.44 l -17.3,-47.48 c -0.25,-0.64 -0.25,-0.85 -0.25,-0.89 0,-0.55 0.45,-1 1,-1 0.66,0 0.8,0.34 1.09,1.18 z"
           inkscape:connector-curvature="0"
           style="fill:#000000;stroke-width:0" /><path
           id="path5124"
           d="m 531.25,424.78 0.06,0 0.07,0 0.07,0 0.08,0 0.09,0 0.09,0.01 0.09,0 0.1,0.01 0.1,0.01 0.1,0.02 0.1,0.02 0.1,0.02 0.1,0.02 0.1,0.03 0.11,0.03 0.1,0.04 0.09,0.04 0.1,0.05 0.09,0.05 0.09,0.06 0.09,0.07 0.08,0.07 0.04,0.04 0.03,0.04 0.04,0.04 0.03,0.05 0.04,0.04 0.03,0.05 0.03,0.05 0.02,0.05 0.03,0.05 0.02,0.06 0.03,0.06 0.02,0.06 0.01,0.06 0.02,0.06 0.01,0.07 0.01,0.07 0.01,0.07 0.01,0.08 0,0.07 0,0.08 c 0,1.19 -1.04,1.19 -1.93,1.19 h -11.36 c -7.54,0 -13.07,-8.22 -13.07,-14.14 0,-4.39 2.94,-7.88 7.47,-7.88 l 0.06,1.1 c -2.45,0 -4.43,1.79 -4.43,5.37 0,1.5 0.59,5.59 2.34,8.53 2.09,3.44 5.08,4.13 6.77,4.13 4.19,0 4.59,-3.28 4.59,-4.83 0,-2.34 -1,-6.42 -2.69,-8.97 -1.95,-2.94 -4.64,-4.23 -6.58,-4.23 h 0 l -0.06,-1.1 c 5.89,0 12.52,6.03 12.52,13.71 0,0.84 0,3.23 -1.55,5.42 z"
           inkscape:connector-curvature="0"
           style="fill:#000000;stroke-width:0" /><path
           id="path5126"
           d="m 544.88,447.34 0,0 0.01,0.01 0,0 0,0.01 0,0 0,0.01 0.01,0 0,0.01 0,0.01 0,0 0.01,0.02 0,0.02 0.01,0.02 0,0.02 0.01,0.02 0.01,0.02 0,0.02 0.01,0.02 0,0.03 0.01,0.04 0.02,0.05 0,0.02 0.01,0.03 0,0.02 0.01,0.02 0,0.02 0.01,0.02 0,0.01 0,0.02 0,0.01 0.01,0 0,0.01 0,0.01 0,0 0,0.01 0,0 0,0.01 0,0 0,0 0,0.01 0,0 c 0,0.18 -0.14,0.5 -0.56,0.5 -0.7,0 -3.59,-0.28 -4.45,-0.36 -0.28,-0.03 -0.78,-0.07 -0.78,-0.8 0,-0.48 0.5,-0.48 0.9,-0.48 1.67,0 1.67,-0.25 1.67,-0.54 0,-0.23 -0.34,-1.62 -0.54,-2.43 l -0.8,-3.21 c -0.33,-1.18 -2.23,-8.81 -2.31,-9.26 -0.17,-0.85 -0.17,-1.3 -0.17,-1.7 0,-3.54 2.23,-5.75 5.12,-5.75 l 0.03,0.96 c -1.7,0 -2.67,1.5 -2.67,3.57 0,1.28 0.31,2.47 1.28,6.4 0.21,0.66 0.21,0.74 0.88,1.5 1.33,1.53 2.89,2.3 4.14,2.3 1.36,0 2.54,-1.02 2.54,-3.38 0,-1.43 -0.76,-4.98 -1.81,-7.01 -0.84,-1.7 -2.58,-3.38 -4.36,-3.38 h 0 l -0.03,-0.96 c 4.36,0 8.99,4.73 8.99,9.89 0,4.07 -2.82,5.81 -5.22,5.81 -1.82,0 -3.35,-1 -4.39,-1.91 z"
           inkscape:connector-curvature="0"
           style="fill:#000000;stroke-width:0" /><path
           id="path5128"
           d="m 563.03,447.34 0,0 0,0.01 0,0 0,0.01 0.01,0 0,0.01 0,0 0,0.01 0,0.01 0.01,0 0,0.02 0.01,0.02 0,0.02 0.01,0.02 0,0.02 0.01,0.02 0.01,0.02 0,0.02 0.01,0.03 0.01,0.04 0.01,0.05 0.01,0.02 0,0.03 0.01,0.02 0,0.02 0.01,0.02 0,0.02 0,0.01 0.01,0.02 0,0.01 0,0 0,0.01 0,0.01 0,0 0.01,0.01 0,0 0,0.01 0,0 0,0 0,0.01 0,0 c 0,0.18 -0.14,0.5 -0.57,0.5 -0.68,0 -3.59,-0.28 -4.45,-0.36 -0.25,-0.03 -0.73,-0.07 -0.73,-0.8 0,-0.48 0.48,-0.48 0.87,-0.48 1.68,0 1.68,-0.25 1.68,-0.54 0,-0.23 -0.08,-0.45 -0.15,-0.76 l -4.32,-17.2 c -0.11,-0.36 -0.15,-0.74 -0.15,-1.08 0,-2.24 1.99,-3.31 3.66,-3.31 0.84,0 1.89,0.28 2.8,1.84 0.73,1.28 1.22,3.34 1.22,3.48 0,0.46 -0.46,0.46 -0.56,0.46 -0.49,0 -0.55,-0.21 -0.69,-0.85 -0.46,-1.73 -1.13,-3.97 -2.63,-3.97 -0.93,0 -1.17,0.88 -1.17,1.71 0,0.39 0.09,1.04 0.2,1.43 z"
           inkscape:connector-curvature="0"
           style="fill:#000000;stroke-width:0" /><path
           id="path5130"
           d="m 580.77,429.84 -0.01,-0.07 -0.02,-0.07 -0.02,-0.07 -0.02,-0.07 -0.02,-0.08 -0.02,-0.08 -0.02,-0.08 -0.02,-0.09 -0.04,-0.16 -0.04,-0.17 -0.04,-0.17 -0.02,-0.08 -0.02,-0.08 -0.02,-0.08 -0.02,-0.07 -0.02,-0.08 -0.02,-0.07 -0.02,-0.06 -0.01,-0.07 -0.02,-0.06 -0.02,-0.05 -0.01,-0.05 -0.01,-0.05 -0.02,-0.03 -0.01,-0.04 0,-0.01 -0.01,-0.02 0,-0.01 -0.01,-0.01 0,0 -0.01,-0.01 0,0 0,-0.01 c -0.68,-1.08 -2.07,-2.97 -4.22,-2.97 -2.41,0 -2.41,2.27 -2.41,2.89 0,2.07 0.97,4.54 1.95,7.08 0.29,0.71 0.49,1.22 0.49,1.78 0,1.82 -1.53,2.99 -3.31,2.99 -3.49,0 -5.05,-4.77 -5.05,-5.33 0,-0.45 0.48,-0.45 0.59,-0.45 0.49,0 0.52,0.17 0.63,0.56 0.83,2.86 2.37,4.25 3.72,4.25 0.59,0 0.87,-0.39 0.87,-1.22 0,-0.8 -0.28,-1.53 -0.62,-2.33 -1.88,-4.81 -1.88,-5.83 -1.88,-6.76 0,-0.6 0,-2.21 1.28,-3.32 1.02,-0.82 2.38,-1.1 3.6,-1.1 2.18,0 3.37,1.18 4.53,2.29 0.76,-2.23 3.09,-2.29 3.51,-2.29 1.19,0 2.1,0.68 2.75,1.84 0.77,1.36 1.25,3.37 1.25,3.48 0,0.46 -0.48,0.46 -0.57,0.46 -0.5,0 -0.54,-0.14 -0.79,-1.08 -0.4,-1.64 -1.07,-3.74 -2.53,-3.74 -0.9,0 -1.15,0.8 -1.15,1.71 0,0.59 0.28,1.86 0.53,2.76 0.23,0.94 0.58,2.36 0.76,3.13 l 0.8,3.11 c 0.2,0.87 0.59,2.4 0.59,2.58 0,0.68 -0.56,1.1 -1.15,1.1 -1.28,0 -1.53,-1.01 -1.81,-2.12 z"
           inkscape:connector-curvature="0"
           style="fill:#000000;stroke-width:0" /><path
           id="path5132"
           d="m 597.37,432.14 0.1,0 0.1,0 0.12,0 0.12,0 0.14,0 0.14,0.01 0.14,0 0.16,0.01 0.16,0.01 0.17,0.01 0.17,0 0.18,0.02 0.19,0.01 0.18,0.01 0.39,0.04 0.4,0.04 0.4,0.05 0.41,0.06 0.4,0.07 0.4,0.08 0.2,0.04 0.2,0.05 0.19,0.05 0.19,0.05 0.18,0.06 0.18,0.06 c 2.58,0.91 3.06,2.58 3.06,3.63 0,1.92 -1.92,3.06 -4.32,3.06 v -0.97 c 1.53,0 2.82,-0.77 2.82,-2.09 0,-3.38 -5.89,-3.38 -7.39,-3.38 h -1.7 c 1.42,5.05 5.3,5.47 6.27,5.47 v 0.97 c -4.18,0 -9.83,-3.2 -9.83,-9.16 0,-3.51 2.2,-6.54 6.28,-6.54 5.89,0 8.64,3.43 8.64,3.93 0,0.21 -0.31,0.6 -0.59,0.6 -0.21,0 -0.29,-0.08 -0.57,-0.36 -2.72,-3.21 -6.8,-3.21 -7.42,-3.21 -2.09,0 -3.48,1.39 -3.48,4.22 0,0.49 0,1.19 0.42,3.1 z"
           inkscape:connector-curvature="0"
           style="fill:#000000;stroke-width:0" /><path
           id="path5134"
           d="M 542.46,407.61 H 546 c 0.66,0 1.11,0 1.11,0.76 0,0.49 -0.45,0.49 -1.03,0.49 h -3.31 l 1.28,5.15 c 0.03,0.17 0.11,0.35 0.11,0.49 0,0.64 -0.48,1.12 -1.19,1.12 -0.87,0 -1.39,-0.59 -1.64,-1.5 -0.23,-0.87 0.22,0.8 -1.33,-5.26 h -3.54 c -0.66,0 -1.11,0 -1.11,-0.77 0,-0.48 0.4,-0.48 1.05,-0.48 h 3.29 l -2.04,-8.22 c -0.22,-0.88 -0.54,-2.13 -0.54,-2.58 0,-2.06 1.75,-3.31 3.74,-3.31 3.87,0 6.06,4.87 6.06,5.32 0,0.46 -0.45,0.46 -0.56,0.46 -0.41,0 -0.45,-0.08 -0.72,-0.66 -0.98,-2.2 -2.77,-4.16 -4.67,-4.16 -0.74,0 -1.22,0.46 -1.22,1.71 0,0.36 0.14,1.09 0.2,1.44 z"
           inkscape:connector-curvature="0"
           style="fill:#000000;stroke-width:0" /><path
           id="path5136"
           d="m 557.07,400.87 0,0.01 0,0.02 0.01,0.02 0,0.02 0.01,0.03 0,0.03 0.01,0.04 0.01,0.04 0.01,0.04 0.01,0.05 0.01,0.04 0.02,0.05 0.01,0.06 0.01,0.05 0.03,0.12 0.03,0.13 0.04,0.13 0.03,0.14 0.04,0.15 0.04,0.15 0.04,0.15 0.08,0.31 0.08,0.32 0.04,0.15 0.04,0.15 0.03,0.14 0.04,0.14 0.04,0.13 0.03,0.13 0.03,0.11 0.01,0.06 0.02,0.05 0.01,0.05 0.01,0.05 0.02,0.04 0.01,0.04 0.01,0.04 0.01,0.03 0.01,0.03 0,0.03 0.01,0.02 0,0.02 0.01,0.01 0,0.01 c 0.08,0.28 1.08,2.02 2.21,2.86 0.37,0.27 1.31,0.97 2.81,0.97 0.34,0 1.22,-0.03 1.92,-0.48 -1.13,-0.32 -1.53,-1.3 -1.53,-1.93 0,-0.76 0.59,-1.28 1.39,-1.28 0.8,0 1.95,0.66 1.95,2.13 0,1.81 -1.92,2.53 -3.7,2.53 -1.81,0 -3.37,-0.72 -4.91,-2.47 -0.62,2.13 -2.75,2.47 -3.59,2.47 -1.28,0 -2.16,-0.8 -2.72,-1.77 -0.8,-1.36 -1.28,-3.39 -1.28,-3.56 0,-0.45 0.48,-0.45 0.59,-0.45 0.49,0 0.52,0.11 0.77,1.04 0.52,2.13 1.19,3.77 2.55,3.77 0.9,0 1.14,-0.77 1.14,-1.7 0,-0.67 -0.32,-1.96 -0.57,-2.89 -0.23,-0.96 -0.57,-2.38 -0.76,-3.14 l -1.11,-4.47 c -0.14,-0.44 -0.35,-1.32 -0.35,-1.42 0,-0.77 0.63,-1.11 1.19,-1.11 0.52,0 1.22,0.31 1.49,1 0.07,0.21 0.45,1.75 0.67,2.62 z"
           inkscape:connector-curvature="0"
           style="fill:#000000;stroke-width:0" /></g>    </g>
    <g
       id="g5260"
       transform="matrix(0.22876053,0,0,0.22876053,176.29368,-72.079203)">
      <g
         id="g5262"
         transform="matrix(1.0629921,0,0,-1.0629921,-186.02362,789.27165)"
         xml:space="preserve"
         stroke-miterlimit="10.433"
         font-style="normal"
         font-variant="normal"
         font-weight="normal"
         font-stretch="normal"
         font-size-adjust="none"
         letter-spacing="normal"
         word-spacing="normal"
         style="font-style:normal;font-variant:normal;font-weight:normal;font-stretch:normal;letter-spacing:normal;word-spacing:normal;text-anchor:start;fill:none;stroke:#000000;stroke-linecap:butt;stroke-linejoin:miter;stroke-miterlimit:10.43299961;stroke-opacity:1;stroke-dasharray:none;stroke-dashoffset:0"><path
           d="m 470.16,438.09 0,0.05 0,0.06 0,0.05 0,0.05 0,0.05 0,0.05 0,0.04 0,0.05 0,0.04 0,0.04 -0.01,0.04 0,0.04 0,0.04 0,0.03 0,0.04 -0.01,0.03 -0.01,0.07 0,0.06 -0.02,0.05 -0.01,0.05 -0.02,0.05 -0.02,0.04 -0.02,0.04 -0.02,0.03 -0.03,0.03 -0.03,0.03 -0.04,0.03 -0.04,0.02 -0.04,0.02 -0.03,0.01 -0.02,0.01 -0.03,0 -0.02,0.01 -0.03,0.01 -0.03,0 -0.03,0.01 -0.03,0 -0.04,0.01 -0.03,0 -0.04,0 -0.03,0.01 -0.04,0 -0.04,0 -0.05,0 -0.04,0 -0.04,0 -0.05,0.01 -0.05,0 -0.05,0 -0.05,0 -0.05,0 c -3.09,-3.19 -7.47,-3.19 -9.06,-3.19 v -1.55 c 1,0 3.93,0 6.51,1.3 v -25.81 c 0,-1.8 -0.14,-2.39 -4.62,-2.39 h -1.6 v -1.55 c 1.75,0.16 6.08,0.16 8.07,0.16 2,0 6.32,0 8.07,-0.16 v 1.55 h -1.59 c -4.48,0 -4.64,0.54 -4.64,2.39 z"
           id="path5264"
           inkscape:connector-curvature="0"
           style="fill:#000000;stroke-width:0" /><path
           d="m 502.35,441.67 0.01,0.03 0.01,0.03 0.02,0.03 0.01,0.03 0.01,0.02 0.01,0.03 0.01,0.03 0,0.02 0.02,0.05 0.02,0.05 0.01,0.04 0.02,0.05 0.01,0.04 0.01,0.04 0.01,0.03 0.01,0.04 0.01,0.03 0.01,0.03 0,0.03 0.01,0.02 0.01,0.03 0,0.02 0.01,0.02 0,0.02 0,0.02 0,0.02 0.01,0.01 0,0.02 0,0.01 0,0.01 0,0.01 0,0.01 0,0.01 0,0.01 0,0.01 0,0 c 0,0.55 -0.45,0.99 -1,0.99 -0.34,0 -0.7,-0.14 -0.84,-0.44 l -17.3,-47.48 c -0.25,-0.64 -0.25,-0.85 -0.25,-0.89 0,-0.55 0.45,-1 1,-1 0.66,0 0.8,0.34 1.09,1.18 z"
           id="path5266"
           inkscape:connector-curvature="0"
           style="fill:#000000;stroke-width:0" /><path
           d="m 531.25,424.78 0.06,0 0.07,0 0.07,0 0.08,0 0.09,0 0.09,0.01 0.09,0 0.1,0.01 0.1,0.01 0.1,0.02 0.1,0.02 0.1,0.02 0.1,0.02 0.1,0.03 0.11,0.03 0.1,0.04 0.09,0.04 0.1,0.05 0.09,0.05 0.09,0.06 0.09,0.07 0.08,0.07 0.04,0.04 0.03,0.04 0.04,0.04 0.03,0.05 0.04,0.04 0.03,0.05 0.03,0.05 0.02,0.05 0.03,0.05 0.02,0.06 0.03,0.06 0.02,0.06 0.01,0.06 0.02,0.06 0.01,0.07 0.01,0.07 0.01,0.07 0.01,0.08 0,0.07 0,0.08 c 0,1.19 -1.04,1.19 -1.93,1.19 h -11.36 c -7.54,0 -13.07,-8.22 -13.07,-14.14 0,-4.39 2.94,-7.88 7.47,-7.88 l 0.06,1.1 c -2.45,0 -4.43,1.79 -4.43,5.37 0,1.5 0.59,5.59 2.34,8.53 2.09,3.44 5.08,4.13 6.77,4.13 4.19,0 4.59,-3.28 4.59,-4.83 0,-2.34 -1,-6.42 -2.69,-8.97 -1.95,-2.94 -4.64,-4.23 -6.58,-4.23 h 0 l -0.06,-1.1 c 5.89,0 12.52,6.03 12.52,13.71 0,0.84 0,3.23 -1.55,5.42 z"
           id="path5268"
           inkscape:connector-curvature="0"
           style="fill:#000000;stroke-width:0" /><path
           d="m 554.21,442.94 0.01,0.05 0.02,0.04 0.01,0.04 0.01,0.05 0.01,0.04 0.01,0.03 0,0.04 0.01,0.03 0.01,0.04 0.01,0.03 0,0.03 0.01,0.02 0,0.03 0.01,0.03 0,0.02 0,0.02 0.01,0.02 0,0.02 0,0.02 0,0.01 0.01,0.02 0,0.01 0,0.02 0,0.01 0,0.01 0,0.01 0,0.01 0,0.01 0,0.01 0,0 0,0.01 0,0 c 0,0.77 -0.62,1.11 -1.19,1.11 -0.79,0 -1.45,-0.65 -1.59,-1.33 -0.59,0.96 -1.78,1.99 -3.59,1.99 v -0.97 c 2.43,0 3.11,-2.61 3.11,-2.97 0,-0.06 0,-0.12 -0.11,-0.52 l -1.57,-6.26 c -0.14,-0.53 -0.14,-0.59 -0.73,-1.3 -1.22,-1.47 -2.89,-2.37 -4.22,-2.37 -1.78,0 -2.61,1.5 -2.61,3.31 0,1.53 0.94,5.44 1.85,6.97 1.46,2.44 3.09,3.14 4.28,3.14 v 0.97 c -4.36,0 -8.93,-4.66 -8.93,-9.64 0,-3.6 2.44,-5.72 5.3,-5.72 1.61,0 3.14,0.8 4.36,1.87 l -0.76,-3.12 c -0.4,-1.47 -0.63,-2.41 -1.96,-3.6 -1.53,-1.28 -3.03,-1.28 -3.9,-1.28 -1.6,0 -2.05,0.1 -2.68,0.24 0.86,0.42 1.11,1.25 1.11,1.75 0,0.83 -0.65,1.28 -1.36,1.28 -0.96,0 -1.98,-0.8 -1.98,-2.13 0,-2.09 3,-2.12 4.95,-2.12 5.47,0 7.8,2.78 8.28,4.78 z"
           id="path5270"
           inkscape:connector-curvature="0"
           style="fill:#000000;stroke-width:0" /><path
           d="m 564.5,437.11 0.01,0.01 0,0.02 0,0.02 0.01,0.02 0,0.03 0.01,0.03 0.01,0.04 0.01,0.04 0.01,0.04 0.01,0.04 0.01,0.05 0.01,0.05 0.02,0.05 0.01,0.06 0.03,0.12 0.03,0.13 0.04,0.13 0.03,0.14 0.04,0.15 0.04,0.15 0.04,0.15 0.08,0.31 0.08,0.31 0.04,0.16 0.03,0.15 0.04,0.14 0.04,0.14 0.03,0.13 0.04,0.13 0.03,0.11 0.01,0.06 0.02,0.05 0.01,0.05 0.01,0.05 0.01,0.04 0.01,0.04 0.01,0.04 0.01,0.03 0.01,0.03 0.01,0.03 0.01,0.02 0,0.02 0.01,0.01 0,0.01 c 0.08,0.28 1.08,2.02 2.2,2.86 0.38,0.27 1.32,0.97 2.82,0.97 0.34,0 1.22,-0.03 1.92,-0.49 -1.13,-0.31 -1.53,-1.29 -1.53,-1.92 0,-0.76 0.59,-1.28 1.39,-1.28 0.79,0 1.95,0.66 1.95,2.13 0,1.81 -1.92,2.53 -3.7,2.53 -1.81,0 -3.38,-0.72 -4.91,-2.47 -0.62,2.12 -2.75,2.47 -3.59,2.47 -1.28,0 -2.16,-0.8 -2.72,-1.77 -0.8,-1.36 -1.28,-3.39 -1.28,-3.56 0,-0.45 0.48,-0.45 0.59,-0.45 0.48,0 0.52,0.11 0.77,1.04 0.51,2.13 1.18,3.77 2.54,3.77 0.91,0 1.14,-0.77 1.14,-1.7 0,-0.68 -0.31,-1.96 -0.56,-2.89 -0.23,-0.96 -0.58,-2.38 -0.76,-3.15 l -1.11,-4.46 c -0.14,-0.44 -0.35,-1.32 -0.35,-1.43 0,-0.76 0.63,-1.11 1.19,-1.11 0.52,0 1.22,0.32 1.49,1 0.07,0.22 0.45,1.75 0.67,2.63 z"
           id="path5272"
           inkscape:connector-curvature="0"
           style="fill:#000000;stroke-width:0" /><path
           d="m 583.69,438.02 0.09,0 0.11,0 0.12,0 0.12,0 0.13,0 0.14,0.01 0.15,0 0.16,0.01 0.16,0.01 0.17,0 0.17,0.01 0.18,0.02 0.18,0.01 0.19,0.01 0.39,0.04 0.39,0.04 0.41,0.05 0.4,0.06 0.41,0.07 0.4,0.08 0.2,0.04 0.19,0.05 0.19,0.05 0.19,0.05 0.19,0.06 0.18,0.06 c 2.58,0.91 3.06,2.58 3.06,3.63 0,1.92 -1.92,3.06 -4.33,3.06 v -0.97 c 1.53,0 2.83,-0.77 2.83,-2.09 0,-3.38 -5.89,-3.38 -7.39,-3.38 h -1.7 c 1.42,5.05 5.29,5.47 6.26,5.47 v 0.97 c -4.17,0 -9.83,-3.21 -9.83,-9.16 0,-3.51 2.21,-6.55 6.28,-6.55 5.9,0 8.65,3.44 8.65,3.94 0,0.21 -0.32,0.6 -0.6,0.6 -0.2,0 -0.28,-0.08 -0.56,-0.36 -2.72,-3.21 -6.8,-3.21 -7.42,-3.21 -2.1,0 -3.49,1.39 -3.49,4.22 0,0.49 0,1.19 0.42,3.1 z"
           id="path5274"
           inkscape:connector-curvature="0"
           style="fill:#000000;stroke-width:0" /><path
           d="m 602.53,438.02 0.09,0 0.11,0 0.11,0 0.13,0 0.13,0 0.14,0.01 0.15,0 0.16,0.01 0.16,0.01 0.17,0 0.17,0.01 0.18,0.02 0.18,0.01 0.19,0.01 0.39,0.04 0.39,0.04 0.41,0.05 0.4,0.06 0.41,0.07 0.4,0.08 0.2,0.04 0.19,0.05 0.19,0.05 0.19,0.05 0.19,0.06 0.18,0.06 c 2.58,0.91 3.06,2.58 3.06,3.63 0,1.92 -1.92,3.06 -4.33,3.06 v -0.97 c 1.53,0 2.83,-0.77 2.83,-2.09 0,-3.38 -5.89,-3.38 -7.39,-3.38 h -1.71 c 1.43,5.05 5.3,5.47 6.27,5.47 v 0.97 c -4.17,0 -9.83,-3.21 -9.83,-9.16 0,-3.51 2.21,-6.55 6.28,-6.55 5.9,0 8.65,3.44 8.65,3.94 0,0.21 -0.32,0.6 -0.6,0.6 -0.2,0 -0.28,-0.08 -0.56,-0.36 -2.72,-3.21 -6.8,-3.21 -7.42,-3.21 -2.1,0 -3.49,1.39 -3.49,4.22 0,0.49 0,1.19 0.42,3.1 z"
           id="path5276"
           inkscape:connector-curvature="0"
           style="fill:#000000;stroke-width:0" /><path
           d="m 617.8,432.27 -0.01,-0.05 -0.01,-0.04 -0.02,-0.05 -0.01,-0.05 -0.01,-0.05 -0.02,-0.05 -0.01,-0.05 -0.02,-0.06 -0.03,-0.11 -0.03,-0.11 -0.02,-0.11 -0.03,-0.11 -0.01,-0.05 -0.01,-0.05 -0.02,-0.05 -0.01,-0.05 -0.01,-0.05 -0.01,-0.05 -0.01,-0.04 -0.01,-0.04 0,-0.04 -0.01,-0.03 -0.01,-0.03 0,-0.03 0,-0.03 -0.01,-0.02 0,-0.01 0,0 0,-0.01 0,-0.01 c 0,-0.76 0.63,-1.11 1.19,-1.11 0.62,0 1.17,0.46 1.36,0.77 0.17,0.31 0.45,1.42 0.62,2.16 0.17,0.65 0.55,2.26 0.77,3.14 0.2,0.76 0.42,1.53 0.59,2.33 0.38,1.43 0.46,1.7 1.46,3.14 0.98,1.39 2.62,3.2 5.23,3.2 2.02,0 2.05,-1.78 2.05,-2.44 0,-2.09 -1.49,-5.95 -2.05,-7.42 -0.39,-0.98 -0.53,-1.3 -0.53,-1.89 0,-1.84 1.55,-2.99 3.31,-2.99 3.49,0 5.02,4.8 5.02,5.33 0,0.46 -0.46,0.46 -0.55,0.46 -0.5,0 -0.53,-0.21 -0.67,-0.6 -0.8,-2.78 -2.3,-4.22 -3.69,-4.22 -0.73,0 -0.87,0.49 -0.87,1.22 0,0.8 0.17,1.25 0.79,2.83 0.42,1.08 1.86,4.77 1.86,6.72 0,3.39 -2.69,3.97 -4.53,3.97 -2.89,0 -4.84,-1.77 -5.89,-3.16 -0.25,2.39 -2.3,3.16 -3.73,3.16 -1.5,0 -2.3,-1.08 -2.75,-1.88 -0.77,-1.28 -1.25,-3.28 -1.25,-3.45 0,-0.45 0.48,-0.45 0.59,-0.45 0.48,0 0.51,0.11 0.76,1.04 0.52,2.07 1.19,3.77 2.55,3.77 0.91,0 1.14,-0.77 1.14,-1.7 0,-0.68 -0.31,-1.96 -0.56,-2.89 -0.23,-0.96 -0.58,-2.38 -0.77,-3.15 z"
           id="path5278"
           inkscape:connector-curvature="0"
           style="fill:#000000;stroke-width:0" /><path
           d="M 542.46,407.73 H 546 c 0.66,0 1.11,0 1.11,0.76 0,0.49 -0.45,0.49 -1.03,0.49 h -3.31 l 1.28,5.15 c 0.03,0.17 0.11,0.35 0.11,0.49 0,0.64 -0.48,1.12 -1.19,1.12 -0.87,0 -1.39,-0.59 -1.64,-1.5 -0.23,-0.87 0.22,0.8 -1.33,-5.26 h -3.54 c -0.66,0 -1.11,0 -1.11,-0.77 0,-0.48 0.4,-0.48 1.05,-0.48 h 3.29 l -2.04,-8.22 c -0.22,-0.88 -0.54,-2.13 -0.54,-2.58 0,-2.06 1.75,-3.31 3.74,-3.31 3.87,0 6.06,4.87 6.06,5.33 0,0.45 -0.45,0.45 -0.56,0.45 -0.41,0 -0.45,-0.08 -0.72,-0.66 -0.98,-2.2 -2.77,-4.15 -4.67,-4.15 -0.74,0 -1.22,0.45 -1.22,1.7 0,0.36 0.14,1.09 0.2,1.44 z"
           id="path5280"
           inkscape:connector-curvature="0"
           style="fill:#000000;stroke-width:0" /><path
           d="m 557.07,400.99 0,0.01 0,0.02 0.01,0.02 0,0.03 0.01,0.02 0,0.04 0.01,0.03 0.01,0.04 0.01,0.04 0.01,0.05 0.01,0.04 0.02,0.05 0.01,0.06 0.01,0.05 0.03,0.12 0.03,0.13 0.04,0.13 0.03,0.14 0.04,0.15 0.04,0.15 0.04,0.15 0.08,0.32 0.08,0.31 0.04,0.15 0.04,0.15 0.03,0.14 0.04,0.14 0.04,0.14 0.03,0.12 0.03,0.12 0.01,0.05 0.02,0.05 0.01,0.05 0.01,0.05 0.02,0.04 0.01,0.04 0.01,0.04 0.01,0.03 0.01,0.03 0,0.03 0.01,0.02 0,0.02 0.01,0.01 0,0.01 c 0.08,0.28 1.08,2.02 2.21,2.86 0.37,0.27 1.31,0.97 2.81,0.97 0.34,0 1.22,-0.03 1.92,-0.48 -1.13,-0.32 -1.53,-1.3 -1.53,-1.92 0,-0.77 0.59,-1.29 1.39,-1.29 0.8,0 1.95,0.66 1.95,2.13 0,1.81 -1.92,2.53 -3.7,2.53 -1.81,0 -3.37,-0.72 -4.91,-2.47 -0.62,2.13 -2.75,2.47 -3.59,2.47 -1.28,0 -2.16,-0.8 -2.72,-1.77 -0.8,-1.35 -1.28,-3.39 -1.28,-3.56 0,-0.45 0.48,-0.45 0.59,-0.45 0.49,0 0.52,0.11 0.77,1.05 0.52,2.12 1.19,3.76 2.55,3.76 0.9,0 1.14,-0.76 1.14,-1.7 0,-0.67 -0.32,-1.95 -0.57,-2.89 -0.23,-0.96 -0.57,-2.38 -0.76,-3.14 l -1.11,-4.47 c -0.14,-0.44 -0.35,-1.31 -0.35,-1.42 0,-0.77 0.63,-1.11 1.19,-1.11 0.52,0 1.22,0.31 1.49,1 0.07,0.22 0.45,1.75 0.67,2.62 z"
           id="path5282"
           inkscape:connector-curvature="0"
           style="fill:#000000;stroke-width:0" /></g>    </g>
    <g
       id="g5430"
       transform="matrix(0.22876053,0,0,0.22876053,247.38295,-70.674456)">
      <g
         word-spacing="normal"
         letter-spacing="normal"
         font-size-adjust="none"
         font-stretch="normal"
         font-weight="normal"
         font-variant="normal"
         font-style="normal"
         stroke-miterlimit="10.433"
         xml:space="preserve"
         transform="matrix(1.0629921,0,0,-1.0629921,-186.02362,789.27165)"
         id="g5432"
         style="font-style:normal;font-variant:normal;font-weight:normal;font-stretch:normal;letter-spacing:normal;word-spacing:normal;text-anchor:start;fill:none;stroke:#000000;stroke-linecap:butt;stroke-linejoin:miter;stroke-miterlimit:10.43299961;stroke-opacity:1;stroke-dasharray:none;stroke-dashoffset:0"><path
           id="path5434"
           d="m 470.16,438.09 0,0.05 0,0.06 0,0.05 0,0.05 0,0.05 0,0.05 0,0.04 0,0.05 0,0.04 0,0.04 -0.01,0.04 0,0.04 0,0.04 0,0.03 0,0.04 -0.01,0.03 -0.01,0.07 0,0.06 -0.02,0.05 -0.01,0.05 -0.02,0.05 -0.02,0.04 -0.02,0.04 -0.02,0.03 -0.03,0.03 -0.03,0.03 -0.04,0.03 -0.04,0.02 -0.04,0.02 -0.03,0.01 -0.02,0.01 -0.03,0 -0.02,0.01 -0.03,0.01 -0.03,0 -0.03,0.01 -0.03,0 -0.04,0.01 -0.03,0 -0.04,0 -0.03,0.01 -0.04,0 -0.04,0 -0.05,0 -0.04,0 -0.04,0 -0.05,0.01 -0.05,0 -0.05,0 -0.05,0 -0.05,0 c -3.09,-3.19 -7.47,-3.19 -9.06,-3.19 v -1.55 c 1,0 3.93,0 6.51,1.3 v -25.81 c 0,-1.8 -0.14,-2.39 -4.62,-2.39 h -1.6 v -1.55 c 1.75,0.16 6.08,0.16 8.07,0.16 2,0 6.32,0 8.07,-0.16 v 1.55 h -1.59 c -4.48,0 -4.64,0.54 -4.64,2.39 z"
           inkscape:connector-curvature="0"
           style="fill:#000000;stroke-width:0" /><path
           id="path5436"
           d="m 502.35,441.67 0.01,0.03 0.01,0.03 0.02,0.03 0.01,0.03 0.01,0.02 0.01,0.03 0.01,0.03 0,0.02 0.02,0.05 0.02,0.05 0.01,0.04 0.02,0.05 0.01,0.04 0.01,0.04 0.01,0.03 0.01,0.04 0.01,0.03 0.01,0.03 0,0.03 0.01,0.02 0.01,0.03 0,0.02 0.01,0.02 0,0.02 0,0.02 0,0.02 0.01,0.01 0,0.02 0,0.01 0,0.01 0,0.01 0,0.01 0,0.01 0,0.01 0,0.01 0,0 c 0,0.55 -0.45,0.99 -1,0.99 -0.34,0 -0.7,-0.14 -0.84,-0.44 l -17.3,-47.48 c -0.25,-0.64 -0.25,-0.85 -0.25,-0.89 0,-0.55 0.45,-1 1,-1 0.66,0 0.8,0.34 1.09,1.18 z"
           inkscape:connector-curvature="0"
           style="fill:#000000;stroke-width:0" /><path
           id="path5438"
           d="m 531.25,424.78 0.06,0 0.07,0 0.07,0 0.08,0 0.09,0 0.09,0.01 0.09,0 0.1,0.01 0.1,0.01 0.1,0.02 0.1,0.02 0.1,0.02 0.1,0.02 0.1,0.03 0.11,0.03 0.1,0.04 0.09,0.04 0.1,0.05 0.09,0.05 0.09,0.06 0.09,0.07 0.08,0.07 0.04,0.04 0.03,0.04 0.04,0.04 0.03,0.05 0.04,0.04 0.03,0.05 0.03,0.05 0.02,0.05 0.03,0.05 0.02,0.06 0.03,0.06 0.02,0.06 0.01,0.06 0.02,0.06 0.01,0.07 0.01,0.07 0.01,0.07 0.01,0.08 0,0.07 0,0.08 c 0,1.19 -1.04,1.19 -1.93,1.19 h -11.36 c -7.54,0 -13.07,-8.22 -13.07,-14.14 0,-4.39 2.94,-7.88 7.47,-7.88 l 0.06,1.1 c -2.45,0 -4.43,1.79 -4.43,5.37 0,1.5 0.59,5.59 2.34,8.53 2.09,3.44 5.08,4.13 6.77,4.13 4.19,0 4.59,-3.28 4.59,-4.83 0,-2.34 -1,-6.42 -2.69,-8.97 -1.95,-2.94 -4.64,-4.23 -6.58,-4.23 h 0 l -0.06,-1.1 c 5.89,0 12.52,6.03 12.52,13.71 0,0.84 0,3.23 -1.55,5.42 z"
           inkscape:connector-curvature="0"
           style="fill:#000000;stroke-width:0" /><path
           id="path5440"
           d="m 543.87,431.23 0,0.01 0,0.02 0.01,0.02 0,0.02 0.01,0.03 0.01,0.03 0,0.04 0.01,0.04 0.01,0.04 0.01,0.04 0.01,0.05 0.02,0.05 0.01,0.06 0.01,0.05 0.03,0.12 0.03,0.13 0.04,0.13 0.03,0.14 0.04,0.15 0.04,0.15 0.04,0.15 0.08,0.31 0.08,0.31 0.04,0.16 0.04,0.15 0.04,0.14 0.03,0.14 0.04,0.13 0.03,0.13 0.03,0.11 0.02,0.06 0.01,0.05 0.01,0.05 0.01,0.05 0.02,0.04 0.01,0.04 0.01,0.04 0.01,0.03 0.01,0.03 0,0.03 0.01,0.02 0.01,0.02 0,0.01 0,0.01 c 0.08,0.28 1.08,2.02 2.21,2.86 0.37,0.27 1.31,0.97 2.81,0.97 0.34,0 1.22,-0.03 1.92,-0.48 -1.12,-0.32 -1.53,-1.3 -1.53,-1.93 0,-0.76 0.59,-1.28 1.39,-1.28 0.8,0 1.95,0.66 1.95,2.13 0,1.81 -1.92,2.53 -3.7,2.53 -1.81,0 -3.37,-0.72 -4.91,-2.47 -0.62,2.12 -2.75,2.47 -3.59,2.47 -1.28,0 -2.16,-0.8 -2.72,-1.77 -0.8,-1.36 -1.28,-3.39 -1.28,-3.56 0,-0.45 0.48,-0.45 0.59,-0.45 0.49,0 0.52,0.11 0.77,1.04 0.52,2.13 1.19,3.77 2.55,3.77 0.9,0 1.14,-0.77 1.14,-1.7 0,-0.68 -0.32,-1.96 -0.57,-2.89 -0.23,-0.96 -0.57,-2.38 -0.76,-3.14 l -1.11,-4.47 c -0.14,-0.44 -0.34,-1.32 -0.34,-1.43 0,-0.76 0.62,-1.1 1.18,-1.1 0.52,0 1.22,0.31 1.49,1 0.08,0.21 0.45,1.75 0.67,2.62 z"
           inkscape:connector-curvature="0"
           style="fill:#000000;stroke-width:0" /><path
           id="path5442"
           d="m 563.05,432.14 0.1,0 0.1,0 0.12,0 0.12,0 0.14,0 0.14,0.01 0.14,0 0.16,0.01 0.16,0.01 0.17,0.01 0.17,0 0.18,0.02 0.19,0.01 0.18,0.01 0.39,0.04 0.4,0.04 0.4,0.05 0.41,0.06 0.4,0.07 0.4,0.08 0.2,0.04 0.2,0.05 0.19,0.05 0.19,0.05 0.18,0.06 0.18,0.06 c 2.58,0.91 3.06,2.58 3.06,3.63 0,1.92 -1.92,3.06 -4.32,3.06 v -0.97 c 1.53,0 2.82,-0.77 2.82,-2.09 0,-3.38 -5.89,-3.38 -7.39,-3.38 h -1.7 c 1.42,5.05 5.3,5.47 6.27,5.47 v 0.97 c -4.18,0 -9.83,-3.2 -9.83,-9.16 0,-3.51 2.2,-6.54 6.28,-6.54 5.89,0 8.64,3.43 8.64,3.93 0,0.21 -0.31,0.6 -0.59,0.6 -0.21,0 -0.29,-0.08 -0.57,-0.36 -2.72,-3.21 -6.8,-3.21 -7.42,-3.21 -2.09,0 -3.48,1.39 -3.48,4.22 0,0.49 0,1.19 0.42,3.1 z"
           inkscape:connector-curvature="0"
           style="fill:#000000;stroke-width:0" /><path
           id="path5444"
           d="m 593.97,447.34 0,0 0,0.01 0.01,0 0,0.01 0,0 0,0.01 0.01,0 0,0.01 0,0.01 0,0 0.01,0.02 0,0.02 0.01,0.02 0.01,0.02 0,0.02 0.01,0.02 0,0.02 0.01,0.02 0.01,0.03 0.01,0.04 0,0.03 0.01,0.02 0,0.02 0.01,0.03 0,0.02 0.01,0.02 0,0.02 0,0.02 0.01,0.01 0,0.02 0,0.01 0,0 0,0.01 0,0.01 0.01,0 0,0.01 0,0 0,0.01 0,0 0,0 0,0.01 0,0 c 0,0.18 -0.14,0.5 -0.55,0.5 -0.7,0 -3.59,-0.28 -4.47,-0.36 -0.28,-0.03 -0.76,-0.07 -0.76,-0.8 0,-0.48 0.48,-0.48 0.9,-0.48 1.68,0 1.68,-0.25 1.68,-0.54 0,-0.23 -0.07,-0.45 -0.14,-0.76 l -1.99,-7.94 c -0.73,1.14 -1.92,2.05 -3.59,2.05 v -0.97 c 2.44,0 3.11,-2.64 3.11,-3.03 0,-0.14 -0.08,-0.39 -0.11,-0.49 l -1.64,-6.51 c -0.24,-0.99 -1,-1.67 -1.77,-2.35 -0.31,-0.26 -1.72,-1.39 -3.22,-1.39 -1.28,0 -2.53,0.91 -2.53,3.38 0,1.86 1,5.69 1.81,7.08 1.6,2.79 3.38,3.31 4.35,3.31 v 0.97 c -4.46,0 -8.99,-4.91 -8.99,-9.92 0,-3.38 2.27,-5.78 5.27,-5.78 1.87,0 3.55,1.07 4.94,2.43 0.67,-2.09 2.68,-2.43 3.59,-2.43 1.25,0 2.13,0.76 2.75,1.84 0.77,1.36 1.22,3.34 1.22,3.48 0,0.46 -0.45,0.46 -0.55,0.46 -0.5,0 -0.53,-0.14 -0.76,-1.08 -0.43,-1.67 -1.1,-3.74 -2.55,-3.74 -0.91,0 -1.16,0.77 -1.16,1.71 0,0.67 0.08,0.98 0.18,1.43 z"
           inkscape:connector-curvature="0"
           style="fill:#000000;stroke-width:0" /><path
           id="path5446"
           d="M 542.46,407.61 H 546 c 0.66,0 1.11,0 1.11,0.76 0,0.49 -0.45,0.49 -1.03,0.49 h -3.31 l 1.28,5.15 c 0.03,0.17 0.11,0.35 0.11,0.49 0,0.64 -0.48,1.12 -1.19,1.12 -0.87,0 -1.39,-0.59 -1.64,-1.5 -0.23,-0.87 0.22,0.8 -1.33,-5.26 h -3.54 c -0.66,0 -1.11,0 -1.11,-0.77 0,-0.48 0.4,-0.48 1.05,-0.48 h 3.29 l -2.04,-8.22 c -0.22,-0.88 -0.54,-2.13 -0.54,-2.58 0,-2.06 1.75,-3.31 3.74,-3.31 3.87,0 6.06,4.87 6.06,5.32 0,0.46 -0.45,0.46 -0.56,0.46 -0.41,0 -0.45,-0.08 -0.72,-0.66 -0.98,-2.2 -2.77,-4.16 -4.67,-4.16 -0.74,0 -1.22,0.46 -1.22,1.71 0,0.36 0.14,1.09 0.2,1.44 z"
           inkscape:connector-curvature="0"
           style="fill:#000000;stroke-width:0" /><path
           id="path5448"
           d="m 557.07,400.87 0,0.01 0,0.02 0.01,0.02 0,0.02 0.01,0.03 0,0.03 0.01,0.04 0.01,0.04 0.01,0.04 0.01,0.05 0.01,0.04 0.02,0.05 0.01,0.06 0.01,0.05 0.03,0.12 0.03,0.13 0.04,0.13 0.03,0.14 0.04,0.15 0.04,0.15 0.04,0.15 0.08,0.31 0.08,0.32 0.04,0.15 0.04,0.15 0.03,0.14 0.04,0.14 0.04,0.13 0.03,0.13 0.03,0.11 0.01,0.06 0.02,0.05 0.01,0.05 0.01,0.05 0.02,0.04 0.01,0.04 0.01,0.04 0.01,0.03 0.01,0.03 0,0.03 0.01,0.02 0,0.02 0.01,0.01 0,0.01 c 0.08,0.28 1.08,2.02 2.21,2.86 0.37,0.27 1.31,0.97 2.81,0.97 0.34,0 1.22,-0.03 1.92,-0.48 -1.13,-0.32 -1.53,-1.3 -1.53,-1.93 0,-0.76 0.59,-1.28 1.39,-1.28 0.8,0 1.95,0.66 1.95,2.13 0,1.81 -1.92,2.53 -3.7,2.53 -1.81,0 -3.37,-0.72 -4.91,-2.47 -0.62,2.13 -2.75,2.47 -3.59,2.47 -1.28,0 -2.16,-0.8 -2.72,-1.77 -0.8,-1.36 -1.28,-3.39 -1.28,-3.56 0,-0.45 0.48,-0.45 0.59,-0.45 0.49,0 0.52,0.11 0.77,1.04 0.52,2.13 1.19,3.77 2.55,3.77 0.9,0 1.14,-0.77 1.14,-1.7 0,-0.67 -0.32,-1.96 -0.57,-2.89 -0.23,-0.96 -0.57,-2.38 -0.76,-3.14 l -1.11,-4.47 c -0.14,-0.44 -0.35,-1.32 -0.35,-1.42 0,-0.77 0.63,-1.11 1.19,-1.11 0.52,0 1.22,0.31 1.49,1 0.07,0.21 0.45,1.75 0.67,2.62 z"
           inkscape:connector-curvature="0"
           style="fill:#000000;stroke-width:0" /></g>    </g>
  </g>
</svg>
