<?xml version="1.0" encoding="UTF-8" standalone="no"?>
<!-- Created with Inkscape (http://www.inkscape.org/) -->

<svg
   xmlns:dc="http://purl.org/dc/elements/1.1/"
   xmlns:cc="http://creativecommons.org/ns#"
   xmlns:rdf="http://www.w3.org/1999/02/22-rdf-syntax-ns#"
   xmlns:svg="http://www.w3.org/2000/svg"
   xmlns="http://www.w3.org/2000/svg"
   xmlns:sodipodi="http://sodipodi.sourceforge.net/DTD/sodipodi-0.dtd"
   xmlns:inkscape="http://www.inkscape.org/namespaces/inkscape"
   width="100"
   height="100"
   id="svg2"
   version="1.1"
   inkscape:version="0.48.4 r9939"
   sodipodi:docname="eye.svg">
  <defs
     id="defs4">
    <linearGradient
       id="linearGradient3765">
      <stop
         style="stop-color:#eaff00;stop-opacity:1;"
         offset="0"
         id="stop3767" />
      <stop
         id="stop3773"
         offset="0.75"
         style="stop-color:#f4d608;stop-opacity:1;" />
      <stop
         style="stop-color:#ffad10;stop-opacity:1;"
         offset="1"
         id="stop3769" />
    </linearGradient>
  </defs>
  <sodipodi:namedview
     id="base"
     pagecolor="#ffffff"
     bordercolor="#666666"
     borderopacity="1.0"
     inkscape:pageopacity="0.0"
     inkscape:pageshadow="2"
     inkscape:zoom="2"
     inkscape:cx="80.983118"
     inkscape:cy="46.531206"
     inkscape:document-units="px"
     inkscape:current-layer="layer1"
     showgrid="false"
     fit-margin-top="0"
     fit-margin-left="0"
     fit-margin-right="0"
     fit-margin-bottom="0"
     inkscape:window-width="1366"
     inkscape:window-height="705"
     inkscape:window-x="-8"
     inkscape:window-y="138"
     inkscape:window-maximized="1" />
  <metadata
     id="metadata7">
    <rdf:RDF>
      <cc:Work
         rdf:about="">
        <dc:format>image/svg+xml</dc:format>
        <dc:type
           rdf:resource="http://purl.org/dc/dcmitype/StillImage" />
        <dc:title></dc:title>
      </cc:Work>
    </rdf:RDF>
  </metadata>
  <g
     inkscape:label="Layer 1"
     inkscape:groupmode="layer"
     id="layer1"
     transform="translate(-145.1875,-429.4375)">
    <path
       style="fill:#7ed7ff;fill-opacity:1;stroke:#000000;stroke-width:0.80268437;stroke-linecap:butt;stroke-linejoin:miter;stroke-miterlimit:4;stroke-opacity:1;stroke-dasharray:none"
       d="m 152.61374,429.63594 c -0.9257,3.04217 -2.14948,8.05115 -2.7269,11.10881 -0.57743,3.05766 -1.0796,6.13346 -1.51813,9.24327 -0.43852,3.10981 -0.81249,6.24193 -1.10847,9.39995 -0.29598,3.15802 -0.52491,6.35432 -0.67472,9.55661 -0.1498,3.20229 -0.21687,6.41842 -0.21687,9.66105 0,1.62131 0.0106,3.24516 0.0482,4.85663 0.0377,1.61148 0.0938,3.20327 0.16868,4.80443 0.0749,1.60114 0.17748,3.21408 0.28917,4.80441 0.11166,1.59031 0.23755,3.17318 0.38555,4.75218 0.148,1.57901 0.32218,3.15888 0.50604,4.7261 0.18385,1.56719 0.38317,3.11895 0.60243,4.67386 0.21925,1.5549 0.44461,3.10563 0.69882,4.64774 0.25422,1.54212 0.53059,3.0667 0.81931,4.59553 0.28871,1.52883 0.59292,3.05436 0.91568,4.56942 0.32277,1.51506 2.01505,7.79729 2.01505,7.79729 l 92.74836,-50.07092 z"
       id="path3775"
       inkscape:connector-curvature="0"
       sodipodi:nodetypes="cssssssssssssccccc" />
    <path
       style="fill:#dbf5ff;fill-opacity:1;stroke:#000000;stroke-width:0.81303161;stroke-linecap:butt;stroke-linejoin:miter;stroke-miterlimit:4;stroke-opacity:1;stroke-dasharray:none"
       d="m 149.3222,442.25097 c -0.33554,1.97515 -0.64504,3.96196 -0.92593,5.96071 -0.44344,3.15521 -0.82159,6.33305 -1.12088,9.53716 -0.29929,3.20413 -0.53079,6.44707 -0.68227,9.69612 -0.15148,3.24904 -0.2193,6.5121 -0.2193,9.80207 0,1.64499 0.0106,3.29253 0.0487,4.92753 0.0381,1.635 0.0948,3.25002 0.17056,4.87455 0.0757,1.62452 0.17948,3.26101 0.2924,4.87455 0.11293,1.61354 0.24022,3.21951 0.38987,4.82156 0.14965,1.60206 0.3258,3.205 0.51171,4.79507 0.1859,1.59009 0.38746,3.16448 0.60917,4.74208 0.22171,1.57761 0.44957,3.15098 0.70663,4.7156 0.20729,1.26166 0.42669,2.51177 0.65791,3.76188 1.02187,-1.17399 2.00405,-2.41016 2.92401,-3.6824 0.38449,-0.53173 0.7551,-1.06809 1.12088,-1.61603 0.0708,-0.1063 0.1492,-0.21099 0.21929,-0.31789 0.0512,-0.0779 0.0954,-0.16022 0.14621,-0.23844 0.37907,-0.58368 0.73907,-1.17411 1.09651,-1.77497 0.40533,-0.68138 0.79297,-1.36381 1.1696,-2.06638 0.34741,-0.64808 0.6768,-1.32159 0.99904,-1.98691 0.0272,-0.0563 0.0705,-0.10254 0.0975,-0.15895 0.25983,-0.54122 0.51261,-1.09044 0.75538,-1.64251 0.24384,-0.55659 0.48051,-1.1283 0.70663,-1.69549 0.0814,-0.20331 0.16465,-0.40471 0.24367,-0.60933 0.27843,-0.72349 0.53068,-1.45932 0.77974,-2.19884 0.20015,-0.59432 0.40409,-1.19729 0.5848,-1.80146 0.09,-0.30011 0.18289,-0.59828 0.26804,-0.90074 0.0247,-0.088 0.0488,-0.1767 0.073,-0.26491 0.1781,-0.64498 0.33177,-1.30523 0.48734,-1.96042 0.19176,-0.81035 0.35514,-1.61226 0.5117,-2.43727 0.007,-0.0359 0.0175,-0.07 0.0243,-0.10597 0.0214,-0.11413 0.0523,-0.23001 0.073,-0.3444 0.13388,-0.73593 0.26038,-1.47862 0.3655,-2.22534 0.12193,-0.86757 0.21011,-1.74168 0.2924,-2.62272 0.005,-0.0619 0.0188,-0.12339 0.0243,-0.18544 0.15334,-1.70182 0.24367,-3.42033 0.24367,-5.16596 0,-1.80926 -0.10345,-3.58936 -0.26803,-5.35141 -0.0781,-0.83611 -0.15422,-1.66622 -0.26804,-2.49025 -0.006,-0.045 -0.0181,-0.0875 -0.0243,-0.13247 -0.11185,-0.79591 -0.24547,-1.60056 -0.38987,-2.38428 -0.0132,-0.0717 -0.0352,-0.14036 -0.0487,-0.21193 -0.16055,-0.85304 -0.3379,-1.67937 -0.53607,-2.51676 -0.17695,-0.74776 -0.35425,-1.49087 -0.56044,-2.22534 -0.0831,-0.29575 -0.1802,-0.58072 -0.26803,-0.87423 -0.18283,-0.61221 -0.38203,-1.22586 -0.5848,-1.82796 -0.22775,-0.67625 -0.4543,-1.35053 -0.70664,-2.0134 -0.068,-0.1782 -0.14949,-0.35262 -0.2193,-0.52985 -0.286,-0.72823 -0.58653,-1.46149 -0.90157,-2.17234 -0.21138,-0.47696 -0.43376,-0.9353 -0.65791,-1.40409 -0.0668,-0.13954 -0.12696,-0.28506 -0.19493,-0.42387 -0.35858,-0.73223 -0.73177,-1.43479 -1.12087,-2.14586 -0.28666,-0.52387 -0.57443,-1.05112 -0.87721,-1.56304 -0.10891,-0.18446 -0.20579,-0.37345 -0.31677,-0.55633 -0.41865,-0.68889 -0.86858,-1.34771 -1.3158,-2.01339 -0.89446,-1.3314 -1.84799,-2.63541 -2.85092,-3.86786 -0.50146,-0.61622 -1.00798,-1.2115 -1.53511,-1.80145 z"
       id="path3775-4"
       inkscape:connector-curvature="0" />
    <path
       style="color:#000000;fill:#000000;fill-opacity:1;stroke:#000000;stroke-width:0.81303161;stroke-linecap:butt;stroke-linejoin:miter;stroke-miterlimit:4;stroke-opacity:1;stroke-dasharray:none;stroke-dashoffset:0;marker:none;visibility:visible;display:inline;overflow:visible;enable-background:accumulate"
       d="m 146.62313,467.5391 c -0.009,0.17643 -0.0182,0.35319 -0.0265,0.52966 -0.15149,3.24903 -0.21187,6.50876 -0.21187,9.79873 0,1.64498 -0.0116,3.29084 0.0265,4.92584 0.0381,1.635 0.10963,3.24836 0.18538,4.87288 0.0272,0.58274 0.0724,1.16368 0.10593,1.74788 3.47514,-2.17255 5.82627,-6.23988 5.82627,-10.91101 0,-4.70735 -2.38598,-8.80442 -5.90572,-10.96398 z"
       id="path3913"
       inkscape:connector-curvature="0" />
  </g>
</svg>
