<?xml version="1.0" encoding="utf-8"?>
<!-- Generator: Adobe Illustrator 15.1.0, SVG Export Plug-In . SVG Version: 6.00 Build 0)  -->
<!DOCTYPE svg PUBLIC "-//W3C//DTD SVG 1.1//EN" "http://www.w3.org/Graphics/SVG/1.1/DTD/svg11.dtd">
<svg version="1.1"
	 id="svg2" xmlns:inkscape="http://www.inkscape.org/namespaces/inkscape" sodipodi:docname="qt.svg" inkscape:version="0.47 r22583" xmlns:sodipodi="http://sodipodi.sourceforge.net/DTD/sodipodi-0.dtd" xmlns:rdf="http://www.w3.org/1999/02/22-rdf-syntax-ns#" xmlns:svg="http://www.w3.org/2000/svg" xmlns:cc="http://creativecommons.org/ns#" xmlns:dc="http://purl.org/dc/elements/1.1/"
	 xmlns="http://www.w3.org/2000/svg" xmlns:xlink="http://www.w3.org/1999/xlink" x="0px" y="0px" width="44px" height="44px"
	 viewBox="0 0 44 44" enable-background="new 0 0 44 44" xml:space="preserve">
<defs>
	
	
		<inkscape:perspective  id="perspective2836" inkscape:vp_y="0 : 1000 : 0" sodipodi:type="inkscape:persp3d" inkscape:vp_x="0 : 22 : 1" inkscape:vp_z="44 : 22 : 1" inkscape:persp3d-origin="22 : 14.666667 : 1">
		</inkscape:perspective>
</defs>
<sodipodi:namedview  id="namedview14" bordercolor="#666666" pagecolor="#ffffff" borderopacity="1" guidetolerance="10" objecttolerance="10" gridtolerance="10" inkscape:pageopacity="0" inkscape:pageshadow="2" inkscape:zoom="21.454545" inkscape:window-width="1920" inkscape:window-height="1020" inkscape:cy="21.894358" showgrid="false" inkscape:cx="49.412871" inkscape:window-x="-4" inkscape:window-y="-4" inkscape:window-maximized="1" inkscape:current-layer="g3">
	</sodipodi:namedview>
<g id="g3" transform="matrix(0.18308778,0,0,0.18308778,6.6100946,3.2385199)">
	<path id="path5" sodipodi:nodetypes="cccccccc" fill="#006225" d="M43.091,0.359c-2.152-0.355-4.251-0.44-6.281-0.28
		c-4.843,0.317-9.689,0.659-14.529,0.992C9.621,2.082-0.001,12.499-0.001,26.889v169.699l14.191,13.201L43.059,0.37L43.091,0.359z"
		/>
	<path id="path7" fill="#80C342" d="M174.402,160.003c0,12.497-7.755,24.066-17.57,25.768l-142.603,23.96V25.929
		c0-16.719,13.34-28.2,28.891-25.629L174.423,21.82v138.2L174.402,160.003z"/>
	<path id="path11" fill="#006225" d="M154.901,80.961l-12.961-0.6v0.28l6.945,0.32H154.901L154.901,80.961z"/>
	<path id="path13" fill="#006225" d="M144.596,135.601c0.661,0.325,1.429,0.475,2.358,0.475c0.16,0,0.325,0,0.491-0.016
		c2.55-0.144,5.323-0.933,8.342-2.31h-6.011C147.957,134.582,146.245,135.212,144.596,135.601z"/>
	<path id="path17" fill="#FFFFFF" d="M91.151,132.401c2.347-6.054,3.51-17.911,3.51-35.619c0-15.892-1.152-26.821-3.483-32.811
		c-2.336-6.027-5.833-9.281-10.521-9.692c-0.36-0.029-0.715-0.051-1.059-0.051c-4.339,0-7.681,2.536-10.009,7.625
		c-2.52,5.544-3.792,17.039-3.792,34.441c0,16.82,1.237,28.752,3.734,35.75c2.355,6.673,5.878,9.974,10.5,9.974
		c0.205,0,0.411-0.005,0.621-0.021c4.632-0.288,8.121-3.494,10.489-9.601 M109.121,136.15c-4.118,9.708-10.39,16.055-18.994,18.999
		c0.869,4.448,2.176,7.441,3.926,9.014c1.355,1.216,3.435,1.824,6.219,1.824c0.811,0,1.67-0.053,2.592-0.16v13.121l-5.963,0.784
		c-1.755,0.229-3.424,0.341-5.003,0.341c-5.216,0-9.443-1.264-12.617-3.824c-4.208-3.376-7.31-9.889-9.297-19.538
		c-9.137-1.947-16.26-7.755-21.191-17.5c-5.003-9.9-7.55-24.386-7.55-43.34c0-20.431,3.483-35.51,10.34-45.071
		c5.79-8.067,13.86-12.039,24.018-12.039c1.629,0,3.31,0.101,5.043,0.304c11.948,1.376,20.621,7.017,26.264,16.791
		c5.531,9.561,8.251,23.269,8.251,41.26c0,16.482-2,29.448-6.043,39.022L109.121,136.15z M130.398,45.91l11.521,1.237v20.21
		l12.961,0.915v12.681l-12.961-0.6v46.33c0,4.032,0.448,6.625,1.344,7.793c0.8,1.067,2.043,1.59,3.707,1.59
		c0.16,0,0.325,0,0.496-0.011c2.55-0.149,5.323-0.939,8.342-2.315v11.655c-5.131,2.256-10.177,3.6-15.116,4.016
		c-0.72,0.059-1.414,0.085-2.08,0.085c-4.48,0-7.905-1.302-10.252-3.931c-2.731-3.051-4.086-7.948-4.086-14.673V79.534l-6.23-0.285
		V65.661l7.585,0.547l4.779-20.301L130.398,45.91z"/>
	<path id="path19" fill="#006225" d="M100.299,165.999c0.811,0,1.669-0.053,2.592-0.155h-4.838
		C98.731,165.945,99.504,165.999,100.299,165.999z"/>
	<path id="path21" fill="#006225" d="M84.849,63.981c2.333,5.995,3.486,16.919,3.486,32.808c0,17.7-1.163,29.568-3.512,35.622
		c-1.896,4.881-4.528,7.899-7.865,9.068c0.965,0.368,1.992,0.549,3.078,0.549c0.208,0,0.411-0.005,0.621-0.016
		c4.635-0.293,8.121-3.494,10.494-9.601c2.347-6.054,3.51-17.911,3.51-35.622c0-15.889-1.152-26.818-3.488-32.808
		c-2.336-6.027-5.83-9.281-10.518-9.692c-0.357-0.032-0.715-0.051-1.059-0.051c-1.088,0-2.115,0.16-3.08,0.48H76.51
		c3.603,1.12,6.379,4.216,8.337,9.262H84.849z M82.505,178.277c-0.112-0.048-0.227-0.101-0.336-0.16
		c-0.011,0-0.021-0.011-0.035-0.011c-0.101-0.053-0.205-0.107-0.309-0.16c-0.019-0.011-0.037-0.021-0.056-0.032
		c-0.091-0.048-0.184-0.096-0.28-0.144c-0.027-0.016-0.053-0.037-0.085-0.053c-0.083-0.042-0.163-0.091-0.243-0.133
		c-0.037-0.027-0.077-0.053-0.112-0.075c-0.069-0.037-0.144-0.08-0.216-0.123c-0.045-0.032-0.093-0.059-0.139-0.091
		c-0.059-0.037-0.117-0.074-0.176-0.112c-0.059-0.037-0.115-0.075-0.168-0.112c-0.051-0.032-0.101-0.069-0.149-0.096
		c-0.067-0.053-0.133-0.096-0.195-0.139c-0.04-0.032-0.077-0.053-0.115-0.085c-0.077-0.053-0.152-0.112-0.229-0.171
		c-0.024-0.016-0.051-0.032-0.077-0.053c-0.099-0.08-0.2-0.16-0.299-0.235c-4.206-3.382-7.307-9.894-9.297-19.543
		c-9.134-1.941-16.26-7.755-21.189-17.495c-5.006-9.905-7.553-24.392-7.553-43.343c0-20.428,3.486-35.51,10.34-45.071
		c5.79-8.07,13.86-12.039,24.021-12.039h-6.35c-10.15,0.008-18.22,3.976-24,12.039c-6.857,9.563-10.342,24.642-10.342,45.071
		c0,18.951,2.547,33.443,7.553,43.343c4.934,9.75,12.049,15.553,21.189,17.495c1.99,9.644,5.091,16.162,9.297,19.543
		c3.176,2.56,7.403,3.824,12.62,3.824c0.099,0,0.2,0,0.299-0.005h5.539c-3.408-0.053-6.385-0.661-8.907-1.83l-0.008-0.005H82.505z
		 M128.403,145.602c-2.731-3.051-4.096-7.948-4.096-14.673v-51.36l-6.219-0.283V65.696h-6.017v3.035
		c0.869,3.272,1.552,6.819,2.059,10.638l4.166,0.192v51.362c0,6.721,1.365,11.617,4.091,14.668c2.342,2.635,5.76,3.937,10.252,3.937
		h6.011c-4.48,0-7.905-1.302-10.246-3.937V145.602z M130.44,45.939h-6.017l-4.662,19.882l5.91,0.421l4.768-20.301V45.939z"/>
</g>
<circle fill="#8FE65C" stroke="#000000" stroke-miterlimit="10" cx="22" cy="22" r="22"/>
</svg>
